<svg fill="none" height="619" viewBox="0 0 776 619" width="776" xmlns="http://www.w3.org/2000/svg"><path d="m550.074 469.926 64.15 37.037v74.074l-64.15 37.037-64.15-37.037v-74.074z" fill="#e6e4e4"/><path d="m550.074 488.444 48.113 27.778v55.556l-48.113 27.778-48.112-27.778v-55.556z" fill="#b6b6b6"/><path d="m550.074 506.963 32.075 18.518v37.038l-32.075 18.518-32.075-18.518v-37.038z" fill="#a7a5a5"/><path d="m627.852 344 64.15 37.037v74.074l-64.15 37.037-64.15-37.037v-74.074z" fill="#e6e4e4"/><path d="m627.852 362.519 48.112 27.777v55.556l-48.112 27.778-48.113-27.778v-55.556z" fill="#b6b6b6"/><path d="m627.852 381.037 32.075 18.519v37.037l-32.075 18.518-32.075-18.518v-37.037z" fill="#a7a5a5"/><path d="m701.926 469.926 64.15 37.037v74.074l-64.15 37.037-64.15-37.037v-74.074z" fill="#e6e4e4"/><path d="m701.926 488.444 48.112 27.778v55.556l-48.112 27.778-48.113-27.778v-55.556z" fill="#b6b6b6"/><path d="m701.926 506.963 32.075 18.518v37.038l-32.075 18.518-32.075-18.518v-37.038z" fill="#a7a5a5"/><path d="m272 0 259.808 150v300l-259.808 150-259.8076-150v-300z" fill="#e6e4e4"/><path d="m272 75 194.856 112.5v225l-194.856 112.5-194.8557-112.5v-225z" fill="#b6b6b6"/><path d="m272 150 129.904 75v150l-129.904 75-129.904-75v-150z" fill="#a7a5a5"/></svg>