<svg width="2550" height="626" viewBox="0 0 2550 626" fill="none" xmlns="http://www.w3.org/2000/svg">
<path d="M300 0L559.808 150V450L300 600L40.1924 450V150L300 0Z" fill="#E6E4E4"/>
<path d="M300 75L494.856 187.5V412.5L300 525L105.144 412.5V187.5L300 75Z" fill="#B6B6B6"/>
<path d="M300 150L429.904 225V375L300 450L170.096 375V225L300 150Z" fill="#A7A5A5"/>
<path d="M578.074 469.926L642.224 506.963V581.037L578.074 618.074L513.924 581.037V506.963L578.074 469.926Z" fill="#E6E4E4"/>
<path d="M578.074 488.444L626.187 516.222V571.778L578.074 599.556L529.962 571.778V516.222L578.074 488.444Z" fill="#B6B6B6"/>
<path d="M578.074 506.963L610.149 525.481V562.519L578.074 581.037L545.999 562.519V525.481L578.074 506.963Z" fill="#A7A5A5"/>
<path d="M655.852 344L720.002 381.037V455.111L655.852 492.148L591.702 455.111V381.037L655.852 344Z" fill="#E6E4E4"/>
<path d="M655.852 362.518L703.964 390.296V445.852L655.852 473.63L607.739 445.852V390.296L655.852 362.518Z" fill="#B6B6B6"/>
<path d="M655.852 381.037L687.927 399.556V436.593L655.852 455.111L623.777 436.593V399.556L655.852 381.037Z" fill="#A7A5A5"/>
<path d="M729.926 469.926L794.076 506.963V581.037L729.926 618.074L665.776 581.037V506.963L729.926 469.926Z" fill="#E6E4E4"/>
<path d="M729.926 488.444L778.038 516.222V571.778L729.926 599.556L681.813 571.778V516.222L729.926 488.444Z" fill="#B6B6B6"/>
<path d="M729.926 506.963L762.001 525.481V562.519L729.926 581.037L697.851 562.519V525.481L729.926 506.963Z" fill="#A7A5A5"/>
<path d="M1434.57 242.091H1440.74V275.798C1440.74 279.278 1439.92 282.386 1438.28 285.12C1436.65 287.838 1434.36 289.984 1431.39 291.558C1428.43 293.116 1424.95 293.895 1420.95 293.895C1416.96 293.895 1413.48 293.116 1410.51 291.558C1407.54 289.984 1405.24 287.838 1403.6 285.12C1401.98 282.386 1401.16 279.278 1401.16 275.798V242.091H1407.33V275.301C1407.33 277.787 1407.88 279.999 1408.97 281.938C1410.06 283.861 1411.62 285.377 1413.64 286.487C1415.68 287.581 1418.12 288.128 1420.95 288.128C1423.79 288.128 1426.22 287.581 1428.26 286.487C1430.3 285.377 1431.86 283.861 1432.93 281.938C1434.03 279.999 1434.57 277.787 1434.57 275.301V242.091ZM1479.3 263.369L1474.03 264.861C1473.7 263.982 1473.21 263.129 1472.56 262.3C1471.93 261.455 1471.07 260.759 1469.98 260.212C1468.88 259.665 1467.48 259.392 1465.78 259.392C1463.44 259.392 1461.49 259.931 1459.94 261.008C1458.39 262.068 1457.62 263.419 1457.62 265.06C1457.62 266.518 1458.15 267.67 1459.21 268.515C1460.27 269.36 1461.93 270.064 1464.19 270.628L1469.85 272.02C1473.27 272.848 1475.81 274.116 1477.48 275.823C1479.16 277.513 1480 279.693 1480 282.361C1480 284.548 1479.37 286.504 1478.11 288.227C1476.86 289.951 1475.12 291.31 1472.89 292.304C1470.65 293.298 1468.05 293.795 1465.08 293.795C1461.19 293.795 1457.96 292.95 1455.41 291.26C1452.86 289.57 1451.24 287.1 1450.56 283.852L1456.13 282.46C1456.66 284.515 1457.66 286.056 1459.14 287.084C1460.63 288.111 1462.58 288.625 1464.98 288.625C1467.72 288.625 1469.89 288.045 1471.49 286.885C1473.12 285.708 1473.93 284.3 1473.93 282.659C1473.93 281.333 1473.47 280.223 1472.54 279.328C1471.61 278.417 1470.18 277.737 1468.26 277.29L1461.9 275.798C1458.4 274.97 1455.83 273.685 1454.19 271.945C1452.57 270.189 1451.76 267.993 1451.76 265.358C1451.76 263.204 1452.36 261.298 1453.57 259.641C1454.8 257.983 1456.46 256.683 1458.57 255.738C1460.69 254.793 1463.09 254.321 1465.78 254.321C1469.56 254.321 1472.52 255.15 1474.68 256.807C1476.85 258.464 1478.39 260.652 1479.3 263.369ZM1500.06 293.895C1497.64 293.895 1495.45 293.439 1493.47 292.528C1491.5 291.6 1489.94 290.266 1488.78 288.526C1487.62 286.769 1487.04 284.648 1487.04 282.162C1487.04 279.974 1487.47 278.201 1488.33 276.842C1489.19 275.467 1490.34 274.39 1491.78 273.611C1493.23 272.832 1494.82 272.252 1496.56 271.871C1498.31 271.473 1500.08 271.158 1501.85 270.926C1504.17 270.628 1506.05 270.404 1507.49 270.255C1508.95 270.089 1510.01 269.816 1510.68 269.435C1511.36 269.054 1511.7 268.391 1511.7 267.446V267.247C1511.7 264.795 1511.02 262.889 1509.68 261.53C1508.36 260.171 1506.34 259.491 1503.64 259.491C1500.84 259.491 1498.65 260.105 1497.05 261.331C1495.46 262.557 1494.34 263.866 1493.7 265.259L1488.13 263.27C1489.12 260.95 1490.45 259.143 1492.11 257.851C1493.78 256.542 1495.6 255.63 1497.58 255.116C1499.56 254.586 1501.52 254.321 1503.44 254.321C1504.67 254.321 1506.08 254.47 1507.67 254.768C1509.28 255.05 1510.83 255.638 1512.32 256.533C1513.83 257.428 1515.08 258.779 1516.07 260.585C1517.06 262.392 1517.56 264.811 1517.56 267.844V293H1511.7V287.83H1511.4C1511 288.658 1510.34 289.545 1509.41 290.489C1508.48 291.434 1507.25 292.238 1505.7 292.901C1504.16 293.563 1502.28 293.895 1500.06 293.895ZM1500.96 288.625C1503.28 288.625 1505.23 288.169 1506.82 287.258C1508.43 286.346 1509.64 285.17 1510.45 283.728C1511.28 282.286 1511.7 280.77 1511.7 279.179V273.81C1511.45 274.108 1510.9 274.381 1510.06 274.63C1509.23 274.862 1508.27 275.069 1507.17 275.251C1506.09 275.417 1505.04 275.566 1504.01 275.699C1503 275.815 1502.18 275.914 1501.55 275.997C1500.03 276.196 1498.6 276.519 1497.28 276.967C1495.97 277.397 1494.91 278.052 1494.1 278.93C1493.3 279.792 1492.9 280.969 1492.9 282.46C1492.9 284.499 1493.66 286.04 1495.17 287.084C1496.69 288.111 1498.62 288.625 1500.96 288.625ZM1529.07 293V242.091H1534.93V260.884H1535.43C1535.86 260.221 1536.46 259.375 1537.22 258.348C1538 257.304 1539.11 256.376 1540.55 255.564C1542.01 254.735 1543.98 254.321 1546.47 254.321C1549.68 254.321 1552.51 255.125 1554.97 256.732C1557.42 258.34 1559.33 260.618 1560.71 263.568C1562.08 266.518 1562.77 269.998 1562.77 274.009C1562.77 278.052 1562.08 281.557 1560.71 284.523C1559.33 287.473 1557.43 289.76 1554.99 291.384C1552.56 292.992 1549.75 293.795 1546.57 293.795C1544.11 293.795 1542.15 293.389 1540.67 292.577C1539.2 291.749 1538.06 290.812 1537.27 289.768C1536.47 288.708 1535.86 287.83 1535.43 287.134H1534.73V293H1529.07ZM1534.83 273.909C1534.83 276.793 1535.25 279.336 1536.1 281.54C1536.95 283.728 1538.18 285.443 1539.8 286.686C1541.43 287.912 1543.42 288.526 1545.77 288.526C1548.22 288.526 1550.27 287.879 1551.91 286.587C1553.57 285.277 1554.81 283.521 1555.64 281.317C1556.48 279.096 1556.91 276.627 1556.91 273.909C1556.91 271.224 1556.49 268.805 1555.66 266.651C1554.85 264.48 1553.62 262.764 1551.96 261.505C1550.32 260.229 1548.26 259.591 1545.77 259.591C1543.38 259.591 1541.38 260.196 1539.75 261.406C1538.13 262.599 1536.9 264.272 1536.08 266.427C1535.25 268.565 1534.83 271.059 1534.83 273.909ZM1571.75 293V254.818H1577.61V293H1571.75ZM1574.73 248.455C1573.59 248.455 1572.6 248.065 1571.77 247.286C1570.96 246.507 1570.55 245.571 1570.55 244.477C1570.55 243.384 1570.96 242.447 1571.77 241.668C1572.6 240.889 1573.59 240.5 1574.73 240.5C1575.87 240.5 1576.85 240.889 1577.66 241.668C1578.49 242.447 1578.91 243.384 1578.91 244.477C1578.91 245.571 1578.49 246.507 1577.66 247.286C1576.85 248.065 1575.87 248.455 1574.73 248.455ZM1594.22 242.091V293H1588.36V242.091H1594.22ZM1604.97 293V254.818H1610.84V293H1604.97ZM1607.95 248.455C1606.81 248.455 1605.82 248.065 1604.99 247.286C1604.18 246.507 1603.78 245.571 1603.78 244.477C1603.78 243.384 1604.18 242.447 1604.99 241.668C1605.82 240.889 1606.81 240.5 1607.95 240.5C1609.1 240.5 1610.07 240.889 1610.89 241.668C1611.71 242.447 1612.13 243.384 1612.13 244.477C1612.13 245.571 1611.71 246.507 1610.89 247.286C1610.07 248.065 1609.1 248.455 1607.95 248.455ZM1638.19 254.818V259.79H1618.4V254.818H1638.19ZM1624.17 245.67H1630.03V282.062C1630.03 283.72 1630.27 284.963 1630.75 285.791C1631.25 286.603 1631.88 287.15 1632.64 287.432C1633.42 287.697 1634.24 287.83 1635.1 287.83C1635.75 287.83 1636.28 287.796 1636.69 287.73C1637.11 287.647 1637.44 287.581 1637.69 287.531L1638.88 292.801C1638.48 292.95 1637.93 293.099 1637.22 293.249C1636.5 293.414 1635.6 293.497 1634.51 293.497C1632.85 293.497 1631.23 293.141 1629.63 292.428C1628.06 291.716 1626.75 290.63 1625.71 289.172C1624.68 287.714 1624.17 285.874 1624.17 283.653V245.67ZM1650.79 307.318C1649.79 307.318 1648.91 307.235 1648.13 307.07C1647.35 306.92 1646.81 306.771 1646.51 306.622L1648 301.452C1649.43 301.816 1650.69 301.949 1651.78 301.849C1652.88 301.75 1653.85 301.261 1654.69 300.383C1655.55 299.521 1656.34 298.121 1657.05 296.182L1658.15 293.199L1644.03 254.818H1650.39L1660.93 285.244H1661.33L1671.87 254.818H1678.23L1662.02 298.568C1661.29 300.54 1660.39 302.173 1659.31 303.465C1658.24 304.774 1656.99 305.744 1655.56 306.374C1654.15 307.003 1652.56 307.318 1650.79 307.318Z" fill="black"/>
<path d="M1882.01 486.818C1881.71 484.299 1880.5 482.344 1878.38 480.952C1876.26 479.56 1873.65 478.864 1870.57 478.864C1868.32 478.864 1866.35 479.228 1864.65 479.957C1862.98 480.687 1861.67 481.689 1860.73 482.965C1859.8 484.241 1859.34 485.691 1859.34 487.315C1859.34 488.674 1859.66 489.843 1860.3 490.82C1860.97 491.781 1861.81 492.585 1862.84 493.232C1863.87 493.861 1864.94 494.383 1866.07 494.798C1867.2 495.195 1868.23 495.518 1869.18 495.767L1874.35 497.159C1875.68 497.507 1877.15 497.988 1878.77 498.601C1880.41 499.214 1881.98 500.051 1883.47 501.112C1884.98 502.156 1886.22 503.498 1887.2 505.138C1888.18 506.779 1888.67 508.793 1888.67 511.179C1888.67 513.93 1887.95 516.416 1886.5 518.636C1885.08 520.857 1882.99 522.622 1880.24 523.931C1877.51 525.24 1874.18 525.895 1870.27 525.895C1866.63 525.895 1863.47 525.307 1860.8 524.13C1858.15 522.953 1856.06 521.313 1854.54 519.208C1853.03 517.103 1852.18 514.659 1851.98 511.875H1858.34C1858.51 513.797 1859.15 515.388 1860.28 516.648C1861.42 517.891 1862.87 518.819 1864.61 519.432C1866.36 520.028 1868.25 520.327 1870.27 520.327C1872.63 520.327 1874.74 519.946 1876.61 519.183C1878.48 518.404 1879.97 517.327 1881.06 515.952C1882.15 514.56 1882.7 512.936 1882.7 511.08C1882.7 509.389 1882.23 508.014 1881.28 506.953C1880.34 505.893 1879.1 505.031 1877.56 504.368C1876.01 503.705 1874.35 503.125 1872.56 502.628L1866.3 500.838C1862.32 499.695 1859.17 498.062 1856.85 495.941C1854.53 493.82 1853.37 491.044 1853.37 487.614C1853.37 484.763 1854.14 482.277 1855.68 480.156C1857.24 478.018 1859.33 476.361 1861.95 475.185C1864.58 473.991 1867.52 473.395 1870.77 473.395C1874.05 473.395 1876.97 473.983 1879.52 475.16C1882.07 476.32 1884.09 477.911 1885.59 479.933C1887.09 481.954 1887.89 484.25 1887.97 486.818H1882.01ZM1914.02 525.795C1910.34 525.795 1907.16 524.983 1904.5 523.359C1901.84 521.719 1899.8 519.432 1898.36 516.499C1896.93 513.549 1896.22 510.118 1896.22 506.207C1896.22 502.296 1896.93 498.849 1898.36 495.866C1899.8 492.867 1901.8 490.53 1904.37 488.857C1906.96 487.166 1909.97 486.321 1913.42 486.321C1915.41 486.321 1917.37 486.652 1919.31 487.315C1921.25 487.978 1923.02 489.055 1924.61 490.547C1926.2 492.022 1927.46 493.977 1928.41 496.413C1929.35 498.849 1929.83 501.849 1929.83 505.412V507.898H1900.39V502.827H1923.86C1923.86 500.672 1923.43 498.75 1922.57 497.06C1921.72 495.369 1920.51 494.035 1918.94 493.058C1917.38 492.08 1915.54 491.591 1913.42 491.591C1911.08 491.591 1909.06 492.171 1907.35 493.331C1905.66 494.474 1904.36 495.966 1903.45 497.805C1902.54 499.645 1902.08 501.617 1902.08 503.722V507.102C1902.08 509.986 1902.58 512.43 1903.58 514.435C1904.59 516.424 1905.99 517.94 1907.78 518.984C1909.57 520.012 1911.65 520.526 1914.02 520.526C1915.56 520.526 1916.95 520.31 1918.19 519.879C1919.45 519.432 1920.54 518.769 1921.45 517.891C1922.36 516.996 1923.06 515.885 1923.56 514.56L1929.23 516.151C1928.63 518.073 1927.63 519.763 1926.22 521.222C1924.81 522.663 1923.07 523.79 1921 524.602C1918.93 525.398 1916.6 525.795 1914.02 525.795ZM1954.26 525.795C1950.68 525.795 1947.6 524.95 1945.01 523.26C1942.43 521.57 1940.44 519.241 1939.05 516.275C1937.66 513.308 1936.96 509.92 1936.96 506.108C1936.96 502.23 1937.67 498.808 1939.1 495.842C1940.54 492.859 1942.55 490.53 1945.11 488.857C1947.7 487.166 1950.72 486.321 1954.16 486.321C1956.85 486.321 1959.27 486.818 1961.42 487.812C1963.57 488.807 1965.34 490.199 1966.72 491.989C1968.09 493.778 1968.94 495.866 1969.28 498.253H1963.41C1962.96 496.513 1961.97 494.972 1960.43 493.629C1958.9 492.27 1956.85 491.591 1954.26 491.591C1951.97 491.591 1949.97 492.187 1948.25 493.381C1946.54 494.557 1945.2 496.223 1944.24 498.377C1943.3 500.515 1942.83 503.026 1942.83 505.909C1942.83 508.859 1943.29 511.428 1944.22 513.615C1945.16 515.803 1946.49 517.501 1948.2 518.711C1949.92 519.921 1951.94 520.526 1954.26 520.526C1955.79 520.526 1957.17 520.26 1958.41 519.73C1959.66 519.2 1960.71 518.438 1961.57 517.443C1962.43 516.449 1963.04 515.256 1963.41 513.864H1969.28C1968.94 516.117 1968.12 518.147 1966.81 519.954C1965.52 521.744 1963.81 523.169 1961.67 524.229C1959.55 525.273 1957.08 525.795 1954.26 525.795ZM2001.91 509.389V486.818H2007.78V525H2001.91V518.537H2001.52C2000.62 520.476 1999.23 522.125 1997.34 523.484C1995.45 524.826 1993.06 525.497 1990.18 525.497C1987.79 525.497 1985.67 524.975 1983.82 523.931C1981.96 522.871 1980.5 521.28 1979.44 519.158C1978.38 517.021 1977.85 514.328 1977.85 511.08V486.818H1983.72V510.682C1983.72 513.466 1984.5 515.687 1986.05 517.344C1987.63 519.001 1989.63 519.83 1992.07 519.83C1993.53 519.83 1995.01 519.457 1996.52 518.711C1998.04 517.965 1999.32 516.822 2000.35 515.281C2001.39 513.739 2001.91 511.776 2001.91 509.389ZM2018.53 525V486.818H2024.19V492.585H2024.59C2025.29 490.696 2026.55 489.163 2028.37 487.987C2030.19 486.81 2032.25 486.222 2034.53 486.222C2034.96 486.222 2035.5 486.23 2036.15 486.246C2036.8 486.263 2037.29 486.288 2037.62 486.321V492.287C2037.42 492.237 2036.96 492.163 2036.25 492.063C2035.55 491.947 2034.82 491.889 2034.04 491.889C2032.18 491.889 2030.52 492.279 2029.07 493.058C2027.62 493.82 2026.48 494.88 2025.63 496.239C2024.81 497.582 2024.39 499.115 2024.39 500.838V525H2018.53ZM2044.57 525V486.818H2050.44V525H2044.57ZM2047.55 480.455C2046.41 480.455 2045.42 480.065 2044.6 479.286C2043.78 478.507 2043.38 477.571 2043.38 476.477C2043.38 475.384 2043.78 474.447 2044.6 473.668C2045.42 472.889 2046.41 472.5 2047.55 472.5C2048.7 472.5 2049.67 472.889 2050.49 473.668C2051.32 474.447 2051.73 475.384 2051.73 476.477C2051.73 477.571 2051.32 478.507 2050.49 479.286C2049.67 480.065 2048.7 480.455 2047.55 480.455ZM2077.79 486.818V491.79H2058V486.818H2077.79ZM2063.77 477.67H2069.63V514.062C2069.63 515.72 2069.87 516.963 2070.35 517.791C2070.85 518.603 2071.48 519.15 2072.24 519.432C2073.02 519.697 2073.84 519.83 2074.7 519.83C2075.35 519.83 2075.88 519.796 2076.3 519.73C2076.71 519.647 2077.04 519.581 2077.29 519.531L2078.48 524.801C2078.09 524.95 2077.53 525.099 2076.82 525.249C2076.1 525.414 2075.2 525.497 2074.11 525.497C2072.45 525.497 2070.83 525.141 2069.24 524.428C2067.66 523.716 2066.35 522.63 2065.31 521.172C2064.28 519.714 2063.77 517.874 2063.77 515.653V477.67ZM2090.39 539.318C2089.4 539.318 2088.51 539.235 2087.73 539.07C2086.95 538.92 2086.41 538.771 2086.11 538.622L2087.61 533.452C2089.03 533.816 2090.29 533.949 2091.38 533.849C2092.48 533.75 2093.45 533.261 2094.29 532.383C2095.15 531.521 2095.94 530.121 2096.65 528.182L2097.75 525.199L2083.63 486.818H2089.99L2100.53 517.244H2100.93L2111.47 486.818H2117.83L2101.63 530.568C2100.9 532.54 2099.99 534.173 2098.92 535.465C2097.84 536.774 2096.59 537.744 2095.16 538.374C2093.75 539.003 2092.16 539.318 2090.39 539.318Z" fill="black"/>
<path d="M1066.16 194V143.091H1083.37C1087.36 143.091 1090.63 143.812 1093.16 145.254C1095.71 146.679 1097.6 148.609 1098.83 151.045C1100.05 153.482 1100.67 156.199 1100.67 159.199C1100.67 162.198 1100.05 164.924 1098.83 167.377C1097.62 169.83 1095.75 171.785 1093.21 173.244C1090.67 174.685 1087.43 175.406 1083.47 175.406H1071.14V169.938H1083.27C1086 169.938 1088.2 169.465 1089.85 168.521C1091.51 167.576 1092.71 166.3 1093.46 164.692C1094.22 163.068 1094.6 161.237 1094.6 159.199C1094.6 157.161 1094.22 155.338 1093.46 153.73C1092.71 152.123 1091.5 150.863 1089.83 149.952C1088.16 149.024 1085.94 148.56 1083.17 148.56H1072.33V194H1066.16ZM1125.4 194.795C1121.72 194.795 1118.55 193.983 1115.88 192.359C1113.23 190.719 1111.18 188.432 1109.74 185.499C1108.32 182.549 1107.6 179.118 1107.6 175.207C1107.6 171.296 1108.32 167.849 1109.74 164.866C1111.18 161.867 1113.19 159.53 1115.76 157.857C1118.34 156.166 1121.36 155.321 1124.8 155.321C1126.79 155.321 1128.76 155.652 1130.7 156.315C1132.63 156.978 1134.4 158.055 1135.99 159.547C1137.58 161.022 1138.85 162.977 1139.79 165.413C1140.74 167.849 1141.21 170.849 1141.21 174.412V176.898H1111.78V171.827H1135.25C1135.25 169.672 1134.81 167.75 1133.95 166.06C1133.11 164.369 1131.9 163.035 1130.32 162.058C1128.77 161.08 1126.93 160.591 1124.8 160.591C1122.47 160.591 1120.45 161.171 1118.74 162.331C1117.05 163.474 1115.75 164.966 1114.84 166.805C1113.93 168.645 1113.47 170.617 1113.47 172.722V176.102C1113.47 178.986 1113.97 181.43 1114.96 183.435C1115.97 185.424 1117.37 186.94 1119.16 187.984C1120.95 189.012 1123.03 189.526 1125.4 189.526C1126.94 189.526 1128.33 189.31 1129.58 188.879C1130.84 188.432 1131.92 187.769 1132.83 186.891C1133.75 185.996 1134.45 184.885 1134.95 183.56L1140.61 185.151C1140.02 187.073 1139.02 188.763 1137.61 190.222C1136.2 191.663 1134.46 192.79 1132.39 193.602C1130.31 194.398 1127.99 194.795 1125.4 194.795ZM1150.13 194V155.818H1155.8V161.585H1156.2C1156.9 159.696 1158.16 158.163 1159.98 156.987C1161.8 155.81 1163.86 155.222 1166.14 155.222C1166.57 155.222 1167.11 155.23 1167.76 155.246C1168.41 155.263 1168.89 155.288 1169.23 155.321V161.287C1169.03 161.237 1168.57 161.163 1167.86 161.063C1167.16 160.947 1166.43 160.889 1165.65 160.889C1163.79 160.889 1162.13 161.279 1160.67 162.058C1159.23 162.82 1158.09 163.88 1157.24 165.239C1156.42 166.582 1156 168.115 1156 169.838V194H1150.13ZM1195.58 155.818V160.79H1174.99V155.818H1195.58ZM1181.16 194V150.548C1181.16 148.361 1181.67 146.538 1182.7 145.08C1183.73 143.621 1185.06 142.527 1186.7 141.798C1188.34 141.069 1190.07 140.705 1191.9 140.705C1193.34 140.705 1194.51 140.821 1195.43 141.053C1196.34 141.285 1197.02 141.5 1197.46 141.699L1195.77 146.77C1195.48 146.67 1195.06 146.546 1194.53 146.397C1194.02 146.248 1193.34 146.173 1192.49 146.173C1190.55 146.173 1189.15 146.662 1188.29 147.64C1187.45 148.618 1187.02 150.051 1187.02 151.94V194H1181.16ZM1217.74 194.795C1214.29 194.795 1211.26 193.975 1208.66 192.335C1206.08 190.694 1204.06 188.399 1202.6 185.449C1201.16 182.499 1200.44 179.052 1200.44 175.108C1200.44 171.131 1201.16 167.659 1202.6 164.692C1204.06 161.726 1206.08 159.423 1208.66 157.782C1211.26 156.141 1214.29 155.321 1217.74 155.321C1221.18 155.321 1224.2 156.141 1226.78 157.782C1229.39 159.423 1231.41 161.726 1232.85 164.692C1234.31 167.659 1235.04 171.131 1235.04 175.108C1235.04 179.052 1234.31 182.499 1232.85 185.449C1231.41 188.399 1229.39 190.694 1226.78 192.335C1224.2 193.975 1221.18 194.795 1217.74 194.795ZM1217.74 189.526C1220.35 189.526 1222.51 188.854 1224.2 187.512C1225.89 186.17 1227.14 184.405 1227.95 182.217C1228.76 180.03 1229.17 177.66 1229.17 175.108C1229.17 172.556 1228.76 170.178 1227.95 167.974C1227.14 165.77 1225.89 163.988 1224.2 162.629C1222.51 161.27 1220.35 160.591 1217.74 160.591C1215.12 160.591 1212.96 161.27 1211.27 162.629C1209.58 163.988 1208.33 165.77 1207.52 167.974C1206.71 170.178 1206.3 172.556 1206.3 175.108C1206.3 177.66 1206.71 180.03 1207.52 182.217C1208.33 184.405 1209.58 186.17 1211.27 187.512C1212.96 188.854 1215.12 189.526 1217.74 189.526ZM1243.99 194V155.818H1249.66V161.585H1250.06C1250.75 159.696 1252.01 158.163 1253.84 156.987C1255.66 155.81 1257.71 155.222 1260 155.222C1260.43 155.222 1260.97 155.23 1261.62 155.246C1262.26 155.263 1262.75 155.288 1263.08 155.321V161.287C1262.88 161.237 1262.43 161.163 1261.72 161.063C1261.02 160.947 1260.28 160.889 1259.5 160.889C1257.65 160.889 1255.99 161.279 1254.53 162.058C1253.09 162.82 1251.95 163.88 1251.1 165.239C1250.27 166.582 1249.86 168.115 1249.86 169.838V194H1243.99ZM1270.04 194V155.818H1275.7V161.784H1276.2C1277 159.746 1278.28 158.163 1280.06 157.036C1281.83 155.893 1283.96 155.321 1286.44 155.321C1288.96 155.321 1291.06 155.893 1292.73 157.036C1294.42 158.163 1295.74 159.746 1296.69 161.784H1297.08C1298.06 159.812 1299.53 158.246 1301.48 157.086C1303.44 155.909 1305.78 155.321 1308.52 155.321C1311.93 155.321 1314.72 156.39 1316.89 158.528C1319.07 160.649 1320.15 163.955 1320.15 168.446V194H1314.28V168.446C1314.28 165.629 1313.51 163.615 1311.97 162.406C1310.43 161.196 1308.62 160.591 1306.53 160.591C1303.84 160.591 1301.76 161.403 1300.29 163.027C1298.81 164.634 1298.08 166.673 1298.08 169.142V194H1292.11V167.849C1292.11 165.679 1291.41 163.93 1290 162.604C1288.59 161.262 1286.77 160.591 1284.55 160.591C1283.03 160.591 1281.6 160.997 1280.28 161.809C1278.97 162.621 1277.91 163.748 1277.1 165.19C1276.3 166.615 1275.9 168.264 1275.9 170.136V194H1270.04ZM1342.11 194.895C1339.69 194.895 1337.5 194.439 1335.53 193.528C1333.55 192.6 1331.99 191.266 1330.83 189.526C1329.67 187.769 1329.09 185.648 1329.09 183.162C1329.09 180.974 1329.52 179.201 1330.38 177.842C1331.24 176.467 1332.39 175.39 1333.84 174.611C1335.28 173.832 1336.87 173.252 1338.61 172.871C1340.36 172.473 1342.13 172.158 1343.9 171.926C1346.22 171.628 1348.1 171.404 1349.55 171.255C1351 171.089 1352.06 170.816 1352.73 170.435C1353.41 170.054 1353.75 169.391 1353.75 168.446V168.247C1353.75 165.795 1353.08 163.889 1351.73 162.53C1350.41 161.171 1348.39 160.491 1345.69 160.491C1342.89 160.491 1340.7 161.105 1339.11 162.331C1337.51 163.557 1336.4 164.866 1335.75 166.259L1330.18 164.27C1331.18 161.95 1332.5 160.143 1334.16 158.851C1335.83 157.542 1337.66 156.63 1339.63 156.116C1341.62 155.586 1343.57 155.321 1345.49 155.321C1346.72 155.321 1348.13 155.47 1349.72 155.768C1351.33 156.05 1352.88 156.638 1354.37 157.533C1355.88 158.428 1357.13 159.779 1358.12 161.585C1359.12 163.392 1359.61 165.811 1359.61 168.844V194H1353.75V188.83H1353.45C1353.05 189.658 1352.39 190.545 1351.46 191.489C1350.53 192.434 1349.3 193.238 1347.76 193.901C1346.21 194.563 1344.33 194.895 1342.11 194.895ZM1343.01 189.625C1345.33 189.625 1347.28 189.169 1348.87 188.258C1350.48 187.346 1351.69 186.17 1352.5 184.728C1353.33 183.286 1353.75 181.77 1353.75 180.179V174.81C1353.5 175.108 1352.95 175.381 1352.11 175.63C1351.28 175.862 1350.32 176.069 1349.22 176.251C1348.15 176.417 1347.09 176.566 1346.07 176.699C1345.05 176.815 1344.23 176.914 1343.6 176.997C1342.08 177.196 1340.65 177.519 1339.33 177.967C1338.02 178.397 1336.96 179.052 1336.15 179.93C1335.35 180.792 1334.95 181.969 1334.95 183.46C1334.95 185.499 1335.71 187.04 1337.22 188.084C1338.74 189.111 1340.67 189.625 1343.01 189.625ZM1376.19 171.031V194H1370.32V155.818H1375.99V161.784H1376.49C1377.38 159.845 1378.74 158.287 1380.56 157.111C1382.38 155.918 1384.74 155.321 1387.62 155.321C1390.21 155.321 1392.47 155.851 1394.41 156.912C1396.35 157.956 1397.85 159.547 1398.93 161.685C1400.01 163.806 1400.55 166.491 1400.55 169.739V194H1394.68V170.136C1394.68 167.137 1393.9 164.8 1392.34 163.126C1390.79 161.436 1388.65 160.591 1385.93 160.591C1384.06 160.591 1382.38 160.997 1380.91 161.809C1379.45 162.621 1378.3 163.806 1377.45 165.364C1376.61 166.921 1376.19 168.811 1376.19 171.031ZM1426.78 194.795C1423.2 194.795 1420.12 193.95 1417.53 192.26C1414.95 190.57 1412.96 188.241 1411.57 185.275C1410.17 182.308 1409.48 178.92 1409.48 175.108C1409.48 171.23 1410.19 167.808 1411.62 164.842C1413.06 161.859 1415.06 159.53 1417.63 157.857C1420.22 156.166 1423.23 155.321 1426.68 155.321C1429.36 155.321 1431.78 155.818 1433.94 156.812C1436.09 157.807 1437.86 159.199 1439.23 160.989C1440.61 162.778 1441.46 164.866 1441.79 167.253H1435.93C1435.48 165.513 1434.49 163.972 1432.94 162.629C1431.42 161.27 1429.36 160.591 1426.78 160.591C1424.49 160.591 1422.49 161.187 1420.76 162.381C1419.06 163.557 1417.72 165.223 1416.76 167.377C1415.82 169.515 1415.34 172.026 1415.34 174.909C1415.34 177.859 1415.81 180.428 1416.74 182.615C1417.68 184.803 1419.01 186.501 1420.71 187.711C1422.44 188.921 1424.46 189.526 1426.78 189.526C1428.3 189.526 1429.69 189.26 1430.93 188.73C1432.17 188.2 1433.23 187.438 1434.09 186.443C1434.95 185.449 1435.56 184.256 1435.93 182.864H1441.79C1441.46 185.117 1440.64 187.147 1439.33 188.954C1438.04 190.744 1436.32 192.169 1434.19 193.229C1432.07 194.273 1429.6 194.795 1426.78 194.795ZM1466.38 194.795C1462.7 194.795 1459.53 193.983 1456.86 192.359C1454.21 190.719 1452.16 188.432 1450.72 185.499C1449.29 182.549 1448.58 179.118 1448.58 175.207C1448.58 171.296 1449.29 167.849 1450.72 164.866C1452.16 161.867 1454.16 159.53 1456.73 157.857C1459.32 156.166 1462.33 155.321 1465.78 155.321C1467.77 155.321 1469.73 155.652 1471.67 156.315C1473.61 156.978 1475.38 158.055 1476.97 159.547C1478.56 161.022 1479.83 162.977 1480.77 165.413C1481.72 167.849 1482.19 170.849 1482.19 174.412V176.898H1452.76V171.827H1476.22C1476.22 169.672 1475.79 167.75 1474.93 166.06C1474.08 164.369 1472.87 163.035 1471.3 162.058C1469.74 161.08 1467.9 160.591 1465.78 160.591C1463.44 160.591 1461.42 161.171 1459.72 162.331C1458.03 163.474 1456.72 164.966 1455.81 166.805C1454.9 168.645 1454.45 170.617 1454.45 172.722V176.102C1454.45 178.986 1454.94 181.43 1455.94 183.435C1456.95 185.424 1458.35 186.94 1460.14 187.984C1461.93 189.012 1464.01 189.526 1466.38 189.526C1467.92 189.526 1469.31 189.31 1470.55 188.879C1471.81 188.432 1472.9 187.769 1473.81 186.891C1474.72 185.996 1475.43 184.885 1475.92 183.56L1481.59 185.151C1480.99 187.073 1479.99 188.763 1478.58 190.222C1477.17 191.663 1475.43 192.79 1473.36 193.602C1471.29 194.398 1468.96 194.795 1466.38 194.795Z" fill="black"/>
<path d="M582.165 231V180.091H612.69V185.56H588.33V202.761H610.403V208.23H588.33V231H582.165ZM644.123 215.389V192.818H649.99V231H644.123V224.537H643.725C642.831 226.476 641.439 228.125 639.549 229.484C637.66 230.826 635.274 231.497 632.39 231.497C630.004 231.497 627.883 230.975 626.027 229.931C624.171 228.871 622.712 227.28 621.652 225.158C620.591 223.021 620.061 220.328 620.061 217.08V192.818H625.927V216.682C625.927 219.466 626.706 221.687 628.264 223.344C629.838 225.001 631.843 225.83 634.279 225.83C635.738 225.83 637.221 225.457 638.729 224.711C640.254 223.965 641.53 222.822 642.557 221.281C643.601 219.739 644.123 217.776 644.123 215.389ZM666.601 208.031V231H660.735V192.818H666.402V198.784H666.899C667.794 196.845 669.153 195.287 670.976 194.111C672.799 192.918 675.152 192.321 678.036 192.321C680.621 192.321 682.883 192.851 684.822 193.912C686.761 194.956 688.269 196.547 689.346 198.685C690.423 200.806 690.962 203.491 690.962 206.739V231H685.095V207.136C685.095 204.137 684.316 201.8 682.759 200.126C681.201 198.436 679.063 197.591 676.345 197.591C674.473 197.591 672.799 197.997 671.324 198.809C669.866 199.621 668.714 200.806 667.869 202.364C667.024 203.921 666.601 205.811 666.601 208.031ZM717.193 231.795C713.614 231.795 710.531 230.95 707.946 229.26C705.361 227.57 703.372 225.241 701.98 222.275C700.588 219.308 699.892 215.92 699.892 212.108C699.892 208.23 700.605 204.808 702.03 201.842C703.472 198.859 705.477 196.53 708.045 194.857C710.631 193.166 713.647 192.321 717.094 192.321C719.778 192.321 722.198 192.818 724.352 193.812C726.507 194.807 728.272 196.199 729.647 197.989C731.022 199.778 731.876 201.866 732.207 204.253H726.341C725.893 202.513 724.899 200.972 723.358 199.629C721.833 198.27 719.778 197.591 717.193 197.591C714.906 197.591 712.901 198.187 711.178 199.381C709.471 200.557 708.137 202.223 707.175 204.377C706.231 206.515 705.759 209.026 705.759 211.909C705.759 214.859 706.223 217.428 707.151 219.615C708.095 221.803 709.421 223.501 711.128 224.711C712.851 225.921 714.873 226.526 717.193 226.526C718.718 226.526 720.102 226.26 721.344 225.73C722.587 225.2 723.64 224.438 724.501 223.443C725.363 222.449 725.976 221.256 726.341 219.864H732.207C731.876 222.117 731.056 224.147 729.746 225.954C728.454 227.744 726.739 229.169 724.601 230.229C722.48 231.273 720.01 231.795 717.193 231.795ZM757.388 192.818V197.79H737.602V192.818H757.388ZM743.369 183.67H749.235V220.062C749.235 221.72 749.475 222.963 749.956 223.791C750.453 224.603 751.083 225.15 751.845 225.432C752.624 225.697 753.444 225.83 754.306 225.83C754.952 225.83 755.483 225.796 755.897 225.73C756.311 225.647 756.643 225.581 756.891 225.531L758.085 230.801C757.687 230.95 757.132 231.099 756.419 231.249C755.706 231.414 754.803 231.497 753.71 231.497C752.052 231.497 750.428 231.141 748.837 230.428C747.263 229.716 745.954 228.63 744.91 227.172C743.882 225.714 743.369 223.874 743.369 221.653V183.67ZM766.213 231V192.818H772.08V231H766.213ZM769.196 186.455C768.053 186.455 767.067 186.065 766.238 185.286C765.426 184.507 765.02 183.571 765.02 182.477C765.02 181.384 765.426 180.447 766.238 179.668C767.067 178.889 768.053 178.5 769.196 178.5C770.339 178.5 771.317 178.889 772.129 179.668C772.958 180.447 773.372 181.384 773.372 182.477C773.372 183.571 772.958 184.507 772.129 185.286C771.317 186.065 770.339 186.455 769.196 186.455ZM798.336 231.795C794.889 231.795 791.864 230.975 789.263 229.335C786.677 227.694 784.656 225.399 783.197 222.449C781.756 219.499 781.035 216.052 781.035 212.108C781.035 208.131 781.756 204.659 783.197 201.692C784.656 198.726 786.677 196.423 789.263 194.782C791.864 193.141 794.889 192.321 798.336 192.321C801.783 192.321 804.799 193.141 807.384 194.782C809.986 196.423 812.008 198.726 813.449 201.692C814.908 204.659 815.637 208.131 815.637 212.108C815.637 216.052 814.908 219.499 813.449 222.449C812.008 225.399 809.986 227.694 807.384 229.335C804.799 230.975 801.783 231.795 798.336 231.795ZM798.336 226.526C800.954 226.526 803.108 225.854 804.799 224.512C806.489 223.17 807.74 221.405 808.552 219.217C809.364 217.03 809.77 214.66 809.77 212.108C809.77 209.556 809.364 207.178 808.552 204.974C807.74 202.77 806.489 200.988 804.799 199.629C803.108 198.27 800.954 197.591 798.336 197.591C795.717 197.591 793.563 198.27 791.873 199.629C790.182 200.988 788.931 202.77 788.119 204.974C787.307 207.178 786.901 209.556 786.901 212.108C786.901 214.66 787.307 217.03 788.119 219.217C788.931 221.405 790.182 223.17 791.873 224.512C793.563 225.854 795.717 226.526 798.336 226.526ZM830.458 208.031V231H824.592V192.818H830.26V198.784H830.757C831.652 196.845 833.011 195.287 834.833 194.111C836.656 192.918 839.01 192.321 841.893 192.321C844.478 192.321 846.74 192.851 848.679 193.912C850.618 194.956 852.126 196.547 853.203 198.685C854.281 200.806 854.819 203.491 854.819 206.739V231H848.953V207.136C848.953 204.137 848.174 201.8 846.616 200.126C845.058 198.436 842.921 197.591 840.203 197.591C838.33 197.591 836.656 197.997 835.181 198.809C833.723 199.621 832.571 200.806 831.726 202.364C830.881 203.921 830.458 205.811 830.458 208.031ZM876.775 231.895C874.356 231.895 872.16 231.439 870.188 230.528C868.216 229.6 866.65 228.266 865.49 226.526C864.329 224.769 863.749 222.648 863.749 220.162C863.749 217.974 864.18 216.201 865.042 214.842C865.904 213.467 867.056 212.39 868.497 211.611C869.939 210.832 871.53 210.252 873.27 209.871C875.027 209.473 876.792 209.158 878.565 208.926C880.885 208.628 882.766 208.404 884.208 208.255C885.666 208.089 886.727 207.816 887.389 207.435C888.069 207.054 888.409 206.391 888.409 205.446V205.247C888.409 202.795 887.737 200.889 886.395 199.53C885.069 198.171 883.056 197.491 880.355 197.491C877.554 197.491 875.358 198.105 873.767 199.331C872.176 200.557 871.058 201.866 870.411 203.259L864.843 201.27C865.838 198.95 867.163 197.143 868.82 195.851C870.494 194.542 872.317 193.63 874.289 193.116C876.278 192.586 878.233 192.321 880.156 192.321C881.382 192.321 882.791 192.47 884.382 192.768C885.989 193.05 887.539 193.638 889.03 194.533C890.538 195.428 891.789 196.779 892.784 198.585C893.778 200.392 894.275 202.811 894.275 205.844V231H888.409V225.83H888.11C887.713 226.658 887.05 227.545 886.122 228.489C885.194 229.434 883.959 230.238 882.418 230.901C880.877 231.563 878.996 231.895 876.775 231.895ZM877.67 226.625C879.99 226.625 881.945 226.169 883.536 225.258C885.144 224.346 886.354 223.17 887.166 221.728C887.994 220.286 888.409 218.77 888.409 217.179V211.81C888.16 212.108 887.613 212.381 886.768 212.63C885.939 212.862 884.978 213.069 883.884 213.251C882.807 213.417 881.755 213.566 880.727 213.699C879.717 213.815 878.896 213.914 878.267 213.997C876.742 214.196 875.317 214.519 873.991 214.967C872.682 215.397 871.621 216.052 870.809 216.93C870.014 217.792 869.616 218.969 869.616 220.46C869.616 222.499 870.37 224.04 871.878 225.084C873.403 226.111 875.333 226.625 877.67 226.625ZM910.849 180.091V231H904.983V180.091H910.849ZM921.594 231V192.818H927.46V231H921.594ZM924.577 186.455C923.433 186.455 922.447 186.065 921.619 185.286C920.807 184.507 920.401 183.571 920.401 182.477C920.401 181.384 920.807 180.447 921.619 179.668C922.447 178.889 923.433 178.5 924.577 178.5C925.72 178.5 926.698 178.889 927.51 179.668C928.339 180.447 928.753 181.384 928.753 182.477C928.753 183.571 928.339 184.507 927.51 185.286C926.698 186.065 925.72 186.455 924.577 186.455ZM954.81 192.818V197.79H935.023V192.818H954.81ZM940.79 183.67H946.657V220.062C946.657 221.72 946.897 222.963 947.378 223.791C947.875 224.603 948.505 225.15 949.267 225.432C950.046 225.697 950.866 225.83 951.728 225.83C952.374 225.83 952.905 225.796 953.319 225.73C953.733 225.647 954.065 225.581 954.313 225.531L955.506 230.801C955.109 230.95 954.554 231.099 953.841 231.249C953.128 231.414 952.225 231.497 951.131 231.497C949.474 231.497 947.85 231.141 946.259 230.428C944.685 229.716 943.376 228.63 942.332 227.172C941.304 225.714 940.79 223.874 940.79 221.653V183.67ZM967.413 245.318C966.419 245.318 965.532 245.235 964.754 245.07C963.975 244.92 963.436 244.771 963.138 244.622L964.629 239.452C966.054 239.816 967.314 239.949 968.408 239.849C969.501 239.75 970.471 239.261 971.316 238.383C972.178 237.521 972.965 236.121 973.678 234.182L974.771 231.199L960.652 192.818H967.016L977.555 223.244H977.953L988.493 192.818H994.857L978.649 236.568C977.92 238.54 977.017 240.173 975.94 241.465C974.862 242.774 973.611 243.744 972.186 244.374C970.777 245.003 969.187 245.318 967.413 245.318Z" fill="black"/>
<path d="M773.165 363V312.091H790.366C794.344 312.091 797.608 312.77 800.161 314.129C802.713 315.472 804.602 317.319 805.828 319.673C807.054 322.026 807.668 324.702 807.668 327.702C807.668 330.701 807.054 333.361 805.828 335.681C804.602 338.001 802.721 339.824 800.185 341.15C797.65 342.459 794.41 343.114 790.466 343.114H776.545V337.545H790.267C792.985 337.545 795.172 337.148 796.83 336.352C798.503 335.557 799.713 334.43 800.459 332.972C801.221 331.497 801.602 329.74 801.602 327.702C801.602 325.663 801.221 323.882 800.459 322.357C799.696 320.833 798.478 319.656 796.805 318.827C795.131 317.982 792.919 317.56 790.168 317.56H779.33V363H773.165ZM797.128 340.131L809.656 363H802.497L790.168 340.131H797.128ZM832.743 363.795C829.064 363.795 825.891 362.983 823.222 361.359C820.571 359.719 818.524 357.432 817.083 354.499C815.657 351.549 814.945 348.118 814.945 344.207C814.945 340.296 815.657 336.849 817.083 333.866C818.524 330.867 820.53 328.53 823.098 326.857C825.683 325.166 828.7 324.321 832.146 324.321C834.135 324.321 836.099 324.652 838.038 325.315C839.977 325.978 841.742 327.055 843.333 328.547C844.923 330.022 846.191 331.977 847.136 334.413C848.08 336.849 848.553 339.849 848.553 343.412V345.898H819.121V340.827H842.587C842.587 338.672 842.156 336.75 841.294 335.06C840.449 333.369 839.239 332.035 837.665 331.058C836.107 330.08 834.268 329.591 832.146 329.591C829.81 329.591 827.788 330.171 826.081 331.331C824.391 332.474 823.09 333.966 822.178 335.805C821.267 337.645 820.811 339.617 820.811 341.722V345.102C820.811 347.986 821.308 350.43 822.303 352.435C823.314 354.424 824.714 355.94 826.504 356.984C828.294 358.012 830.373 358.526 832.743 358.526C834.284 358.526 835.676 358.31 836.919 357.879C838.179 357.432 839.264 356.769 840.176 355.891C841.087 354.996 841.791 353.885 842.289 352.56L847.956 354.151C847.36 356.073 846.357 357.763 844.948 359.222C843.54 360.663 841.8 361.79 839.728 362.602C837.657 363.398 835.328 363.795 832.743 363.795ZM863.343 312.091V363H857.477V312.091H863.343ZM874.088 363V324.818H879.955V363H874.088ZM877.071 318.455C875.928 318.455 874.942 318.065 874.113 317.286C873.301 316.507 872.895 315.571 872.895 314.477C872.895 313.384 873.301 312.447 874.113 311.668C874.942 310.889 875.928 310.5 877.071 310.5C878.214 310.5 879.192 310.889 880.004 311.668C880.833 312.447 881.247 313.384 881.247 314.477C881.247 315.571 880.833 316.507 880.004 317.286C879.192 318.065 878.214 318.455 877.071 318.455ZM901.935 363.895C899.516 363.895 897.32 363.439 895.348 362.528C893.376 361.6 891.81 360.266 890.65 358.526C889.49 356.769 888.91 354.648 888.91 352.162C888.91 349.974 889.34 348.201 890.202 346.842C891.064 345.467 892.216 344.39 893.657 343.611C895.099 342.832 896.69 342.252 898.43 341.871C900.187 341.473 901.952 341.158 903.725 340.926C906.045 340.628 907.926 340.404 909.368 340.255C910.826 340.089 911.887 339.816 912.55 339.435C913.229 339.054 913.569 338.391 913.569 337.446V337.247C913.569 334.795 912.898 332.889 911.555 331.53C910.229 330.171 908.216 329.491 905.515 329.491C902.714 329.491 900.518 330.105 898.927 331.331C897.336 332.557 896.218 333.866 895.572 335.259L890.003 333.27C890.998 330.95 892.323 329.143 893.981 327.851C895.654 326.542 897.477 325.63 899.449 325.116C901.438 324.586 903.394 324.321 905.316 324.321C906.542 324.321 907.951 324.47 909.542 324.768C911.149 325.05 912.699 325.638 914.19 326.533C915.698 327.428 916.949 328.779 917.944 330.585C918.938 332.392 919.435 334.811 919.435 337.844V363H913.569V357.83H913.27C912.873 358.658 912.21 359.545 911.282 360.489C910.354 361.434 909.119 362.238 907.578 362.901C906.037 363.563 904.156 363.895 901.935 363.895ZM902.83 358.625C905.15 358.625 907.106 358.169 908.697 357.258C910.304 356.346 911.514 355.17 912.326 353.728C913.154 352.286 913.569 350.77 913.569 349.179V343.81C913.32 344.108 912.773 344.381 911.928 344.63C911.099 344.862 910.138 345.069 909.045 345.251C907.967 345.417 906.915 345.566 905.888 345.699C904.877 345.815 904.056 345.914 903.427 345.997C901.902 346.196 900.477 346.519 899.151 346.967C897.842 347.397 896.781 348.052 895.969 348.93C895.174 349.792 894.776 350.969 894.776 352.46C894.776 354.499 895.53 356.04 897.038 357.084C898.563 358.111 900.493 358.625 902.83 358.625ZM930.938 363V312.091H936.805V330.884H937.302C937.733 330.221 938.329 329.375 939.092 328.348C939.871 327.304 940.981 326.376 942.423 325.564C943.881 324.735 945.853 324.321 948.339 324.321C951.554 324.321 954.388 325.125 956.84 326.732C959.293 328.34 961.207 330.618 962.582 333.568C963.958 336.518 964.646 339.998 964.646 344.009C964.646 348.052 963.958 351.557 962.582 354.523C961.207 357.473 959.301 359.76 956.865 361.384C954.429 362.992 951.62 363.795 948.438 363.795C945.986 363.795 944.022 363.389 942.547 362.577C941.072 361.749 939.937 360.812 939.141 359.768C938.346 358.708 937.733 357.83 937.302 357.134H936.606V363H930.938ZM936.705 343.909C936.705 346.793 937.128 349.336 937.973 351.54C938.818 353.728 940.053 355.443 941.677 356.686C943.301 357.912 945.29 358.526 947.643 358.526C950.095 358.526 952.142 357.879 953.783 356.587C955.44 355.277 956.683 353.521 957.511 351.317C958.357 349.096 958.779 346.627 958.779 343.909C958.779 341.224 958.365 338.805 957.536 336.651C956.724 334.48 955.49 332.764 953.832 331.505C952.192 330.229 950.129 329.591 947.643 329.591C945.256 329.591 943.251 330.196 941.627 331.406C940.003 332.599 938.777 334.272 937.948 336.427C937.12 338.565 936.705 341.059 936.705 343.909ZM973.619 363V324.818H979.486V363H973.619ZM976.602 318.455C975.459 318.455 974.473 318.065 973.644 317.286C972.832 316.507 972.426 315.571 972.426 314.477C972.426 313.384 972.832 312.447 973.644 311.668C974.473 310.889 975.459 310.5 976.602 310.5C977.746 310.5 978.723 310.889 979.536 311.668C980.364 312.447 980.778 313.384 980.778 314.477C980.778 315.571 980.364 316.507 979.536 317.286C978.723 318.065 977.746 318.455 976.602 318.455ZM996.097 312.091V363H990.231V312.091H996.097ZM1006.84 363V324.818H1012.71V363H1006.84ZM1009.82 318.455C1008.68 318.455 1007.7 318.065 1006.87 317.286C1006.05 316.507 1005.65 315.571 1005.65 314.477C1005.65 313.384 1006.05 312.447 1006.87 311.668C1007.7 310.889 1008.68 310.5 1009.82 310.5C1010.97 310.5 1011.95 310.889 1012.76 311.668C1013.59 312.447 1014 313.384 1014 314.477C1014 315.571 1013.59 316.507 1012.76 317.286C1011.95 318.065 1010.97 318.455 1009.82 318.455ZM1040.06 324.818V329.79H1020.27V324.818H1040.06ZM1026.04 315.67H1031.91V352.062C1031.91 353.72 1032.15 354.963 1032.63 355.791C1033.12 356.603 1033.75 357.15 1034.52 357.432C1035.29 357.697 1036.11 357.83 1036.98 357.83C1037.62 357.83 1038.15 357.796 1038.57 357.73C1038.98 357.647 1039.31 357.581 1039.56 357.531L1040.75 362.801C1040.36 362.95 1039.8 363.099 1039.09 363.249C1038.38 363.414 1037.47 363.497 1036.38 363.497C1034.72 363.497 1033.1 363.141 1031.51 362.428C1029.93 361.716 1028.62 360.63 1027.58 359.172C1026.55 357.714 1026.04 355.874 1026.04 353.653V315.67ZM1052.66 377.318C1051.67 377.318 1050.78 377.235 1050 377.07C1049.22 376.92 1048.68 376.771 1048.39 376.622L1049.88 371.452C1051.3 371.816 1052.56 371.949 1053.66 371.849C1054.75 371.75 1055.72 371.261 1056.56 370.383C1057.43 369.521 1058.21 368.121 1058.93 366.182L1060.02 363.199L1045.9 324.818H1052.26L1062.8 355.244H1063.2L1073.74 324.818H1080.1L1063.9 368.568C1063.17 370.54 1062.26 372.173 1061.19 373.465C1060.11 374.774 1058.86 375.744 1057.43 376.374C1056.03 377.003 1054.43 377.318 1052.66 377.318Z" fill="black"/>
<path d="M1882.16 286.091H1889.52L1906.82 328.349H1907.42L1924.72 286.091H1932.08V337H1926.31V298.321H1925.82L1909.91 337H1904.34L1888.43 298.321H1887.93V337H1882.16V286.091ZM1954.88 337.895C1952.46 337.895 1950.27 337.439 1948.29 336.528C1946.32 335.6 1944.76 334.266 1943.59 332.526C1942.43 330.769 1941.85 328.648 1941.85 326.162C1941.85 323.974 1942.29 322.201 1943.15 320.842C1944.01 319.467 1945.16 318.39 1946.6 317.611C1948.04 316.832 1949.64 316.252 1951.38 315.871C1953.13 315.473 1954.9 315.158 1956.67 314.926C1958.99 314.628 1960.87 314.404 1962.31 314.255C1963.77 314.089 1964.83 313.816 1965.49 313.435C1966.17 313.054 1966.51 312.391 1966.51 311.446V311.247C1966.51 308.795 1965.84 306.889 1964.5 305.53C1963.17 304.171 1961.16 303.491 1958.46 303.491C1955.66 303.491 1953.46 304.105 1951.87 305.331C1950.28 306.557 1949.16 307.866 1948.52 309.259L1942.95 307.27C1943.94 304.95 1945.27 303.143 1946.93 301.851C1948.6 300.542 1950.42 299.63 1952.39 299.116C1954.38 298.586 1956.34 298.321 1958.26 298.321C1959.49 298.321 1960.9 298.47 1962.49 298.768C1964.09 299.05 1965.64 299.638 1967.14 300.533C1968.64 301.428 1969.89 302.779 1970.89 304.585C1971.88 306.392 1972.38 308.811 1972.38 311.844V337H1966.51V331.83H1966.22C1965.82 332.658 1965.16 333.545 1964.23 334.489C1963.3 335.434 1962.06 336.238 1960.52 336.901C1958.98 337.563 1957.1 337.895 1954.88 337.895ZM1955.78 332.625C1958.1 332.625 1960.05 332.169 1961.64 331.258C1963.25 330.346 1964.46 329.17 1965.27 327.728C1966.1 326.286 1966.51 324.77 1966.51 323.179V317.81C1966.27 318.108 1965.72 318.381 1964.87 318.63C1964.04 318.862 1963.08 319.069 1961.99 319.251C1960.91 319.417 1959.86 319.566 1958.83 319.699C1957.82 319.815 1957 319.914 1956.37 319.997C1954.85 320.196 1953.42 320.519 1952.1 320.967C1950.79 321.397 1949.73 322.052 1948.91 322.93C1948.12 323.792 1947.72 324.969 1947.72 326.46C1947.72 328.499 1948.48 330.04 1949.98 331.084C1951.51 332.111 1953.44 332.625 1955.78 332.625ZM1983.09 337V298.818H1988.95V337H1983.09ZM1986.07 292.455C1984.93 292.455 1983.94 292.065 1983.11 291.286C1982.3 290.507 1981.89 289.571 1981.89 288.477C1981.89 287.384 1982.3 286.447 1983.11 285.668C1983.94 284.889 1984.93 284.5 1986.07 284.5C1987.21 284.5 1988.19 284.889 1989 285.668C1989.83 286.447 1990.25 287.384 1990.25 288.477C1990.25 289.571 1989.83 290.507 1989 291.286C1988.19 292.065 1987.21 292.455 1986.07 292.455ZM2005.57 314.031V337H1999.7V298.818H2005.37V304.784H2005.86C2006.76 302.845 2008.12 301.287 2009.94 300.111C2011.76 298.918 2014.12 298.321 2017 298.321C2019.59 298.321 2021.85 298.851 2023.79 299.912C2025.73 300.956 2027.23 302.547 2028.31 304.685C2029.39 306.806 2029.93 309.491 2029.93 312.739V337H2024.06V313.136C2024.06 310.137 2023.28 307.8 2021.72 306.126C2020.17 304.436 2018.03 303.591 2015.31 303.591C2013.44 303.591 2011.76 303.997 2010.29 304.809C2008.83 305.621 2007.68 306.806 2006.83 308.364C2005.99 309.921 2005.57 311.811 2005.57 314.031ZM2057.25 298.818V303.79H2037.46V298.818H2057.25ZM2043.23 289.67H2049.1V326.062C2049.1 327.72 2049.34 328.963 2049.82 329.791C2050.32 330.603 2050.95 331.15 2051.71 331.432C2052.49 331.697 2053.31 331.83 2054.17 331.83C2054.82 331.83 2055.35 331.796 2055.76 331.73C2056.17 331.647 2056.51 331.581 2056.75 331.531L2057.95 336.801C2057.55 336.95 2056.99 337.099 2056.28 337.249C2055.57 337.414 2054.67 337.497 2053.57 337.497C2051.92 337.497 2050.29 337.141 2048.7 336.428C2047.13 335.716 2045.82 334.63 2044.77 333.172C2043.75 331.714 2043.23 329.874 2043.23 327.653V289.67ZM2077.31 337.895C2074.89 337.895 2072.7 337.439 2070.72 336.528C2068.75 335.6 2067.19 334.266 2066.03 332.526C2064.87 330.769 2064.29 328.648 2064.29 326.162C2064.29 323.974 2064.72 322.201 2065.58 320.842C2066.44 319.467 2067.59 318.39 2069.03 317.611C2070.48 316.832 2072.07 316.252 2073.81 315.871C2075.56 315.473 2077.33 315.158 2079.1 314.926C2081.42 314.628 2083.3 314.404 2084.74 314.255C2086.2 314.089 2087.26 313.816 2087.93 313.435C2088.61 313.054 2088.95 312.391 2088.95 311.446V311.247C2088.95 308.795 2088.27 306.889 2086.93 305.53C2085.61 304.171 2083.59 303.491 2080.89 303.491C2078.09 303.491 2075.9 304.105 2074.3 305.331C2072.71 306.557 2071.59 307.866 2070.95 309.259L2065.38 307.27C2066.37 304.95 2067.7 303.143 2069.36 301.851C2071.03 300.542 2072.85 299.63 2074.83 299.116C2076.81 298.586 2078.77 298.321 2080.69 298.321C2081.92 298.321 2083.33 298.47 2084.92 298.768C2086.53 299.05 2088.08 299.638 2089.57 300.533C2091.08 301.428 2092.33 302.779 2093.32 304.585C2094.31 306.392 2094.81 308.811 2094.81 311.844V337H2088.95V331.83H2088.65C2088.25 332.658 2087.59 333.545 2086.66 334.489C2085.73 335.434 2084.5 336.238 2082.95 336.901C2081.41 337.563 2079.53 337.895 2077.31 337.895ZM2078.21 332.625C2080.53 332.625 2082.48 332.169 2084.07 331.258C2085.68 330.346 2086.89 329.17 2087.7 327.728C2088.53 326.286 2088.95 324.77 2088.95 323.179V317.81C2088.7 318.108 2088.15 318.381 2087.31 318.63C2086.48 318.862 2085.52 319.069 2084.42 319.251C2083.34 319.417 2082.29 319.566 2081.26 319.699C2080.25 319.815 2079.43 319.914 2078.8 319.997C2077.28 320.196 2075.85 320.519 2074.53 320.967C2073.22 321.397 2072.16 322.052 2071.35 322.93C2070.55 323.792 2070.15 324.969 2070.15 326.46C2070.15 328.499 2070.91 330.04 2072.42 331.084C2073.94 332.111 2075.87 332.625 2078.21 332.625ZM2105.52 337V298.818H2111.39V337H2105.52ZM2108.5 292.455C2107.36 292.455 2106.37 292.065 2105.54 291.286C2104.73 290.507 2104.33 289.571 2104.33 288.477C2104.33 287.384 2104.73 286.447 2105.54 285.668C2106.37 284.889 2107.36 284.5 2108.5 284.5C2109.65 284.5 2110.62 284.889 2111.44 285.668C2112.26 286.447 2112.68 287.384 2112.68 288.477C2112.68 289.571 2112.26 290.507 2111.44 291.286C2110.62 292.065 2109.65 292.455 2108.5 292.455ZM2128 314.031V337H2122.13V298.818H2127.8V304.784H2128.3C2129.19 302.845 2130.55 301.287 2132.37 300.111C2134.2 298.918 2136.55 298.321 2139.43 298.321C2142.02 298.321 2144.28 298.851 2146.22 299.912C2148.16 300.956 2149.67 302.547 2150.74 304.685C2151.82 306.806 2152.36 309.491 2152.36 312.739V337H2146.49V313.136C2146.49 310.137 2145.71 307.8 2144.16 306.126C2142.6 304.436 2140.46 303.591 2137.74 303.591C2135.87 303.591 2134.2 303.997 2132.72 304.809C2131.26 305.621 2130.11 306.806 2129.27 308.364C2128.42 309.921 2128 311.811 2128 314.031ZM2174.31 337.895C2171.89 337.895 2169.7 337.439 2167.73 336.528C2165.75 335.6 2164.19 334.266 2163.03 332.526C2161.87 330.769 2161.29 328.648 2161.29 326.162C2161.29 323.974 2161.72 322.201 2162.58 320.842C2163.44 319.467 2164.59 318.39 2166.04 317.611C2167.48 316.832 2169.07 316.252 2170.81 315.871C2172.57 315.473 2174.33 315.158 2176.1 314.926C2178.42 314.628 2180.3 314.404 2181.75 314.255C2183.2 314.089 2184.27 313.816 2184.93 313.435C2185.61 313.054 2185.95 312.391 2185.95 311.446V311.247C2185.95 308.795 2185.28 306.889 2183.93 305.53C2182.61 304.171 2180.59 303.491 2177.89 303.491C2175.09 303.491 2172.9 304.105 2171.31 305.331C2169.72 306.557 2168.6 307.866 2167.95 309.259L2162.38 307.27C2163.38 304.95 2164.7 303.143 2166.36 301.851C2168.03 300.542 2169.86 299.63 2171.83 299.116C2173.82 298.586 2175.77 298.321 2177.69 298.321C2178.92 298.321 2180.33 298.47 2181.92 298.768C2183.53 299.05 2185.08 299.638 2186.57 300.533C2188.08 301.428 2189.33 302.779 2190.32 304.585C2191.32 306.392 2191.81 308.811 2191.81 311.844V337H2185.95V331.83H2185.65C2185.25 332.658 2184.59 333.545 2183.66 334.489C2182.73 335.434 2181.5 336.238 2179.96 336.901C2178.42 337.563 2176.53 337.895 2174.31 337.895ZM2175.21 332.625C2177.53 332.625 2179.48 332.169 2181.08 331.258C2182.68 330.346 2183.89 329.17 2184.7 327.728C2185.53 326.286 2185.95 324.77 2185.95 323.179V317.81C2185.7 318.108 2185.15 318.381 2184.31 318.63C2183.48 318.862 2182.52 319.069 2181.42 319.251C2180.35 319.417 2179.29 319.566 2178.27 319.699C2177.26 319.815 2176.44 319.914 2175.81 319.997C2174.28 320.196 2172.86 320.519 2171.53 320.967C2170.22 321.397 2169.16 322.052 2168.35 322.93C2167.55 323.792 2167.16 324.969 2167.16 326.46C2167.16 328.499 2167.91 330.04 2169.42 331.084C2170.94 332.111 2172.87 332.625 2175.21 332.625ZM2203.32 337V286.091H2209.18V304.884H2209.68C2210.11 304.221 2210.71 303.375 2211.47 302.348C2212.25 301.304 2213.36 300.376 2214.8 299.564C2216.26 298.735 2218.23 298.321 2220.72 298.321C2223.93 298.321 2226.77 299.125 2229.22 300.732C2231.67 302.34 2233.59 304.618 2234.96 307.568C2236.34 310.518 2237.02 313.998 2237.02 318.009C2237.02 322.052 2236.34 325.557 2234.96 328.523C2233.59 331.473 2231.68 333.76 2229.24 335.384C2226.81 336.992 2224 337.795 2220.82 337.795C2218.36 337.795 2216.4 337.389 2214.93 336.577C2213.45 335.749 2212.32 334.812 2211.52 333.768C2210.72 332.708 2210.11 331.83 2209.68 331.134H2208.98V337H2203.32ZM2209.08 317.909C2209.08 320.793 2209.51 323.336 2210.35 325.54C2211.2 327.728 2212.43 329.443 2214.06 330.686C2215.68 331.912 2217.67 332.526 2220.02 332.526C2222.47 332.526 2224.52 331.879 2226.16 330.587C2227.82 329.277 2229.06 327.521 2229.89 325.317C2230.74 323.096 2231.16 320.627 2231.16 317.909C2231.16 315.224 2230.74 312.805 2229.92 310.651C2229.1 308.48 2227.87 306.764 2226.21 305.505C2224.57 304.229 2222.51 303.591 2220.02 303.591C2217.64 303.591 2215.63 304.196 2214.01 305.406C2212.38 306.599 2211.16 308.272 2210.33 310.427C2209.5 312.565 2209.08 315.059 2209.08 317.909ZM2246 337V298.818H2251.86V337H2246ZM2248.98 292.455C2247.84 292.455 2246.85 292.065 2246.02 291.286C2245.21 290.507 2244.81 289.571 2244.81 288.477C2244.81 287.384 2245.21 286.447 2246.02 285.668C2246.85 284.889 2247.84 284.5 2248.98 284.5C2250.12 284.5 2251.1 284.889 2251.91 285.668C2252.74 286.447 2253.16 287.384 2253.16 288.477C2253.16 289.571 2252.74 290.507 2251.91 291.286C2251.1 292.065 2250.12 292.455 2248.98 292.455ZM2268.48 286.091V337H2262.61V286.091H2268.48ZM2279.22 337V298.818H2285.09V337H2279.22ZM2282.2 292.455C2281.06 292.455 2280.07 292.065 2279.25 291.286C2278.43 290.507 2278.03 289.571 2278.03 288.477C2278.03 287.384 2278.43 286.447 2279.25 285.668C2280.07 284.889 2281.06 284.5 2282.2 284.5C2283.35 284.5 2284.33 284.889 2285.14 285.668C2285.97 286.447 2286.38 287.384 2286.38 288.477C2286.38 289.571 2285.97 290.507 2285.14 291.286C2284.33 292.065 2283.35 292.455 2282.2 292.455ZM2312.44 298.818V303.79H2292.65V298.818H2312.44ZM2298.42 289.67H2304.28V326.062C2304.28 327.72 2304.52 328.963 2305 329.791C2305.5 330.603 2306.13 331.15 2306.89 331.432C2307.67 331.697 2308.49 331.83 2309.35 331.83C2310 331.83 2310.53 331.796 2310.95 331.73C2311.36 331.647 2311.69 331.581 2311.94 331.531L2313.13 336.801C2312.74 336.95 2312.18 337.099 2311.47 337.249C2310.76 337.414 2309.85 337.497 2308.76 337.497C2307.1 337.497 2305.48 337.141 2303.89 336.428C2302.31 335.716 2301 334.63 2299.96 333.172C2298.93 331.714 2298.42 329.874 2298.42 327.653V289.67ZM2325.04 351.318C2324.05 351.318 2323.16 351.235 2322.38 351.07C2321.6 350.92 2321.06 350.771 2320.76 350.622L2322.26 345.452C2323.68 345.816 2324.94 345.949 2326.03 345.849C2327.13 345.75 2328.1 345.261 2328.94 344.383C2329.8 343.521 2330.59 342.121 2331.3 340.182L2332.4 337.199L2318.28 298.818H2324.64L2335.18 329.244H2335.58L2346.12 298.818H2352.48L2336.28 342.568C2335.55 344.54 2334.64 346.173 2333.57 347.465C2332.49 348.774 2331.24 349.744 2329.81 350.374C2328.4 351.003 2326.81 351.318 2325.04 351.318Z" fill="black"/>
<path d="M1079.13 509H1072.97C1072.6 507.227 1071.96 505.669 1071.05 504.327C1070.16 502.984 1069.06 501.857 1067.77 500.946C1066.49 500.018 1065.08 499.322 1063.52 498.858C1061.96 498.394 1060.34 498.162 1058.65 498.162C1055.57 498.162 1052.77 498.941 1050.27 500.499C1047.78 502.056 1045.8 504.352 1044.33 507.384C1042.87 510.417 1042.14 514.137 1042.14 518.545C1042.14 522.954 1042.87 526.674 1044.33 529.707C1045.8 532.739 1047.78 535.035 1050.27 536.592C1052.77 538.15 1055.57 538.929 1058.65 538.929C1060.34 538.929 1061.96 538.697 1063.52 538.233C1065.08 537.769 1066.49 537.081 1067.77 536.17C1069.06 535.242 1070.16 534.107 1071.05 532.764C1071.96 531.405 1072.6 529.848 1072.97 528.091H1079.13C1078.67 530.693 1077.82 533.021 1076.6 535.076C1075.37 537.131 1073.84 538.879 1072.02 540.321C1070.2 541.746 1068.15 542.832 1065.88 543.577C1063.63 544.323 1061.22 544.696 1058.65 544.696C1054.31 544.696 1050.44 543.635 1047.06 541.514C1043.68 539.393 1041.02 536.377 1039.08 532.466C1037.15 528.555 1036.18 523.915 1036.18 518.545C1036.18 513.176 1037.15 508.536 1039.08 504.625C1041.02 500.714 1043.68 497.698 1047.06 495.577C1050.44 493.455 1054.31 492.395 1058.65 492.395C1061.22 492.395 1063.63 492.768 1065.88 493.513C1068.15 494.259 1070.2 495.353 1072.02 496.795C1073.84 498.22 1075.37 499.96 1076.6 502.015C1077.82 504.053 1078.67 506.382 1079.13 509ZM1103.81 544.795C1100.36 544.795 1097.34 543.975 1094.74 542.335C1092.15 540.694 1090.13 538.399 1088.67 535.449C1087.23 532.499 1086.51 529.052 1086.51 525.108C1086.51 521.131 1087.23 517.659 1088.67 514.692C1090.13 511.726 1092.15 509.423 1094.74 507.782C1097.34 506.141 1100.36 505.321 1103.81 505.321C1107.26 505.321 1110.27 506.141 1112.86 507.782C1115.46 509.423 1117.48 511.726 1118.92 514.692C1120.38 517.659 1121.11 521.131 1121.11 525.108C1121.11 529.052 1120.38 532.499 1118.92 535.449C1117.48 538.399 1115.46 540.694 1112.86 542.335C1110.27 543.975 1107.26 544.795 1103.81 544.795ZM1103.81 539.526C1106.43 539.526 1108.58 538.854 1110.27 537.512C1111.96 536.17 1113.21 534.405 1114.03 532.217C1114.84 530.03 1115.24 527.66 1115.24 525.108C1115.24 522.556 1114.84 520.178 1114.03 517.974C1113.21 515.77 1111.96 513.988 1110.27 512.629C1108.58 511.27 1106.43 510.591 1103.81 510.591C1101.19 510.591 1099.04 511.27 1097.35 512.629C1095.66 513.988 1094.4 515.77 1093.59 517.974C1092.78 520.178 1092.37 522.556 1092.37 525.108C1092.37 527.66 1092.78 530.03 1093.59 532.217C1094.4 534.405 1095.66 536.17 1097.35 537.512C1099.04 538.854 1101.19 539.526 1103.81 539.526ZM1130.06 544V505.818H1135.73V511.784H1136.23C1137.02 509.746 1138.31 508.163 1140.08 507.036C1141.86 505.893 1143.99 505.321 1146.47 505.321C1148.99 505.321 1151.09 505.893 1152.76 507.036C1154.45 508.163 1155.77 509.746 1156.71 511.784H1157.11C1158.09 509.812 1159.55 508.246 1161.51 507.086C1163.47 505.909 1165.81 505.321 1168.54 505.321C1171.96 505.321 1174.75 506.39 1176.92 508.528C1179.09 510.649 1180.18 513.955 1180.18 518.446V544H1174.31V518.446C1174.31 515.629 1173.54 513.615 1172 512.406C1170.46 511.196 1168.64 510.591 1166.56 510.591C1163.87 510.591 1161.79 511.403 1160.32 513.027C1158.84 514.634 1158.1 516.673 1158.1 519.142V544H1152.14V517.849C1152.14 515.679 1151.43 513.93 1150.03 512.604C1148.62 511.262 1146.8 510.591 1144.58 510.591C1143.06 510.591 1141.63 510.997 1140.31 511.809C1139 512.621 1137.94 513.748 1137.12 515.19C1136.33 516.615 1135.93 518.264 1135.93 520.136V544H1130.06ZM1190.9 558.318V505.818H1196.57V511.884H1197.27C1197.7 511.221 1198.3 510.375 1199.06 509.348C1199.84 508.304 1200.95 507.376 1202.39 506.564C1203.85 505.735 1205.82 505.321 1208.31 505.321C1211.52 505.321 1214.35 506.125 1216.81 507.732C1219.26 509.34 1221.17 511.618 1222.55 514.568C1223.92 517.518 1224.61 520.998 1224.61 525.009C1224.61 529.052 1223.92 532.557 1222.55 535.523C1221.17 538.473 1219.27 540.76 1216.83 542.384C1214.4 543.992 1211.59 544.795 1208.4 544.795C1205.95 544.795 1203.99 544.389 1202.51 543.577C1201.04 542.749 1199.9 541.812 1199.11 540.768C1198.31 539.708 1197.7 538.83 1197.27 538.134H1196.77V558.318H1190.9ZM1196.67 524.909C1196.67 527.793 1197.09 530.336 1197.94 532.54C1198.78 534.728 1200.02 536.443 1201.64 537.686C1203.27 538.912 1205.26 539.526 1207.61 539.526C1210.06 539.526 1212.11 538.879 1213.75 537.587C1215.41 536.277 1216.65 534.521 1217.48 532.317C1218.32 530.096 1218.75 527.627 1218.75 524.909C1218.75 522.224 1218.33 519.805 1217.5 517.651C1216.69 515.48 1215.46 513.764 1213.8 512.505C1212.16 511.229 1210.09 510.591 1207.61 510.591C1205.22 510.591 1203.22 511.196 1201.59 512.406C1199.97 513.599 1198.74 515.272 1197.91 517.427C1197.09 519.565 1196.67 522.059 1196.67 524.909ZM1244.8 544.895C1242.38 544.895 1240.18 544.439 1238.21 543.528C1236.24 542.6 1234.67 541.266 1233.51 539.526C1232.35 537.769 1231.77 535.648 1231.77 533.162C1231.77 530.974 1232.2 529.201 1233.06 527.842C1233.93 526.467 1235.08 525.39 1236.52 524.611C1237.96 523.832 1239.55 523.252 1241.29 522.871C1243.05 522.473 1244.81 522.158 1246.59 521.926C1248.91 521.628 1250.79 521.404 1252.23 521.255C1253.69 521.089 1254.75 520.816 1255.41 520.435C1256.09 520.054 1256.43 519.391 1256.43 518.446V518.247C1256.43 515.795 1255.76 513.889 1254.42 512.53C1253.09 511.171 1251.08 510.491 1248.38 510.491C1245.58 510.491 1243.38 511.105 1241.79 512.331C1240.2 513.557 1239.08 514.866 1238.43 516.259L1232.86 514.27C1233.86 511.95 1235.18 510.143 1236.84 508.851C1238.52 507.542 1240.34 506.63 1242.31 506.116C1244.3 505.586 1246.25 505.321 1248.18 505.321C1249.4 505.321 1250.81 505.47 1252.4 505.768C1254.01 506.05 1255.56 506.638 1257.05 507.533C1258.56 508.428 1259.81 509.779 1260.81 511.585C1261.8 513.392 1262.3 515.811 1262.3 518.844V544H1256.43V538.83H1256.13C1255.73 539.658 1255.07 540.545 1254.14 541.489C1253.22 542.434 1251.98 543.238 1250.44 543.901C1248.9 544.563 1247.02 544.895 1244.8 544.895ZM1245.69 539.625C1248.01 539.625 1249.97 539.169 1251.56 538.258C1253.17 537.346 1254.38 536.17 1255.19 534.728C1256.02 533.286 1256.43 531.77 1256.43 530.179V524.81C1256.18 525.108 1255.63 525.381 1254.79 525.63C1253.96 525.862 1253 526.069 1251.91 526.251C1250.83 526.417 1249.78 526.566 1248.75 526.699C1247.74 526.815 1246.92 526.914 1246.29 526.997C1244.76 527.196 1243.34 527.519 1242.01 527.967C1240.7 528.397 1239.64 529.052 1238.83 529.93C1238.04 530.792 1237.64 531.969 1237.64 533.46C1237.64 535.499 1238.39 537.04 1239.9 538.084C1241.42 539.111 1243.35 539.625 1245.69 539.625ZM1289.61 505.818V510.79H1269.82V505.818H1289.61ZM1275.59 496.67H1281.46V533.062C1281.46 534.72 1281.7 535.963 1282.18 536.791C1282.67 537.603 1283.3 538.15 1284.07 538.432C1284.84 538.697 1285.67 538.83 1286.53 538.83C1287.17 538.83 1287.7 538.796 1288.12 538.73C1288.53 538.647 1288.86 538.581 1289.11 538.531L1290.31 543.801C1289.91 543.95 1289.35 544.099 1288.64 544.249C1287.93 544.414 1287.02 544.497 1285.93 544.497C1284.27 544.497 1282.65 544.141 1281.06 543.428C1279.48 542.716 1278.17 541.63 1277.13 540.172C1276.1 538.714 1275.59 536.874 1275.59 534.653V496.67ZM1298.43 544V505.818H1304.3V544H1298.43ZM1301.42 499.455C1300.27 499.455 1299.29 499.065 1298.46 498.286C1297.65 497.507 1297.24 496.571 1297.24 495.477C1297.24 494.384 1297.65 493.447 1298.46 492.668C1299.29 491.889 1300.27 491.5 1301.42 491.5C1302.56 491.5 1303.54 491.889 1304.35 492.668C1305.18 493.447 1305.59 494.384 1305.59 495.477C1305.59 496.571 1305.18 497.507 1304.35 498.286C1303.54 499.065 1302.56 499.455 1301.42 499.455ZM1315.84 544V493.091H1321.71V511.884H1322.2C1322.64 511.221 1323.23 510.375 1323.99 509.348C1324.77 508.304 1325.88 507.376 1327.32 506.564C1328.78 505.735 1330.76 505.321 1333.24 505.321C1336.46 505.321 1339.29 506.125 1341.74 507.732C1344.2 509.34 1346.11 511.618 1347.48 514.568C1348.86 517.518 1349.55 520.998 1349.55 525.009C1349.55 529.052 1348.86 532.557 1347.48 535.523C1346.11 538.473 1344.2 540.76 1341.77 542.384C1339.33 543.992 1336.52 544.795 1333.34 544.795C1330.89 544.795 1328.92 544.389 1327.45 543.577C1325.97 542.749 1324.84 541.812 1324.04 540.768C1323.25 539.708 1322.64 538.83 1322.2 538.134H1321.51V544H1315.84ZM1321.61 524.909C1321.61 527.793 1322.03 530.336 1322.88 532.54C1323.72 534.728 1324.96 536.443 1326.58 537.686C1328.2 538.912 1330.19 539.526 1332.55 539.526C1335 539.526 1337.04 538.879 1338.69 537.587C1340.34 536.277 1341.59 534.521 1342.41 532.317C1343.26 530.096 1343.68 527.627 1343.68 524.909C1343.68 522.224 1343.27 519.805 1342.44 517.651C1341.63 515.48 1340.39 513.764 1338.73 512.505C1337.09 511.229 1335.03 510.591 1332.55 510.591C1330.16 510.591 1328.15 511.196 1326.53 512.406C1324.91 513.599 1323.68 515.272 1322.85 517.427C1322.02 519.565 1321.61 522.059 1321.61 524.909ZM1358.52 544V505.818H1364.39V544H1358.52ZM1361.5 499.455C1360.36 499.455 1359.38 499.065 1358.55 498.286C1357.73 497.507 1357.33 496.571 1357.33 495.477C1357.33 494.384 1357.73 493.447 1358.55 492.668C1359.38 491.889 1360.36 491.5 1361.5 491.5C1362.65 491.5 1363.63 491.889 1364.44 492.668C1365.27 493.447 1365.68 494.384 1365.68 495.477C1365.68 496.571 1365.27 497.507 1364.44 498.286C1363.63 499.065 1362.65 499.455 1361.5 499.455ZM1381 493.091V544H1375.13V493.091H1381ZM1391.74 544V505.818H1397.61V544H1391.74ZM1394.73 499.455C1393.58 499.455 1392.6 499.065 1391.77 498.286C1390.96 497.507 1390.55 496.571 1390.55 495.477C1390.55 494.384 1390.96 493.447 1391.77 492.668C1392.6 491.889 1393.58 491.5 1394.73 491.5C1395.87 491.5 1396.85 491.889 1397.66 492.668C1398.49 493.447 1398.9 494.384 1398.9 495.477C1398.9 496.571 1398.49 497.507 1397.66 498.286C1396.85 499.065 1395.87 499.455 1394.73 499.455ZM1424.96 505.818V510.79H1405.17V505.818H1424.96ZM1410.94 496.67H1416.81V533.062C1416.81 534.72 1417.05 535.963 1417.53 536.791C1418.03 537.603 1418.66 538.15 1419.42 538.432C1420.2 538.697 1421.02 538.83 1421.88 538.83C1422.52 538.83 1423.05 538.796 1423.47 538.73C1423.88 538.647 1424.22 538.581 1424.46 538.531L1425.66 543.801C1425.26 543.95 1424.7 544.099 1423.99 544.249C1423.28 544.414 1422.38 544.497 1421.28 544.497C1419.62 544.497 1418 544.141 1416.41 543.428C1414.84 542.716 1413.53 541.63 1412.48 540.172C1411.45 538.714 1410.94 536.874 1410.94 534.653V496.67ZM1437.56 558.318C1436.57 558.318 1435.68 558.235 1434.9 558.07C1434.13 557.92 1433.59 557.771 1433.29 557.622L1434.78 552.452C1436.2 552.816 1437.46 552.949 1438.56 552.849C1439.65 552.75 1440.62 552.261 1441.47 551.383C1442.33 550.521 1443.12 549.121 1443.83 547.182L1444.92 544.199L1430.8 505.818H1437.17L1447.71 536.244H1448.1L1458.64 505.818H1465.01L1448.8 549.568C1448.07 551.54 1447.17 553.173 1446.09 554.465C1445.01 555.774 1443.76 556.744 1442.34 557.374C1440.93 558.003 1439.34 558.318 1437.56 558.318Z" fill="black"/>
<path d="M1730.16 194V143.091H1747.37C1751.36 143.091 1754.63 143.812 1757.16 145.254C1759.71 146.679 1761.6 148.609 1762.83 151.045C1764.05 153.482 1764.67 156.199 1764.67 159.199C1764.67 162.198 1764.05 164.924 1762.83 167.377C1761.62 169.83 1759.75 171.785 1757.21 173.244C1754.67 174.685 1751.43 175.406 1747.47 175.406H1735.14V169.938H1747.27C1750 169.938 1752.2 169.465 1753.85 168.521C1755.51 167.576 1756.71 166.3 1757.46 164.692C1758.22 163.068 1758.6 161.237 1758.6 159.199C1758.6 157.161 1758.22 155.338 1757.46 153.73C1756.71 152.123 1755.5 150.863 1753.83 149.952C1752.16 149.024 1749.94 148.56 1747.17 148.56H1736.33V194H1730.16ZM1788.9 194.795C1785.46 194.795 1782.43 193.975 1779.83 192.335C1777.25 190.694 1775.22 188.399 1773.77 185.449C1772.32 182.499 1771.6 179.052 1771.6 175.108C1771.6 171.131 1772.32 167.659 1773.77 164.692C1775.22 161.726 1777.25 159.423 1779.83 157.782C1782.43 156.141 1785.46 155.321 1788.9 155.321C1792.35 155.321 1795.37 156.141 1797.95 157.782C1800.55 159.423 1802.58 161.726 1804.02 164.692C1805.48 167.659 1806.21 171.131 1806.21 175.108C1806.21 179.052 1805.48 182.499 1804.02 185.449C1802.58 188.399 1800.55 190.694 1797.95 192.335C1795.37 193.975 1792.35 194.795 1788.9 194.795ZM1788.9 189.526C1791.52 189.526 1793.68 188.854 1795.37 187.512C1797.06 186.17 1798.31 184.405 1799.12 182.217C1799.93 180.03 1800.34 177.66 1800.34 175.108C1800.34 172.556 1799.93 170.178 1799.12 167.974C1798.31 165.77 1797.06 163.988 1795.37 162.629C1793.68 161.27 1791.52 160.591 1788.9 160.591C1786.29 160.591 1784.13 161.27 1782.44 162.629C1780.75 163.988 1779.5 165.77 1778.69 167.974C1777.88 170.178 1777.47 172.556 1777.47 175.108C1777.47 177.66 1777.88 180.03 1778.69 182.217C1779.5 184.405 1780.75 186.17 1782.44 187.512C1784.13 188.854 1786.29 189.526 1788.9 189.526ZM1815.16 194V155.818H1820.83V161.585H1821.23C1821.92 159.696 1823.18 158.163 1825 156.987C1826.83 155.81 1828.88 155.222 1831.17 155.222C1831.6 155.222 1832.14 155.23 1832.78 155.246C1833.43 155.263 1833.92 155.288 1834.25 155.321V161.287C1834.05 161.237 1833.6 161.163 1832.88 161.063C1832.19 160.947 1831.45 160.889 1830.67 160.889C1828.82 160.889 1827.16 161.279 1825.7 162.058C1824.26 162.82 1823.11 163.88 1822.27 165.239C1821.44 166.582 1821.03 168.115 1821.03 169.838V194H1815.16ZM1860.2 155.818V160.79H1840.42V155.818H1860.2ZM1846.18 146.67H1852.05V183.062C1852.05 184.72 1852.29 185.963 1852.77 186.791C1853.27 187.603 1853.9 188.15 1854.66 188.432C1855.44 188.697 1856.26 188.83 1857.12 188.83C1857.77 188.83 1858.3 188.796 1858.71 188.73C1859.13 188.647 1859.46 188.581 1859.71 188.531L1860.9 193.801C1860.5 193.95 1859.95 194.099 1859.23 194.249C1858.52 194.414 1857.62 194.497 1856.52 194.497C1854.87 194.497 1853.24 194.141 1851.65 193.428C1850.08 192.716 1848.77 191.63 1847.72 190.172C1846.7 188.714 1846.18 186.874 1846.18 184.653V146.67ZM1880.26 194.895C1877.84 194.895 1875.65 194.439 1873.68 193.528C1871.7 192.6 1870.14 191.266 1868.98 189.526C1867.82 187.769 1867.24 185.648 1867.24 183.162C1867.24 180.974 1867.67 179.201 1868.53 177.842C1869.39 176.467 1870.54 175.39 1871.99 174.611C1873.43 173.832 1875.02 173.252 1876.76 172.871C1878.51 172.473 1880.28 172.158 1882.05 171.926C1884.37 171.628 1886.25 171.404 1887.7 171.255C1889.15 171.089 1890.21 170.816 1890.88 170.435C1891.56 170.054 1891.9 169.391 1891.9 168.446V168.247C1891.9 165.795 1891.23 163.889 1889.88 162.53C1888.56 161.171 1886.54 160.491 1883.84 160.491C1881.04 160.491 1878.85 161.105 1877.26 162.331C1875.66 163.557 1874.55 164.866 1873.9 166.259L1868.33 164.27C1869.33 161.95 1870.65 160.143 1872.31 158.851C1873.98 157.542 1875.81 156.63 1877.78 156.116C1879.77 155.586 1881.72 155.321 1883.64 155.321C1884.87 155.321 1886.28 155.47 1887.87 155.768C1889.48 156.05 1891.03 156.638 1892.52 157.533C1894.03 158.428 1895.28 159.779 1896.27 161.585C1897.27 163.392 1897.76 165.811 1897.76 168.844V194H1891.9V188.83H1891.6C1891.2 189.658 1890.54 190.545 1889.61 191.489C1888.68 192.434 1887.45 193.238 1885.91 193.901C1884.36 194.563 1882.48 194.895 1880.26 194.895ZM1881.16 189.625C1883.48 189.625 1885.43 189.169 1887.02 188.258C1888.63 187.346 1889.84 186.17 1890.65 184.728C1891.48 183.286 1891.9 181.77 1891.9 180.179V174.81C1891.65 175.108 1891.1 175.381 1890.26 175.63C1889.43 175.862 1888.47 176.069 1887.37 176.251C1886.3 176.417 1885.24 176.566 1884.22 176.699C1883.2 176.815 1882.38 176.914 1881.75 176.997C1880.23 177.196 1878.8 177.519 1877.48 177.967C1876.17 178.397 1875.11 179.052 1874.3 179.93C1873.5 180.792 1873.1 181.969 1873.1 183.46C1873.1 185.499 1873.86 187.04 1875.37 188.084C1876.89 189.111 1878.82 189.625 1881.16 189.625ZM1909.27 194V143.091H1915.13V161.884H1915.63C1916.06 161.221 1916.66 160.375 1917.42 159.348C1918.2 158.304 1919.31 157.376 1920.75 156.564C1922.21 155.735 1924.18 155.321 1926.67 155.321C1929.88 155.321 1932.72 156.125 1935.17 157.732C1937.62 159.34 1939.54 161.618 1940.91 164.568C1942.29 167.518 1942.97 170.998 1942.97 175.009C1942.97 179.052 1942.29 182.557 1940.91 185.523C1939.54 188.473 1937.63 190.76 1935.19 192.384C1932.76 193.992 1929.95 194.795 1926.77 194.795C1924.31 194.795 1922.35 194.389 1920.88 193.577C1919.4 192.749 1918.26 191.812 1917.47 190.768C1916.67 189.708 1916.06 188.83 1915.63 188.134H1914.93V194H1909.27ZM1915.03 174.909C1915.03 177.793 1915.46 180.336 1916.3 182.54C1917.15 184.728 1918.38 186.443 1920 187.686C1921.63 188.912 1923.62 189.526 1925.97 189.526C1928.42 189.526 1930.47 188.879 1932.11 187.587C1933.77 186.277 1935.01 184.521 1935.84 182.317C1936.68 180.096 1937.11 177.627 1937.11 174.909C1937.11 172.224 1936.69 169.805 1935.86 167.651C1935.05 165.48 1933.82 163.764 1932.16 162.505C1930.52 161.229 1928.46 160.591 1925.97 160.591C1923.58 160.591 1921.58 161.196 1919.96 162.406C1918.33 163.599 1917.1 165.272 1916.28 167.427C1915.45 169.565 1915.03 172.059 1915.03 174.909ZM1951.95 194V155.818H1957.81V194H1951.95ZM1954.93 149.455C1953.79 149.455 1952.8 149.065 1951.97 148.286C1951.16 147.507 1950.75 146.571 1950.75 145.477C1950.75 144.384 1951.16 143.447 1951.97 142.668C1952.8 141.889 1953.79 141.5 1954.93 141.5C1956.07 141.5 1957.05 141.889 1957.86 142.668C1958.69 143.447 1959.11 144.384 1959.11 145.477C1959.11 146.571 1958.69 147.507 1957.86 148.286C1957.05 149.065 1956.07 149.455 1954.93 149.455ZM1974.43 143.091V194H1968.56V143.091H1974.43ZM1985.17 194V155.818H1991.04V194H1985.17ZM1988.15 149.455C1987.01 149.455 1986.02 149.065 1985.19 148.286C1984.38 147.507 1983.98 146.571 1983.98 145.477C1983.98 144.384 1984.38 143.447 1985.19 142.668C1986.02 141.889 1987.01 141.5 1988.15 141.5C1989.3 141.5 1990.27 141.889 1991.09 142.668C1991.91 143.447 1992.33 144.384 1992.33 145.477C1992.33 146.571 1991.91 147.507 1991.09 148.286C1990.27 149.065 1989.3 149.455 1988.15 149.455ZM2018.39 155.818V160.79H1998.6V155.818H2018.39ZM2004.37 146.67H2010.23V183.062C2010.23 184.72 2010.47 185.963 2010.95 186.791C2011.45 187.603 2012.08 188.15 2012.84 188.432C2013.62 188.697 2014.44 188.83 2015.3 188.83C2015.95 188.83 2016.48 188.796 2016.9 188.73C2017.31 188.647 2017.64 188.581 2017.89 188.531L2019.08 193.801C2018.68 193.95 2018.13 194.099 2017.42 194.249C2016.7 194.414 2015.8 194.497 2014.71 194.497C2013.05 194.497 2011.43 194.141 2009.84 193.428C2008.26 192.716 2006.95 191.63 2005.91 190.172C2004.88 188.714 2004.37 186.874 2004.37 184.653V146.67ZM2030.99 208.318C2030 208.318 2029.11 208.235 2028.33 208.07C2027.55 207.92 2027.01 207.771 2026.71 207.622L2028.21 202.452C2029.63 202.816 2030.89 202.949 2031.98 202.849C2033.08 202.75 2034.05 202.261 2034.89 201.383C2035.75 200.521 2036.54 199.121 2037.25 197.182L2038.35 194.199L2024.23 155.818H2030.59L2041.13 186.244H2041.53L2052.07 155.818H2058.43L2042.23 199.568C2041.5 201.54 2040.59 203.173 2039.52 204.465C2038.44 205.774 2037.19 206.744 2035.76 207.374C2034.35 208.003 2032.76 208.318 2030.99 208.318Z" fill="black"/>
<path d="M1139.15 436H1128.07L1160.11 348.727H1171.02L1203.07 436H1191.99L1165.91 362.534H1165.23L1139.15 436ZM1143.24 401.909H1187.9V411.284H1143.24V401.909ZM1215.3 436V370.545H1225.01V380.432H1225.7C1226.89 377.193 1229.05 374.565 1232.17 372.548C1235.3 370.531 1238.82 369.523 1242.74 369.523C1243.48 369.523 1244.4 369.537 1245.51 369.565C1246.62 369.594 1247.46 369.636 1248.03 369.693V379.92C1247.68 379.835 1246.9 379.707 1245.68 379.537C1244.49 379.338 1243.22 379.239 1241.89 379.239C1238.71 379.239 1235.87 379.906 1233.37 381.241C1230.89 382.548 1228.93 384.366 1227.49 386.696C1226.07 388.997 1225.36 391.625 1225.36 394.58V436H1215.3ZM1284.55 437.364C1278.41 437.364 1273.13 435.915 1268.69 433.017C1264.26 430.119 1260.85 426.128 1258.47 421.043C1256.08 415.957 1254.89 410.148 1254.89 403.614C1254.89 396.966 1256.11 391.099 1258.55 386.014C1261.02 380.901 1264.46 376.909 1268.86 374.04C1273.3 371.142 1278.47 369.693 1284.38 369.693C1288.98 369.693 1293.12 370.545 1296.82 372.25C1300.51 373.955 1303.54 376.341 1305.89 379.409C1308.25 382.477 1309.72 386.057 1310.28 390.148H1300.23C1299.46 387.165 1297.76 384.523 1295.11 382.222C1292.5 379.892 1288.98 378.727 1284.55 378.727C1280.63 378.727 1277.19 379.75 1274.23 381.795C1271.31 383.812 1269.02 386.668 1267.37 390.361C1265.75 394.026 1264.94 398.33 1264.94 403.273C1264.94 408.33 1265.74 412.733 1267.33 416.483C1268.95 420.233 1271.22 423.145 1274.15 425.219C1277.1 427.293 1280.57 428.33 1284.55 428.33C1287.16 428.33 1289.53 427.875 1291.66 426.966C1293.79 426.057 1295.6 424.75 1297.07 423.045C1298.55 421.341 1299.6 419.295 1300.23 416.909H1310.28C1309.72 420.773 1308.31 424.253 1306.07 427.349C1303.85 430.418 1300.91 432.861 1297.24 434.679C1293.61 436.469 1289.38 437.364 1284.55 437.364ZM1335.04 396.625V436H1324.99V348.727H1335.04V380.773H1335.89C1337.43 377.392 1339.73 374.707 1342.8 372.719C1345.89 370.702 1350.01 369.693 1355.16 369.693C1359.62 369.693 1363.52 370.588 1366.88 372.378C1370.23 374.139 1372.83 376.852 1374.67 380.517C1376.55 384.153 1377.49 388.784 1377.49 394.409V436H1367.43V395.091C1367.43 389.892 1366.08 385.872 1363.38 383.031C1360.71 380.162 1357 378.727 1352.26 378.727C1348.96 378.727 1346.01 379.423 1343.39 380.815C1340.81 382.207 1338.76 384.239 1337.26 386.909C1335.78 389.58 1335.04 392.818 1335.04 396.625ZM1395.88 436V370.545H1405.94V436H1395.88ZM1401 359.636C1399.04 359.636 1397.35 358.969 1395.93 357.634C1394.53 356.298 1393.84 354.693 1393.84 352.818C1393.84 350.943 1394.53 349.338 1395.93 348.003C1397.35 346.668 1399.04 346 1401 346C1402.96 346 1404.63 346.668 1406.03 348.003C1407.45 349.338 1408.16 350.943 1408.16 352.818C1408.16 354.693 1407.45 356.298 1406.03 357.634C1404.63 358.969 1402.96 359.636 1401 359.636ZM1452.83 370.545V379.068H1418.91V370.545H1452.83ZM1428.79 354.864H1438.85V417.25C1438.85 420.091 1439.26 422.222 1440.09 423.642C1440.94 425.034 1442.02 425.972 1443.32 426.455C1444.66 426.909 1446.07 427.136 1447.54 427.136C1448.65 427.136 1449.56 427.08 1450.27 426.966C1450.98 426.824 1451.55 426.71 1451.97 426.625L1454.02 435.659C1453.34 435.915 1452.39 436.17 1451.16 436.426C1449.94 436.71 1448.39 436.852 1446.52 436.852C1443.68 436.852 1440.89 436.241 1438.17 435.02C1435.47 433.798 1433.22 431.938 1431.43 429.438C1429.67 426.938 1428.79 423.784 1428.79 419.977V354.864ZM1494.69 437.364C1488.39 437.364 1482.95 435.972 1478.37 433.188C1473.83 430.375 1470.32 426.455 1467.85 421.426C1465.4 416.369 1464.18 410.489 1464.18 403.784C1464.18 397.08 1465.4 391.17 1467.85 386.057C1470.32 380.915 1473.76 376.909 1478.16 374.04C1482.59 371.142 1487.76 369.693 1493.67 369.693C1497.08 369.693 1500.45 370.261 1503.77 371.398C1507.1 372.534 1510.12 374.381 1512.85 376.938C1515.58 379.466 1517.75 382.818 1519.37 386.994C1520.99 391.17 1521.8 396.312 1521.8 402.42V406.682H1471.34V397.989H1511.57C1511.57 394.295 1510.83 391 1509.35 388.102C1507.9 385.205 1505.83 382.918 1503.13 381.241C1500.46 379.565 1497.31 378.727 1493.67 378.727C1489.67 378.727 1486.2 379.722 1483.27 381.71C1480.38 383.67 1478.15 386.227 1476.58 389.381C1475.02 392.534 1474.24 395.915 1474.24 399.523V405.318C1474.24 410.261 1475.09 414.452 1476.8 417.889C1478.53 421.298 1480.93 423.898 1484 425.688C1487.07 427.449 1490.63 428.33 1494.69 428.33C1497.34 428.33 1499.72 427.96 1501.85 427.222C1504.01 426.455 1505.87 425.318 1507.44 423.812C1509 422.278 1510.21 420.375 1511.06 418.102L1520.77 420.83C1519.75 424.125 1518.03 427.023 1515.62 429.523C1513.2 431.994 1510.22 433.926 1506.67 435.318C1503.12 436.682 1499.13 437.364 1494.69 437.364ZM1563.69 437.364C1557.55 437.364 1552.27 435.915 1547.83 433.017C1543.4 430.119 1539.99 426.128 1537.61 421.043C1535.22 415.957 1534.03 410.148 1534.03 403.614C1534.03 396.966 1535.25 391.099 1537.69 386.014C1540.16 380.901 1543.6 376.909 1548 374.04C1552.44 371.142 1557.61 369.693 1563.52 369.693C1568.12 369.693 1572.27 370.545 1575.96 372.25C1579.65 373.955 1582.68 376.341 1585.04 379.409C1587.39 382.477 1588.86 386.057 1589.42 390.148H1579.37C1578.6 387.165 1576.9 384.523 1574.25 382.222C1571.64 379.892 1568.12 378.727 1563.69 378.727C1559.77 378.727 1556.33 379.75 1553.37 381.795C1550.45 383.812 1548.16 386.668 1546.51 390.361C1544.89 394.026 1544.08 398.33 1544.08 403.273C1544.08 408.33 1544.88 412.733 1546.47 416.483C1548.09 420.233 1550.36 423.145 1553.29 425.219C1556.24 427.293 1559.71 428.33 1563.69 428.33C1566.3 428.33 1568.67 427.875 1570.8 426.966C1572.93 426.057 1574.74 424.75 1576.21 423.045C1577.69 421.341 1578.74 419.295 1579.37 416.909H1589.42C1588.86 420.773 1587.45 424.253 1585.21 427.349C1582.99 430.418 1580.05 432.861 1576.38 434.679C1572.75 436.469 1568.52 437.364 1563.69 437.364ZM1632.59 370.545V379.068H1598.67V370.545H1632.59ZM1608.56 354.864H1618.62V417.25C1618.62 420.091 1619.03 422.222 1619.85 423.642C1620.7 425.034 1621.78 425.972 1623.09 426.455C1624.42 426.909 1625.83 427.136 1627.31 427.136C1628.42 427.136 1629.33 427.08 1630.04 426.966C1630.75 426.824 1631.31 426.71 1631.74 426.625L1633.79 435.659C1633.1 435.915 1632.15 436.17 1630.93 436.426C1629.71 436.71 1628.16 436.852 1626.29 436.852C1623.44 436.852 1620.66 436.241 1617.93 435.02C1615.23 433.798 1612.99 431.938 1611.2 429.438C1609.44 426.938 1608.56 423.784 1608.56 419.977V354.864ZM1688.97 409.239V370.545H1699.03V436H1688.97V424.92H1688.29C1686.75 428.244 1684.37 431.071 1681.13 433.401C1677.89 435.702 1673.8 436.852 1668.86 436.852C1664.77 436.852 1661.13 435.957 1657.95 434.168C1654.77 432.349 1652.27 429.622 1650.45 425.986C1648.63 422.321 1647.72 417.705 1647.72 412.136V370.545H1657.78V411.455C1657.78 416.227 1659.11 420.034 1661.78 422.875C1664.48 425.716 1667.92 427.136 1672.1 427.136C1674.6 427.136 1677.14 426.497 1679.72 425.219C1682.34 423.94 1684.52 421.98 1686.29 419.338C1688.08 416.696 1688.97 413.33 1688.97 409.239ZM1717.45 436V370.545H1727.16V380.432H1727.84C1729.04 377.193 1731.2 374.565 1734.32 372.548C1737.45 370.531 1740.97 369.523 1744.89 369.523C1745.63 369.523 1746.55 369.537 1747.66 369.565C1748.77 369.594 1749.61 369.636 1750.17 369.693V379.92C1749.83 379.835 1749.05 379.707 1747.83 379.537C1746.64 379.338 1745.37 379.239 1744.04 379.239C1740.86 379.239 1738.01 379.906 1735.51 381.241C1733.04 382.548 1731.08 384.366 1729.63 386.696C1728.21 388.997 1727.5 391.625 1727.5 394.58V436H1717.45ZM1787.55 437.364C1781.24 437.364 1775.8 435.972 1771.23 433.188C1766.68 430.375 1763.17 426.455 1760.7 421.426C1758.26 416.369 1757.03 410.489 1757.03 403.784C1757.03 397.08 1758.26 391.17 1760.7 386.057C1763.17 380.915 1766.61 376.909 1771.01 374.04C1775.44 371.142 1780.61 369.693 1786.52 369.693C1789.93 369.693 1793.3 370.261 1796.62 371.398C1799.95 372.534 1802.97 374.381 1805.7 376.938C1808.43 379.466 1810.6 382.818 1812.22 386.994C1813.84 391.17 1814.65 396.312 1814.65 402.42V406.682H1764.19V397.989H1804.42C1804.42 394.295 1803.68 391 1802.21 388.102C1800.76 385.205 1798.68 382.918 1795.98 381.241C1793.31 379.565 1790.16 378.727 1786.52 378.727C1782.52 378.727 1779.05 379.722 1776.13 381.71C1773.23 383.67 1771 386.227 1769.44 389.381C1767.87 392.534 1767.09 395.915 1767.09 399.523V405.318C1767.09 410.261 1767.94 414.452 1769.65 417.889C1771.38 421.298 1773.78 423.898 1776.85 425.688C1779.92 427.449 1783.48 428.33 1787.55 428.33C1790.19 428.33 1792.57 427.96 1794.71 427.222C1796.86 426.455 1798.73 425.318 1800.29 423.812C1801.85 422.278 1803.06 420.375 1803.91 418.102L1813.63 420.83C1812.6 424.125 1810.88 427.023 1808.47 429.523C1806.05 431.994 1803.07 433.926 1799.52 435.318C1795.97 436.682 1791.98 437.364 1787.55 437.364Z" fill="black"/>
</svg>
