<svg width="776" height="619" viewBox="0 0 776 619" fill="none" xmlns="http://www.w3.org/2000/svg">
<path d="M550.074 469.926L614.224 506.963V581.037L550.074 618.074L485.924 581.037V506.963L550.074 469.926Z" fill="#E6E4E4"/>
<path d="M550.074 488.444L598.187 516.222V571.778L550.074 599.556L501.962 571.778V516.222L550.074 488.444Z" fill="#B6B6B6"/>
<path d="M550.074 506.963L582.149 525.481V562.519L550.074 581.037L517.999 562.519V525.481L550.074 506.963Z" fill="#A7A5A5"/>
<path d="M627.852 344L692.002 381.037V455.111L627.852 492.148L563.702 455.111V381.037L627.852 344Z" fill="#E6E4E4"/>
<path d="M627.852 362.519L675.964 390.296V445.852L627.852 473.63L579.739 445.852V390.296L627.852 362.519Z" fill="#B6B6B6"/>
<path d="M627.852 381.037L659.927 399.556V436.593L627.852 455.111L595.777 436.593V399.556L627.852 381.037Z" fill="#A7A5A5"/>
<path d="M701.926 469.926L766.076 506.963V581.037L701.926 618.074L637.776 581.037V506.963L701.926 469.926Z" fill="#E6E4E4"/>
<path d="M701.926 488.444L750.038 516.222V571.778L701.926 599.556L653.813 571.778V516.222L701.926 488.444Z" fill="#B6B6B6"/>
<path d="M701.926 506.963L734.001 525.481V562.519L701.926 581.037L669.851 562.519V525.481L701.926 506.963Z" fill="#A7A5A5"/>
<path d="M272 0L531.808 150V450L272 600L12.1924 450V150L272 0Z" fill="#E6E4E4"/>
<path d="M272 75L466.856 187.5V412.5L272 525L77.1443 412.5V187.5L272 75Z" fill="#B6B6B6"/>
<path d="M272 150L401.904 225V375L272 450L142.096 375V225L272 150Z" fill="#A7A5A5"/>
</svg>
