<svg fill="none" height="626" viewBox="0 0 2550 626" width="2550" xmlns="http://www.w3.org/2000/svg"><path d="m300 0 259.808 150v300l-259.808 150-259.8076-150v-300z" fill="#e6e4e4"/><path d="m300 75 194.856 112.5v225l-194.856 112.5-194.856-112.5v-225z" fill="#b6b6b6"/><path d="m300 150 129.904 75v150l-129.904 75-129.904-75v-150z" fill="#a7a5a5"/><path d="m578.074 469.926 64.15 37.037v74.074l-64.15 37.037-64.15-37.037v-74.074z" fill="#e6e4e4"/><path d="m578.074 488.444 48.113 27.778v55.556l-48.113 27.778-48.112-27.778v-55.556z" fill="#b6b6b6"/><path d="m578.074 506.963 32.075 18.518v37.038l-32.075 18.518-32.075-18.518v-37.038z" fill="#a7a5a5"/><path d="m655.852 344 64.15 37.037v74.074l-64.15 37.037-64.15-37.037v-74.074z" fill="#e6e4e4"/><path d="m655.852 362.518 48.112 27.778v55.556l-48.112 27.778-48.113-27.778v-55.556z" fill="#b6b6b6"/><path d="m655.852 381.037 32.075 18.519v37.037l-32.075 18.518-32.075-18.518v-37.037z" fill="#a7a5a5"/><path d="m729.926 469.926 64.15 37.037v74.074l-64.15 37.037-64.15-37.037v-74.074z" fill="#e6e4e4"/><path d="m729.926 488.444 48.112 27.778v55.556l-48.112 27.778-48.113-27.778v-55.556z" fill="#b6b6b6"/><path d="m729.926 506.963 32.075 18.518v37.038l-32.075 18.518-32.075-18.518v-37.038z" fill="#a7a5a5"/><g fill="#000"><path d="m1434.57 242.091h6.17v33.707c0 3.48-.82 6.588-2.46 9.322-1.63 2.718-3.92 4.864-6.89 6.438-2.96 1.558-6.44 2.337-10.44 2.337-3.99 0-7.47-.779-10.44-2.337-2.97-1.574-5.27-3.72-6.91-6.438-1.62-2.734-2.44-5.842-2.44-9.322v-33.707h6.17v33.21c0 2.486.55 4.698 1.64 6.637 1.09 1.923 2.65 3.439 4.67 4.549 2.04 1.094 4.48 1.641 7.31 1.641 2.84 0 5.27-.547 7.31-1.641 2.04-1.11 3.6-2.626 4.67-4.549 1.1-1.939 1.64-4.151 1.64-6.637zm44.73 21.278-5.27 1.492c-.33-.879-.82-1.732-1.47-2.561-.63-.845-1.49-1.541-2.58-2.088-1.1-.547-2.5-.82-4.2-.82-2.34 0-4.29.539-5.84 1.616-1.55 1.06-2.32 2.411-2.32 4.052 0 1.458.53 2.61 1.59 3.455s2.72 1.549 4.98 2.113l5.66 1.392c3.42.828 5.96 2.096 7.63 3.803 1.68 1.69 2.52 3.87 2.52 6.538 0 2.187-.63 4.143-1.89 5.866-1.25 1.724-2.99 3.083-5.22 4.077-2.24.994-4.84 1.491-7.81 1.491-3.89 0-7.12-.845-9.67-2.535s-4.17-4.16-4.85-7.408l5.57-1.392c.53 2.055 1.53 3.596 3.01 4.624 1.49 1.027 3.44 1.541 5.84 1.541 2.74 0 4.91-.58 6.51-1.74 1.63-1.177 2.44-2.585 2.44-4.226 0-1.326-.46-2.436-1.39-3.331-.93-.911-2.36-1.591-4.28-2.038l-6.36-1.492c-3.5-.828-6.07-2.113-7.71-3.853-1.62-1.756-2.43-3.952-2.43-6.587 0-2.154.6-4.06 1.81-5.717 1.23-1.658 2.89-2.958 5-3.903 2.12-.945 4.52-1.417 7.21-1.417 3.78 0 6.74.829 8.9 2.486 2.17 1.657 3.71 3.845 4.62 6.562zm20.76 30.526c-2.42 0-4.61-.456-6.59-1.367-1.97-.928-3.53-2.262-4.69-4.002-1.16-1.757-1.74-3.878-1.74-6.364 0-2.188.43-3.961 1.29-5.32.86-1.375 2.01-2.452 3.45-3.231 1.45-.779 3.04-1.359 4.78-1.74 1.75-.398 3.52-.713 5.29-.945 2.32-.298 4.2-.522 5.64-.671 1.46-.166 2.52-.439 3.19-.82.68-.381 1.02-1.044 1.02-1.989v-.199c0-2.452-.68-4.358-2.02-5.717-1.32-1.359-3.34-2.039-6.04-2.039-2.8 0-4.99.614-6.59 1.84-1.59 1.226-2.71 2.535-3.35 3.928l-5.57-1.989c.99-2.32 2.32-4.127 3.98-5.419 1.67-1.309 3.49-2.221 5.47-2.735 1.98-.53 3.94-.795 5.86-.795 1.23 0 2.64.149 4.23.447 1.61.282 3.16.87 4.65 1.765 1.51.895 2.76 2.246 3.75 4.052.99 1.807 1.49 4.226 1.49 7.259v25.156h-5.86v-5.17h-.3c-.4.828-1.06 1.715-1.99 2.659-.93.945-2.16 1.749-3.71 2.412-1.54.662-3.42.994-5.64.994zm.9-5.27c2.32 0 4.27-.456 5.86-1.367 1.61-.912 2.82-2.088 3.63-3.53.83-1.442 1.25-2.958 1.25-4.549v-5.369c-.25.298-.8.571-1.64.82-.83.232-1.79.439-2.89.621-1.08.166-2.13.315-3.16.448-1.01.116-1.83.215-2.46.298-1.52.199-2.95.522-4.27.97-1.31.43-2.37 1.085-3.18 1.963-.8.862-1.2 2.039-1.2 3.53 0 2.039.76 3.58 2.27 4.624 1.52 1.027 3.45 1.541 5.79 1.541zm28.11 4.375v-50.909h5.86v18.793h.5c.43-.663 1.03-1.509 1.79-2.536.78-1.044 1.89-1.972 3.33-2.784 1.46-.829 3.43-1.243 5.92-1.243 3.21 0 6.04.804 8.5 2.411 2.45 1.608 4.36 3.886 5.74 6.836 1.37 2.95 2.06 6.43 2.06 10.441 0 4.043-.69 7.548-2.06 10.514-1.38 2.95-3.28 5.237-5.72 6.861-2.43 1.608-5.24 2.411-8.42 2.411-2.46 0-4.42-.406-5.9-1.218-1.47-.828-2.61-1.765-3.4-2.809-.8-1.06-1.41-1.938-1.84-2.634h-.7v5.866zm5.76-19.091c0 2.884.42 5.427 1.27 7.631.85 2.188 2.08 3.903 3.7 5.146 1.63 1.226 3.62 1.84 5.97 1.84 2.45 0 4.5-.647 6.14-1.939 1.66-1.31 2.9-3.066 3.73-5.27.84-2.221 1.27-4.69 1.27-7.408 0-2.685-.42-5.104-1.25-7.258-.81-2.171-2.04-3.887-3.7-5.146-1.64-1.276-3.7-1.914-6.19-1.914-2.39 0-4.39.605-6.02 1.815-1.62 1.193-2.85 2.866-3.67 5.021-.83 2.138-1.25 4.632-1.25 7.482zm36.92 19.091v-38.182h5.86v38.182zm2.98-44.545c-1.14 0-2.13-.39-2.96-1.169-.81-.779-1.22-1.715-1.22-2.809 0-1.093.41-2.03 1.22-2.809.83-.779 1.82-1.168 2.96-1.168s2.12.389 2.93 1.168c.83.779 1.25 1.716 1.25 2.809 0 1.094-.42 2.03-1.25 2.809-.81.779-1.79 1.169-2.93 1.169zm19.49-6.364v50.909h-5.86v-50.909zm10.75 50.909v-38.182h5.87v38.182zm2.98-44.545c-1.14 0-2.13-.39-2.96-1.169-.81-.779-1.21-1.715-1.21-2.809 0-1.093.4-2.03 1.21-2.809.83-.779 1.82-1.168 2.96-1.168 1.15 0 2.12.389 2.94 1.168s1.24 1.716 1.24 2.809c0 1.094-.42 2.03-1.24 2.809s-1.79 1.169-2.94 1.169zm30.24 6.363v4.972h-19.79v-4.972zm-14.02-9.148h5.86v36.392c0 1.658.24 2.901.72 3.729.5.812 1.13 1.359 1.89 1.641.78.265 1.6.398 2.46.398.65 0 1.18-.034 1.59-.1.42-.083.75-.149 1-.199l1.19 5.27c-.4.149-.95.298-1.66.448-.72.165-1.62.248-2.71.248-1.66 0-3.28-.356-4.88-1.069-1.57-.712-2.88-1.798-3.92-3.256-1.03-1.458-1.54-3.298-1.54-5.519zm26.62 61.648c-1 0-1.88-.083-2.66-.248-.78-.15-1.32-.299-1.62-.448l1.49-5.17c1.43.364 2.69.497 3.78.397 1.1-.099 2.07-.588 2.91-1.466.86-.862 1.65-2.262 2.36-4.201l1.1-2.983-14.12-38.381h6.36l10.54 30.426h.4l10.54-30.426h6.36l-16.21 43.75c-.73 1.972-1.63 3.605-2.71 4.897-1.07 1.309-2.32 2.279-3.75 2.909-1.41.629-3 .944-4.77.944z"/><path d="m1882.01 486.818c-.3-2.519-1.51-4.474-3.63-5.866s-4.73-2.088-7.81-2.088c-2.25 0-4.22.364-5.92 1.093-1.67.73-2.98 1.732-3.92 3.008-.93 1.276-1.39 2.726-1.39 4.35 0 1.359.32 2.528.96 3.505.67.961 1.51 1.765 2.54 2.412 1.03.629 2.1 1.151 3.23 1.566 1.13.397 2.16.72 3.11.969l5.17 1.392c1.33.348 2.8.829 4.42 1.442 1.64.613 3.21 1.45 4.7 2.511 1.51 1.044 2.75 2.386 3.73 4.026.98 1.641 1.47 3.655 1.47 6.041 0 2.751-.72 5.237-2.17 7.457-1.42 2.221-3.51 3.986-6.26 5.295-2.73 1.309-6.06 1.964-9.97 1.964-3.64 0-6.8-.588-9.47-1.765-2.65-1.177-4.74-2.817-6.26-4.922-1.51-2.105-2.36-4.549-2.56-7.333h6.36c.17 1.922.81 3.513 1.94 4.773 1.14 1.243 2.59 2.171 4.33 2.784 1.75.596 3.64.895 5.66.895 2.36 0 4.47-.381 6.34-1.144 1.87-.779 3.36-1.856 4.45-3.231 1.09-1.392 1.64-3.016 1.64-4.872 0-1.691-.47-3.066-1.42-4.127-.94-1.06-2.18-1.922-3.72-2.585-1.55-.663-3.21-1.243-5-1.74l-6.26-1.79c-3.98-1.143-7.13-2.776-9.45-4.897s-3.48-4.897-3.48-8.327c0-2.851.77-5.337 2.31-7.458 1.56-2.138 3.65-3.795 6.27-4.971 2.63-1.194 5.57-1.79 8.82-1.79 3.28 0 6.2.588 8.75 1.765 2.55 1.16 4.57 2.751 6.07 4.773 1.5 2.021 2.3 4.317 2.38 6.885zm32.01 38.977c-3.68 0-6.86-.812-9.52-2.436-2.66-1.64-4.7-3.927-6.14-6.86-1.43-2.95-2.14-6.381-2.14-10.292s.71-7.358 2.14-10.341c1.44-2.999 3.44-5.336 6.01-7.009 2.59-1.691 5.6-2.536 9.05-2.536 1.99 0 3.95.331 5.89.994s3.71 1.74 5.3 3.232c1.59 1.475 2.85 3.43 3.8 5.866.94 2.436 1.42 5.436 1.42 8.999v2.486h-29.44v-5.071h23.47c0-2.155-.43-4.077-1.29-5.767-.85-1.691-2.06-3.025-3.63-4.002-1.56-.978-3.4-1.467-5.52-1.467-2.34 0-4.36.58-6.07 1.74-1.69 1.143-2.99 2.635-3.9 4.474-.91 1.84-1.37 3.812-1.37 5.917v3.38c0 2.884.5 5.328 1.5 7.333 1.01 1.989 2.41 3.505 4.2 4.549 1.79 1.028 3.87 1.542 6.24 1.542 1.54 0 2.93-.216 4.17-.647 1.26-.447 2.35-1.11 3.26-1.988.91-.895 1.61-2.006 2.11-3.331l5.67 1.591c-.6 1.922-1.6 3.612-3.01 5.071-1.41 1.441-3.15 2.568-5.22 3.38-2.07.796-4.4 1.193-6.98 1.193zm40.24 0c-3.58 0-6.66-.845-9.25-2.535-2.58-1.69-4.57-4.019-5.96-6.985-1.39-2.967-2.09-6.355-2.09-10.167 0-3.878.71-7.3 2.14-10.266 1.44-2.983 3.45-5.312 6.01-6.985 2.59-1.691 5.61-2.536 9.05-2.536 2.69 0 5.11.497 7.26 1.491 2.15.995 3.92 2.387 5.3 4.177 1.37 1.789 2.22 3.877 2.56 6.264h-5.87c-.45-1.74-1.44-3.281-2.98-4.624-1.53-1.359-3.58-2.038-6.17-2.038-2.29 0-4.29.596-6.01 1.79-1.71 1.176-3.05 2.842-4.01 4.996-.94 2.138-1.41 4.649-1.41 7.532 0 2.95.46 5.519 1.39 7.706.94 2.188 2.27 3.886 3.98 5.096 1.72 1.21 3.74 1.815 6.06 1.815 1.53 0 2.91-.266 4.15-.796 1.25-.53 2.3-1.292 3.16-2.287.86-.994 1.47-2.187 1.84-3.579h5.87c-.34 2.253-1.16 4.283-2.47 6.09-1.29 1.79-3 3.215-5.14 4.275-2.12 1.044-4.59 1.566-7.41 1.566zm47.65-16.406v-22.571h5.87v38.182h-5.87v-6.463h-.39c-.9 1.939-2.29 3.588-4.18 4.947-1.89 1.342-4.28 2.013-7.16 2.013-2.39 0-4.51-.522-6.36-1.566-1.86-1.06-3.32-2.651-4.38-4.773-1.06-2.137-1.59-4.83-1.59-8.078v-24.262h5.87v23.864c0 2.784.78 5.005 2.33 6.662 1.58 1.657 3.58 2.486 6.02 2.486 1.46 0 2.94-.373 4.45-1.119 1.52-.746 2.8-1.889 3.83-3.43 1.04-1.542 1.56-3.505 1.56-5.892zm16.62 15.611v-38.182h5.66v5.767h.4c.7-1.889 1.96-3.422 3.78-4.598 1.82-1.177 3.88-1.765 6.16-1.765.43 0 .97.008 1.62.024.65.017 1.14.042 1.47.075v5.966c-.2-.05-.66-.124-1.37-.224-.7-.116-1.43-.174-2.21-.174-1.86 0-3.52.39-4.97 1.169-1.45.762-2.59 1.822-3.44 3.181-.82 1.343-1.24 2.876-1.24 4.599v24.162zm26.04 0v-38.182h5.87v38.182zm2.98-44.545c-1.14 0-2.13-.39-2.95-1.169s-1.22-1.715-1.22-2.809c0-1.093.4-2.03 1.22-2.809s1.81-1.168 2.95-1.168c1.15 0 2.12.389 2.94 1.168.83.779 1.24 1.716 1.24 2.809 0 1.094-.41 2.03-1.24 2.809-.82.779-1.79 1.169-2.94 1.169zm30.24 6.363v4.972h-19.79v-4.972zm-14.02-9.148h5.86v36.392c0 1.658.24 2.901.72 3.729.5.812 1.13 1.359 1.89 1.641.78.265 1.6.398 2.46.398.65 0 1.18-.034 1.6-.1.41-.083.74-.149.99-.199l1.19 5.27c-.39.149-.95.298-1.66.448-.72.165-1.62.248-2.71.248-1.66 0-3.28-.356-4.87-1.069-1.58-.712-2.89-1.798-3.93-3.256-1.03-1.458-1.54-3.298-1.54-5.519zm26.62 61.648c-.99 0-1.88-.083-2.66-.248-.78-.15-1.32-.299-1.62-.448l1.5-5.17c1.42.364 2.68.497 3.77.397 1.1-.099 2.07-.588 2.91-1.466.86-.862 1.65-2.262 2.36-4.201l1.1-2.983-14.12-38.381h6.36l10.54 30.426h.4l10.54-30.426h6.36l-16.2 43.75c-.73 1.972-1.64 3.605-2.71 4.897-1.08 1.309-2.33 2.279-3.76 2.909-1.41.629-3 .944-4.77.944z"/><path d="m1066.16 194v-50.909h17.21c3.99 0 7.26.721 9.79 2.163 2.55 1.425 4.44 3.355 5.67 5.791 1.22 2.437 1.84 5.154 1.84 8.154 0 2.999-.62 5.725-1.84 8.178-1.21 2.453-3.08 4.408-5.62 5.867-2.54 1.441-5.78 2.162-9.74 2.162h-12.33v-5.468h12.13c2.73 0 4.93-.473 6.58-1.417 1.66-.945 2.86-2.221 3.61-3.829.76-1.624 1.14-3.455 1.14-5.493s-.38-3.861-1.14-5.469c-.75-1.607-1.96-2.867-3.63-3.778-1.67-.928-3.89-1.392-6.66-1.392h-10.84v45.44zm59.24.795c-3.68 0-6.85-.812-9.52-2.436-2.65-1.64-4.7-3.927-6.14-6.86-1.42-2.95-2.14-6.381-2.14-10.292s.72-7.358 2.14-10.341c1.44-2.999 3.45-5.336 6.02-7.009 2.58-1.691 5.6-2.536 9.04-2.536 1.99 0 3.96.331 5.9.994 1.93.663 3.7 1.74 5.29 3.232 1.59 1.475 2.86 3.43 3.8 5.866.95 2.436 1.42 5.436 1.42 8.999v2.486h-29.43v-5.071h23.47c0-2.155-.44-4.077-1.3-5.767-.84-1.691-2.05-3.025-3.63-4.002-1.55-.978-3.39-1.467-5.52-1.467-2.33 0-4.35.58-6.06 1.74-1.69 1.143-2.99 2.635-3.9 4.474-.91 1.84-1.37 3.812-1.37 5.917v3.38c0 2.884.5 5.328 1.49 7.333 1.01 1.989 2.41 3.505 4.2 4.549 1.79 1.028 3.87 1.542 6.24 1.542 1.54 0 2.93-.216 4.18-.647 1.26-.447 2.34-1.11 3.25-1.988.92-.895 1.62-2.006 2.12-3.331l5.66 1.591c-.59 1.922-1.59 3.612-3 5.071-1.41 1.441-3.15 2.568-5.22 3.38-2.08.796-4.4 1.193-6.99 1.193zm24.73-.795v-38.182h5.67v5.767h.4c.7-1.889 1.96-3.422 3.78-4.598 1.82-1.177 3.88-1.765 6.16-1.765.43 0 .97.008 1.62.024.65.017 1.13.042 1.47.075v5.966c-.2-.05-.66-.124-1.37-.224-.7-.116-1.43-.174-2.21-.174-1.86 0-3.52.39-4.98 1.169-1.44.762-2.58 1.822-3.43 3.181-.82 1.343-1.24 2.876-1.24 4.599v24.162zm45.45-38.182v4.972h-20.59v-4.972zm-14.42 38.182v-43.452c0-2.187.51-4.01 1.54-5.468 1.03-1.459 2.36-2.553 4-3.282s3.37-1.093 5.2-1.093c1.44 0 2.61.116 3.53.348.91.232 1.59.447 2.03.646l-1.69 5.071c-.29-.1-.71-.224-1.24-.373-.51-.149-1.19-.224-2.04-.224-1.94 0-3.34.489-4.2 1.467-.84.978-1.27 2.411-1.27 4.3v42.06zm36.58.795c-3.45 0-6.48-.82-9.08-2.46-2.58-1.641-4.6-3.936-6.06-6.886-1.44-2.95-2.16-6.397-2.16-10.341 0-3.977.72-7.449 2.16-10.416 1.46-2.966 3.48-5.269 6.06-6.91 2.6-1.641 5.63-2.461 9.08-2.461 3.44 0 6.46.82 9.04 2.461 2.61 1.641 4.63 3.944 6.07 6.91 1.46 2.967 2.19 6.439 2.19 10.416 0 3.944-.73 7.391-2.19 10.341-1.44 2.95-3.46 5.245-6.07 6.886-2.58 1.64-5.6 2.46-9.04 2.46zm0-5.269c2.61 0 4.77-.672 6.46-2.014s2.94-3.107 3.75-5.295c.81-2.187 1.22-4.557 1.22-7.109s-.41-4.93-1.22-7.134-2.06-3.986-3.75-5.345-3.85-2.038-6.46-2.038c-2.62 0-4.78.679-6.47 2.038s-2.94 3.141-3.75 5.345-1.22 4.582-1.22 7.134.41 4.922 1.22 7.109c.81 2.188 2.06 3.953 3.75 5.295s3.85 2.014 6.47 2.014zm26.25 4.474v-38.182h5.67v5.767h.4c.69-1.889 1.95-3.422 3.78-4.598 1.82-1.177 3.87-1.765 6.16-1.765.43 0 .97.008 1.62.024.64.017 1.13.042 1.46.075v5.966c-.2-.05-.65-.124-1.36-.224-.7-.116-1.44-.174-2.22-.174-1.85 0-3.51.39-4.97 1.169-1.44.762-2.58 1.822-3.43 3.181-.83 1.343-1.24 2.876-1.24 4.599v24.162zm26.05 0v-38.182h5.66v5.966h.5c.8-2.038 2.08-3.621 3.86-4.748 1.77-1.143 3.9-1.715 6.38-1.715 2.52 0 4.62.572 6.29 1.715 1.69 1.127 3.01 2.71 3.96 4.748h.39c.98-1.972 2.45-3.538 4.4-4.698 1.96-1.177 4.3-1.765 7.04-1.765 3.41 0 6.2 1.069 8.37 3.207 2.18 2.121 3.26 5.427 3.26 9.918v25.554h-5.87v-25.554c0-2.817-.77-4.831-2.31-6.04-1.54-1.21-3.35-1.815-5.44-1.815-2.69 0-4.77.812-6.24 2.436-1.48 1.607-2.21 3.646-2.21 6.115v24.858h-5.97v-26.151c0-2.17-.7-3.919-2.11-5.245-1.41-1.342-3.23-2.013-5.45-2.013-1.52 0-2.95.406-4.27 1.218-1.31.812-2.37 1.939-3.18 3.381-.8 1.425-1.2 3.074-1.2 4.946v23.864zm72.07.895c-2.42 0-4.61-.456-6.58-1.367-1.98-.928-3.54-2.262-4.7-4.002-1.16-1.757-1.74-3.878-1.74-6.364 0-2.188.43-3.961 1.29-5.32.86-1.375 2.01-2.452 3.46-3.231 1.44-.779 3.03-1.359 4.77-1.74 1.75-.398 3.52-.713 5.29-.945 2.32-.298 4.2-.522 5.65-.671 1.45-.166 2.51-.439 3.18-.82.68-.381 1.02-1.044 1.02-1.989v-.199c0-2.452-.67-4.358-2.02-5.717-1.32-1.359-3.34-2.039-6.04-2.039-2.8 0-4.99.614-6.58 1.84-1.6 1.226-2.71 2.535-3.36 3.928l-5.57-1.989c1-2.32 2.32-4.127 3.98-5.419 1.67-1.309 3.5-2.221 5.47-2.735 1.99-.53 3.94-.795 5.86-.795 1.23 0 2.64.149 4.23.447 1.61.282 3.16.87 4.65 1.765 1.51.895 2.76 2.246 3.75 4.052 1 1.807 1.49 4.226 1.49 7.259v25.156h-5.86v-5.17h-.3c-.4.828-1.06 1.715-1.99 2.659-.93.945-2.16 1.749-3.7 2.412-1.55.662-3.43.994-5.65.994zm.9-5.27c2.32 0 4.27-.456 5.86-1.367 1.61-.912 2.82-2.088 3.63-3.53.83-1.442 1.25-2.958 1.25-4.549v-5.369c-.25.298-.8.571-1.64.82-.83.232-1.79.439-2.89.621-1.07.166-2.13.315-3.15.448-1.02.116-1.84.215-2.47.298-1.52.199-2.95.522-4.27.97-1.31.43-2.37 1.085-3.18 1.963-.8.862-1.2 2.039-1.2 3.53 0 2.039.76 3.58 2.27 4.624 1.52 1.027 3.45 1.541 5.79 1.541zm33.18-18.594v22.969h-5.87v-38.182h5.67v5.966h.5c.89-1.939 2.25-3.497 4.07-4.673 1.82-1.193 4.18-1.79 7.06-1.79 2.59 0 4.85.53 6.79 1.591 1.94 1.044 3.44 2.635 4.52 4.773 1.08 2.121 1.62 4.806 1.62 8.054v24.261h-5.87v-23.864c0-2.999-.78-5.336-2.34-7.01-1.55-1.69-3.69-2.535-6.41-2.535-1.87 0-3.55.406-5.02 1.218-1.46.812-2.61 1.997-3.46 3.555-.84 1.557-1.26 3.447-1.26 5.667zm50.59 23.764c-3.58 0-6.66-.845-9.25-2.535-2.58-1.69-4.57-4.019-5.96-6.985-1.4-2.967-2.09-6.355-2.09-10.167 0-3.878.71-7.3 2.14-10.266 1.44-2.983 3.44-5.312 6.01-6.985 2.59-1.691 5.6-2.536 9.05-2.536 2.68 0 5.1.497 7.26 1.491 2.15.995 3.92 2.387 5.29 4.177 1.38 1.789 2.23 3.877 2.56 6.264h-5.86c-.45-1.74-1.44-3.281-2.99-4.624-1.52-1.359-3.58-2.038-6.16-2.038-2.29 0-4.29.596-6.02 1.79-1.7 1.176-3.04 2.842-4 4.996-.94 2.138-1.42 4.649-1.42 7.532 0 2.95.47 5.519 1.4 7.706.94 2.188 2.27 3.886 3.97 5.096 1.73 1.21 3.75 1.815 6.07 1.815 1.52 0 2.91-.266 4.15-.796s2.3-1.292 3.16-2.287c.86-.994 1.47-2.187 1.84-3.579h5.86c-.33 2.253-1.15 4.283-2.46 6.09-1.29 1.79-3.01 3.215-5.14 4.275-2.12 1.044-4.59 1.566-7.41 1.566zm39.6 0c-3.68 0-6.85-.812-9.52-2.436-2.65-1.64-4.7-3.927-6.14-6.86-1.43-2.95-2.14-6.381-2.14-10.292s.71-7.358 2.14-10.341c1.44-2.999 3.44-5.336 6.01-7.009 2.59-1.691 5.6-2.536 9.05-2.536 1.99 0 3.95.331 5.89.994s3.71 1.74 5.3 3.232c1.59 1.475 2.86 3.43 3.8 5.866.95 2.436 1.42 5.436 1.42 8.999v2.486h-29.43v-5.071h23.46c0-2.155-.43-4.077-1.29-5.767-.85-1.691-2.06-3.025-3.63-4.002-1.56-.978-3.4-1.467-5.52-1.467-2.34 0-4.36.58-6.06 1.74-1.69 1.143-3 2.635-3.91 4.474-.91 1.84-1.36 3.812-1.36 5.917v3.38c0 2.884.49 5.328 1.49 7.333 1.01 1.989 2.41 3.505 4.2 4.549 1.79 1.028 3.87 1.542 6.24 1.542 1.54 0 2.93-.216 4.17-.647 1.26-.447 2.35-1.11 3.26-1.988.91-.895 1.62-2.006 2.11-3.331l5.67 1.591c-.6 1.922-1.6 3.612-3.01 5.071-1.41 1.441-3.15 2.568-5.22 3.38-2.07.796-4.4 1.193-6.98 1.193z"/><path d="m582.165 231v-50.909h30.525v5.469h-24.36v17.201h22.073v5.469h-22.073v22.77zm61.958-15.611v-22.571h5.867v38.182h-5.867v-6.463h-.398c-.894 1.939-2.286 3.588-4.176 4.947-1.889 1.342-4.275 2.013-7.159 2.013-2.386 0-4.507-.522-6.363-1.566-1.856-1.06-3.315-2.651-4.375-4.773-1.061-2.137-1.591-4.83-1.591-8.078v-24.262h5.866v23.864c0 2.784.779 5.005 2.337 6.662 1.574 1.657 3.579 2.486 6.015 2.486 1.459 0 2.942-.373 4.45-1.119 1.525-.746 2.801-1.889 3.828-3.43 1.044-1.542 1.566-3.505 1.566-5.892zm22.478-7.358v22.969h-5.866v-38.182h5.667v5.966h.497c.895-1.939 2.254-3.497 4.077-4.673 1.823-1.193 4.176-1.79 7.06-1.79 2.585 0 4.847.53 6.786 1.591 1.939 1.044 3.447 2.635 4.524 4.773 1.077 2.121 1.616 4.806 1.616 8.054v24.261h-5.867v-23.864c0-2.999-.779-5.336-2.336-7.01-1.558-1.69-3.696-2.535-6.414-2.535-1.872 0-3.546.406-5.021 1.218-1.458.812-2.61 1.997-3.455 3.555-.845 1.557-1.268 3.447-1.268 5.667zm50.592 23.764c-3.579 0-6.662-.845-9.247-2.535s-4.574-4.019-5.966-6.985c-1.392-2.967-2.088-6.355-2.088-10.167 0-3.878.713-7.3 2.138-10.266 1.442-2.983 3.447-5.312 6.015-6.985 2.586-1.691 5.602-2.536 9.049-2.536 2.684 0 5.104.497 7.258 1.491 2.155.995 3.92 2.387 5.295 4.177 1.375 1.789 2.229 3.877 2.56 6.264h-5.866c-.448-1.74-1.442-3.281-2.983-4.624-1.525-1.359-3.58-2.038-6.165-2.038-2.287 0-4.292.596-6.015 1.79-1.707 1.176-3.041 2.842-4.003 4.996-.944 2.138-1.416 4.649-1.416 7.532 0 2.95.464 5.519 1.392 7.706.944 2.188 2.27 3.886 3.977 5.096 1.723 1.21 3.745 1.815 6.065 1.815 1.525 0 2.909-.266 4.151-.796 1.243-.53 2.296-1.292 3.157-2.287.862-.994 1.475-2.187 1.84-3.579h5.866c-.331 2.253-1.151 4.283-2.461 6.09-1.292 1.79-3.007 3.215-5.145 4.275-2.121 1.044-4.591 1.566-7.408 1.566zm40.195-38.977v4.972h-19.786v-4.972zm-14.019-9.148h5.866v36.392c0 1.658.24 2.901.721 3.729.497.812 1.127 1.359 1.889 1.641.779.265 1.599.398 2.461.398.646 0 1.177-.034 1.591-.1.414-.083.746-.149.994-.199l1.194 5.27c-.398.149-.953.298-1.666.448-.713.165-1.616.248-2.709.248-1.658 0-3.282-.356-4.873-1.069-1.574-.712-2.883-1.798-3.927-3.256-1.028-1.458-1.541-3.298-1.541-5.519zm22.844 47.33v-38.182h5.867v38.182zm2.983-44.545c-1.143 0-2.129-.39-2.958-1.169-.812-.779-1.218-1.715-1.218-2.809 0-1.093.406-2.03 1.218-2.809.829-.779 1.815-1.168 2.958-1.168s2.121.389 2.933 1.168c.829.779 1.243 1.716 1.243 2.809 0 1.094-.414 2.03-1.243 2.809-.812.779-1.79 1.169-2.933 1.169zm29.14 45.34c-3.447 0-6.472-.82-9.073-2.46-2.586-1.641-4.607-3.936-6.066-6.886-1.441-2.95-2.162-6.397-2.162-10.341 0-3.977.721-7.449 2.162-10.416 1.459-2.966 3.48-5.269 6.066-6.91 2.601-1.641 5.626-2.461 9.073-2.461s6.463.82 9.048 2.461c2.602 1.641 4.624 3.944 6.065 6.91 1.459 2.967 2.188 6.439 2.188 10.416 0 3.944-.729 7.391-2.188 10.341-1.441 2.95-3.463 5.245-6.065 6.886-2.585 1.64-5.601 2.46-9.048 2.46zm0-5.269c2.618 0 4.772-.672 6.463-2.014 1.69-1.342 2.941-3.107 3.753-5.295.812-2.187 1.218-4.557 1.218-7.109s-.406-4.93-1.218-7.134-2.063-3.986-3.753-5.345c-1.691-1.359-3.845-2.038-6.463-2.038-2.619 0-4.773.679-6.463 2.038-1.691 1.359-2.942 3.141-3.754 5.345s-1.218 4.582-1.218 7.134.406 4.922 1.218 7.109c.812 2.188 2.063 3.953 3.754 5.295 1.69 1.342 3.844 2.014 6.463 2.014zm32.122-18.495v22.969h-5.866v-38.182h5.668v5.966h.497c.895-1.939 2.254-3.497 4.076-4.673 1.823-1.193 4.177-1.79 7.06-1.79 2.585 0 4.847.53 6.786 1.591 1.939 1.044 3.447 2.635 4.524 4.773 1.078 2.121 1.616 4.806 1.616 8.054v24.261h-5.866v-23.864c0-2.999-.779-5.336-2.337-7.01-1.558-1.69-3.695-2.535-6.413-2.535-1.873 0-3.547.406-5.022 1.218-1.458.812-2.61 1.997-3.455 3.555-.845 1.557-1.268 3.447-1.268 5.667zm46.317 23.864c-2.419 0-4.615-.456-6.587-1.367-1.972-.928-3.538-2.262-4.698-4.002-1.161-1.757-1.741-3.878-1.741-6.364 0-2.188.431-3.961 1.293-5.32.862-1.375 2.014-2.452 3.455-3.231 1.442-.779 3.033-1.359 4.773-1.74 1.757-.398 3.522-.713 5.295-.945 2.32-.298 4.201-.522 5.643-.671 1.458-.166 2.519-.439 3.181-.82.68-.381 1.02-1.044 1.02-1.989v-.199c0-2.452-.672-4.358-2.014-5.717-1.326-1.359-3.339-2.039-6.04-2.039-2.801 0-4.997.614-6.588 1.84s-2.709 2.535-3.356 3.928l-5.568-1.989c.995-2.32 2.32-4.127 3.977-5.419 1.674-1.309 3.497-2.221 5.469-2.735 1.989-.53 3.944-.795 5.867-.795 1.226 0 2.635.149 4.226.447 1.607.282 3.157.87 4.648 1.765 1.508.895 2.759 2.246 3.754 4.052.994 1.807 1.491 4.226 1.491 7.259v25.156h-5.866v-5.17h-.299c-.397.828-1.06 1.715-1.988 2.659-.928.945-2.163 1.749-3.704 2.412-1.541.662-3.422.994-5.643.994zm.895-5.27c2.32 0 4.275-.456 5.866-1.367 1.608-.912 2.818-2.088 3.63-3.53.828-1.442 1.243-2.958 1.243-4.549v-5.369c-.249.298-.796.571-1.641.82-.829.232-1.79.439-2.884.621-1.077.166-2.129.315-3.157.448-1.01.116-1.831.215-2.46.298-1.525.199-2.95.522-4.276.97-1.309.43-2.37 1.085-3.182 1.963-.795.862-1.193 2.039-1.193 3.53 0 2.039.754 3.58 2.262 4.624 1.525 1.027 3.455 1.541 5.792 1.541zm33.179-46.534v50.909h-5.866v-50.909zm10.745 50.909v-38.182h5.866v38.182zm2.983-44.545c-1.144 0-2.13-.39-2.958-1.169-.812-.779-1.218-1.715-1.218-2.809 0-1.093.406-2.03 1.218-2.809.828-.779 1.814-1.168 2.958-1.168 1.143 0 2.121.389 2.933 1.168.829.779 1.243 1.716 1.243 2.809 0 1.094-.414 2.03-1.243 2.809-.812.779-1.79 1.169-2.933 1.169zm30.233 6.363v4.972h-19.787v-4.972zm-14.02-9.148h5.867v36.392c0 1.658.24 2.901.721 3.729.497.812 1.127 1.359 1.889 1.641.779.265 1.599.398 2.461.398.646 0 1.177-.034 1.591-.1.414-.083.746-.149.994-.199l1.193 5.27c-.397.149-.952.298-1.665.448-.713.165-1.616.248-2.71.248-1.657 0-3.281-.356-4.872-1.069-1.574-.712-2.883-1.798-3.927-3.256-1.028-1.458-1.542-3.298-1.542-5.519zm26.623 61.648c-.994 0-1.881-.083-2.659-.248-.779-.15-1.318-.299-1.616-.448l1.491-5.17c1.425.364 2.685.497 3.779.397 1.093-.099 2.063-.588 2.908-1.466.862-.862 1.649-2.262 2.362-4.201l1.093-2.983-14.119-38.381h6.364l10.539 30.426h.398l10.54-30.426h6.364l-16.208 43.75c-.729 1.972-1.632 3.605-2.709 4.897-1.078 1.309-2.329 2.279-3.754 2.909-1.409.629-2.999.944-4.773.944z"/><path d="m773.165 363v-50.909h17.201c3.978 0 7.242.679 9.795 2.038 2.552 1.343 4.441 3.19 5.667 5.544 1.226 2.353 1.84 5.029 1.84 8.029 0 2.999-.614 5.659-1.84 7.979s-3.107 4.143-5.643 5.469c-2.535 1.309-5.775 1.964-9.719 1.964h-13.921v-5.569h13.722c2.718 0 4.905-.397 6.563-1.193 1.673-.795 2.883-1.922 3.629-3.38.762-1.475 1.143-3.232 1.143-5.27 0-2.039-.381-3.82-1.143-5.345-.763-1.524-1.981-2.701-3.654-3.53-1.674-.845-3.886-1.267-6.637-1.267h-10.838v45.44zm23.963-22.869 12.528 22.869h-7.159l-12.329-22.869zm35.615 23.664c-3.679 0-6.852-.812-9.521-2.436-2.651-1.64-4.698-3.927-6.139-6.86-1.426-2.95-2.138-6.381-2.138-10.292s.712-7.358 2.138-10.341c1.441-2.999 3.447-5.336 6.015-7.009 2.585-1.691 5.602-2.536 9.048-2.536 1.989 0 3.953.331 5.892.994s3.704 1.74 5.295 3.232c1.59 1.475 2.858 3.43 3.803 5.866.944 2.436 1.417 5.436 1.417 8.999v2.486h-29.432v-5.071h23.466c0-2.155-.431-4.077-1.293-5.767-.845-1.691-2.055-3.025-3.629-4.002-1.558-.978-3.397-1.467-5.519-1.467-2.336 0-4.358.58-6.065 1.74-1.69 1.143-2.991 2.635-3.903 4.474-.911 1.84-1.367 3.812-1.367 5.917v3.38c0 2.884.497 5.328 1.492 7.333 1.011 1.989 2.411 3.505 4.201 4.549 1.79 1.028 3.869 1.542 6.239 1.542 1.541 0 2.933-.216 4.176-.647 1.26-.447 2.345-1.11 3.257-1.988.911-.895 1.615-2.006 2.113-3.331l5.667 1.591c-.596 1.922-1.599 3.612-3.008 5.071-1.408 1.441-3.148 2.568-5.22 3.38-2.071.796-4.4 1.193-6.985 1.193zm30.6-51.704v50.909h-5.866v-50.909zm10.745 50.909v-38.182h5.867v38.182zm2.983-44.545c-1.143 0-2.129-.39-2.958-1.169-.812-.779-1.218-1.715-1.218-2.809 0-1.093.406-2.03 1.218-2.809.829-.779 1.815-1.168 2.958-1.168s2.121.389 2.933 1.168c.829.779 1.243 1.716 1.243 2.809 0 1.094-.414 2.03-1.243 2.809-.812.779-1.79 1.169-2.933 1.169zm24.864 45.44c-2.419 0-4.615-.456-6.587-1.367-1.972-.928-3.538-2.262-4.698-4.002-1.16-1.757-1.74-3.878-1.74-6.364 0-2.188.43-3.961 1.292-5.32.862-1.375 2.014-2.452 3.455-3.231 1.442-.779 3.033-1.359 4.773-1.74 1.757-.398 3.522-.713 5.295-.945 2.32-.298 4.201-.522 5.643-.671 1.458-.166 2.519-.439 3.182-.82.679-.381 1.019-1.044 1.019-1.989v-.199c0-2.452-.671-4.358-2.014-5.717-1.326-1.359-3.339-2.039-6.04-2.039-2.801 0-4.997.614-6.588 1.84s-2.709 2.535-3.355 3.928l-5.569-1.989c.995-2.32 2.32-4.127 3.978-5.419 1.673-1.309 3.496-2.221 5.468-2.735 1.989-.53 3.945-.795 5.867-.795 1.226 0 2.635.149 4.226.447 1.607.282 3.157.87 4.648 1.765 1.508.895 2.759 2.246 3.754 4.052.994 1.807 1.491 4.226 1.491 7.259v25.156h-5.866v-5.17h-.299c-.397.828-1.06 1.715-1.988 2.659-.928.945-2.163 1.749-3.704 2.412-1.541.662-3.422.994-5.643.994zm.895-5.27c2.32 0 4.276-.456 5.867-1.367 1.607-.912 2.817-2.088 3.629-3.53.828-1.442 1.243-2.958 1.243-4.549v-5.369c-.249.298-.796.571-1.641.82-.829.232-1.79.439-2.883.621-1.078.166-2.13.315-3.157.448-1.011.116-1.832.215-2.461.298-1.525.199-2.95.522-4.276.97-1.309.43-2.37 1.085-3.182 1.963-.795.862-1.193 2.039-1.193 3.53 0 2.039.754 3.58 2.262 4.624 1.525 1.027 3.455 1.541 5.792 1.541zm28.108 4.375v-50.909h5.867v18.793h.497c.431-.663 1.027-1.509 1.79-2.536.779-1.044 1.889-1.972 3.331-2.784 1.458-.829 3.43-1.243 5.916-1.243 3.215 0 6.049.804 8.501 2.411 2.453 1.608 4.367 3.886 5.742 6.836 1.376 2.95 2.064 6.43 2.064 10.441 0 4.043-.688 7.548-2.064 10.514-1.375 2.95-3.281 5.237-5.717 6.861-2.436 1.608-5.245 2.411-8.427 2.411-2.452 0-4.416-.406-5.891-1.218-1.475-.828-2.61-1.765-3.406-2.809-.795-1.06-1.408-1.938-1.839-2.634h-.696v5.866zm5.767-19.091c0 2.884.423 5.427 1.268 7.631.845 2.188 2.08 3.903 3.704 5.146 1.624 1.226 3.613 1.84 5.966 1.84 2.452 0 4.499-.647 6.14-1.939 1.657-1.31 2.9-3.066 3.728-5.27.846-2.221 1.268-4.69 1.268-7.408 0-2.685-.414-5.104-1.243-7.258-.812-2.171-2.046-3.887-3.704-5.146-1.64-1.276-3.703-1.914-6.189-1.914-2.387 0-4.392.605-6.016 1.815-1.624 1.193-2.85 2.866-3.679 5.021-.828 2.138-1.243 4.632-1.243 7.482zm36.914 19.091v-38.182h5.867v38.182zm2.983-44.545c-1.143 0-2.129-.39-2.958-1.169-.812-.779-1.218-1.715-1.218-2.809 0-1.093.406-2.03 1.218-2.809.829-.779 1.815-1.168 2.958-1.168 1.144 0 2.121.389 2.934 1.168.828.779 1.242 1.716 1.242 2.809 0 1.094-.414 2.03-1.242 2.809-.813.779-1.79 1.169-2.934 1.169zm19.495-6.364v50.909h-5.866v-50.909zm10.743 50.909v-38.182h5.87v38.182zm2.98-44.545c-1.14 0-2.12-.39-2.95-1.169-.82-.779-1.22-1.715-1.22-2.809 0-1.093.4-2.03 1.22-2.809.83-.779 1.81-1.168 2.95-1.168 1.15 0 2.13.389 2.94 1.168.83.779 1.24 1.716 1.24 2.809 0 1.094-.41 2.03-1.24 2.809-.81.779-1.79 1.169-2.94 1.169zm30.24 6.363v4.972h-19.79v-4.972zm-14.02-9.148h5.87v36.392c0 1.658.24 2.901.72 3.729.49.812 1.12 1.359 1.89 1.641.77.265 1.59.398 2.46.398.64 0 1.17-.034 1.59-.1.41-.083.74-.149.99-.199l1.19 5.27c-.39.149-.95.298-1.66.448-.71.165-1.62.248-2.71.248-1.66 0-3.28-.356-4.87-1.069-1.58-.712-2.89-1.798-3.93-3.256-1.03-1.458-1.54-3.298-1.54-5.519zm26.62 61.648c-.99 0-1.88-.083-2.66-.248-.78-.15-1.32-.299-1.61-.448l1.49-5.17c1.42.364 2.68.497 3.78.397 1.09-.099 2.06-.588 2.9-1.466.87-.862 1.65-2.262 2.37-4.201l1.09-2.983-14.12-38.381h6.36l10.54 30.426h.4l10.54-30.426h6.36l-16.2 43.75c-.73 1.972-1.64 3.605-2.71 4.897-1.08 1.309-2.33 2.279-3.76 2.909-1.4.629-3 .944-4.77.944z"/><path d="m1882.16 286.091h7.36l17.3 42.258h.6l17.3-42.258h7.36v50.909h-5.77v-38.679h-.49l-15.91 38.679h-5.57l-15.91-38.679h-.5v38.679h-5.77zm72.72 51.804c-2.42 0-4.61-.456-6.59-1.367-1.97-.928-3.53-2.262-4.7-4.002-1.16-1.757-1.74-3.878-1.74-6.364 0-2.188.44-3.961 1.3-5.32.86-1.375 2.01-2.452 3.45-3.231s3.04-1.359 4.78-1.74c1.75-.398 3.52-.713 5.29-.945 2.32-.298 4.2-.522 5.64-.671 1.46-.166 2.52-.439 3.18-.82.68-.381 1.02-1.044 1.02-1.989v-.199c0-2.452-.67-4.358-2.01-5.717-1.33-1.359-3.34-2.039-6.04-2.039-2.8 0-5 .614-6.59 1.84s-2.71 2.535-3.35 3.928l-5.57-1.989c.99-2.32 2.32-4.127 3.98-5.419 1.67-1.309 3.49-2.221 5.46-2.735 1.99-.53 3.95-.795 5.87-.795 1.23 0 2.64.149 4.23.447 1.6.282 3.15.87 4.65 1.765s2.75 2.246 3.75 4.052c.99 1.807 1.49 4.226 1.49 7.259v25.156h-5.87v-5.17h-.29c-.4.828-1.06 1.715-1.99 2.659-.93.945-2.17 1.749-3.71 2.412-1.54.662-3.42.994-5.64.994zm.9-5.27c2.32 0 4.27-.456 5.86-1.367 1.61-.912 2.82-2.088 3.63-3.53.83-1.442 1.24-2.958 1.24-4.549v-5.369c-.24.298-.79.571-1.64.82-.83.232-1.79.439-2.88.621-1.08.166-2.13.315-3.16.448-1.01.116-1.83.215-2.46.298-1.52.199-2.95.522-4.27.97-1.31.43-2.37 1.085-3.19 1.963-.79.862-1.19 2.039-1.19 3.53 0 2.039.76 3.58 2.26 4.624 1.53 1.027 3.46 1.541 5.8 1.541zm27.31 4.375v-38.182h5.86v38.182zm2.98-44.545c-1.14 0-2.13-.39-2.96-1.169-.81-.779-1.22-1.715-1.22-2.809 0-1.093.41-2.03 1.22-2.809.83-.779 1.82-1.168 2.96-1.168s2.12.389 2.93 1.168c.83.779 1.25 1.716 1.25 2.809 0 1.094-.42 2.03-1.25 2.809-.81.779-1.79 1.169-2.93 1.169zm19.5 21.576v22.969h-5.87v-38.182h5.67v5.966h.49c.9-1.939 2.26-3.497 4.08-4.673 1.82-1.193 4.18-1.79 7.06-1.79 2.59 0 4.85.53 6.79 1.591 1.94 1.044 3.44 2.635 4.52 4.773 1.08 2.121 1.62 4.806 1.62 8.054v24.261h-5.87v-23.864c0-2.999-.78-5.336-2.34-7.01-1.55-1.69-3.69-2.535-6.41-2.535-1.87 0-3.55.406-5.02 1.218-1.46.812-2.61 1.997-3.46 3.555-.84 1.557-1.26 3.447-1.26 5.667zm51.68-15.213v4.972h-19.79v-4.972zm-14.02-9.148h5.87v36.392c0 1.658.24 2.901.72 3.729.5.812 1.13 1.359 1.89 1.641.78.265 1.6.398 2.46.398.65 0 1.18-.034 1.59-.1.41-.083.75-.149.99-.199l1.2 5.27c-.4.149-.96.298-1.67.448-.71.165-1.61.248-2.71.248-1.65 0-3.28-.356-4.87-1.069-1.57-.712-2.88-1.798-3.93-3.256-1.02-1.458-1.54-3.298-1.54-5.519zm34.08 48.225c-2.42 0-4.61-.456-6.59-1.367-1.97-.928-3.53-2.262-4.69-4.002-1.16-1.757-1.74-3.878-1.74-6.364 0-2.188.43-3.961 1.29-5.32.86-1.375 2.01-2.452 3.45-3.231 1.45-.779 3.04-1.359 4.78-1.74 1.75-.398 3.52-.713 5.29-.945 2.32-.298 4.2-.522 5.64-.671 1.46-.166 2.52-.439 3.19-.82.68-.381 1.02-1.044 1.02-1.989v-.199c0-2.452-.68-4.358-2.02-5.717-1.32-1.359-3.34-2.039-6.04-2.039-2.8 0-4.99.614-6.59 1.84-1.59 1.226-2.71 2.535-3.35 3.928l-5.57-1.989c.99-2.32 2.32-4.127 3.98-5.419 1.67-1.309 3.49-2.221 5.47-2.735 1.98-.53 3.94-.795 5.86-.795 1.23 0 2.64.149 4.23.447 1.61.282 3.16.87 4.65 1.765 1.51.895 2.76 2.246 3.75 4.052.99 1.807 1.49 4.226 1.49 7.259v25.156h-5.86v-5.17h-.3c-.4.828-1.06 1.715-1.99 2.659-.93.945-2.16 1.749-3.71 2.412-1.54.662-3.42.994-5.64.994zm.9-5.27c2.32 0 4.27-.456 5.86-1.367 1.61-.912 2.82-2.088 3.63-3.53.83-1.442 1.25-2.958 1.25-4.549v-5.369c-.25.298-.8.571-1.64.82-.83.232-1.79.439-2.89.621-1.08.166-2.13.315-3.16.448-1.01.116-1.83.215-2.46.298-1.52.199-2.95.522-4.27.97-1.31.43-2.37 1.085-3.18 1.963-.8.862-1.2 2.039-1.2 3.53 0 2.039.76 3.58 2.27 4.624 1.52 1.027 3.45 1.541 5.79 1.541zm27.31 4.375v-38.182h5.87v38.182zm2.98-44.545c-1.14 0-2.13-.39-2.96-1.169-.81-.779-1.21-1.715-1.21-2.809 0-1.093.4-2.03 1.21-2.809.83-.779 1.82-1.168 2.96-1.168 1.15 0 2.12.389 2.94 1.168s1.24 1.716 1.24 2.809c0 1.094-.42 2.03-1.24 2.809s-1.79 1.169-2.94 1.169zm19.5 21.576v22.969h-5.87v-38.182h5.67v5.966h.5c.89-1.939 2.25-3.497 4.07-4.673 1.83-1.193 4.18-1.79 7.06-1.79 2.59 0 4.85.53 6.79 1.591 1.94 1.044 3.45 2.635 4.52 4.773 1.08 2.121 1.62 4.806 1.62 8.054v24.261h-5.87v-23.864c0-2.999-.78-5.336-2.33-7.01-1.56-1.69-3.7-2.535-6.42-2.535-1.87 0-3.54.406-5.02 1.218-1.46.812-2.61 1.997-3.45 3.555-.85 1.557-1.27 3.447-1.27 5.667zm46.31 23.864c-2.42 0-4.61-.456-6.58-1.367-1.98-.928-3.54-2.262-4.7-4.002-1.16-1.757-1.74-3.878-1.74-6.364 0-2.188.43-3.961 1.29-5.32.86-1.375 2.01-2.452 3.46-3.231 1.44-.779 3.03-1.359 4.77-1.74 1.76-.398 3.52-.713 5.29-.945 2.32-.298 4.2-.522 5.65-.671 1.45-.166 2.52-.439 3.18-.82.68-.381 1.02-1.044 1.02-1.989v-.199c0-2.452-.67-4.358-2.02-5.717-1.32-1.359-3.34-2.039-6.04-2.039-2.8 0-4.99.614-6.58 1.84s-2.71 2.535-3.36 3.928l-5.57-1.989c1-2.32 2.32-4.127 3.98-5.419 1.67-1.309 3.5-2.221 5.47-2.735 1.99-.53 3.94-.795 5.86-.795 1.23 0 2.64.149 4.23.447 1.61.282 3.16.87 4.65 1.765 1.51.895 2.76 2.246 3.75 4.052 1 1.807 1.49 4.226 1.49 7.259v25.156h-5.86v-5.17h-.3c-.4.828-1.06 1.715-1.99 2.659-.93.945-2.16 1.749-3.7 2.412-1.54.662-3.43.994-5.65.994zm.9-5.27c2.32 0 4.27-.456 5.87-1.367 1.6-.912 2.81-2.088 3.62-3.53.83-1.442 1.25-2.958 1.25-4.549v-5.369c-.25.298-.8.571-1.64.82-.83.232-1.79.439-2.89.621-1.07.166-2.13.315-3.15.448-1.01.116-1.83.215-2.46.298-1.53.199-2.95.522-4.28.97-1.31.43-2.37 1.085-3.18 1.963-.8.862-1.19 2.039-1.19 3.53 0 2.039.75 3.58 2.26 4.624 1.52 1.027 3.45 1.541 5.79 1.541zm28.11 4.375v-50.909h5.86v18.793h.5c.43-.663 1.03-1.509 1.79-2.536.78-1.044 1.89-1.972 3.33-2.784 1.46-.829 3.43-1.243 5.92-1.243 3.21 0 6.05.804 8.5 2.411 2.45 1.608 4.37 3.886 5.74 6.836 1.38 2.95 2.06 6.43 2.06 10.441 0 4.043-.68 7.548-2.06 10.514-1.37 2.95-3.28 5.237-5.72 6.861-2.43 1.608-5.24 2.411-8.42 2.411-2.46 0-4.42-.406-5.89-1.218-1.48-.828-2.61-1.765-3.41-2.809-.8-1.06-1.41-1.938-1.84-2.634h-.7v5.866zm5.76-19.091c0 2.884.43 5.427 1.27 7.631.85 2.188 2.08 3.903 3.71 5.146 1.62 1.226 3.61 1.84 5.96 1.84 2.45 0 4.5-.647 6.14-1.939 1.66-1.31 2.9-3.066 3.73-5.27.85-2.221 1.27-4.69 1.27-7.408 0-2.685-.42-5.104-1.24-7.258-.82-2.171-2.05-3.887-3.71-5.146-1.64-1.276-3.7-1.914-6.19-1.914-2.38 0-4.39.605-6.01 1.815-1.63 1.193-2.85 2.866-3.68 5.021-.83 2.138-1.25 4.632-1.25 7.482zm36.92 19.091v-38.182h5.86v38.182zm2.98-44.545c-1.14 0-2.13-.39-2.96-1.169-.81-.779-1.21-1.715-1.21-2.809 0-1.093.4-2.03 1.21-2.809.83-.779 1.82-1.168 2.96-1.168s2.12.389 2.93 1.168c.83.779 1.25 1.716 1.25 2.809 0 1.094-.42 2.03-1.25 2.809-.81.779-1.79 1.169-2.93 1.169zm19.5-6.364v50.909h-5.87v-50.909zm10.74 50.909v-38.182h5.87v38.182zm2.98-44.545c-1.14 0-2.13-.39-2.95-1.169s-1.22-1.715-1.22-2.809c0-1.093.4-2.03 1.22-2.809s1.81-1.168 2.95-1.168c1.15 0 2.13.389 2.94 1.168.83.779 1.24 1.716 1.24 2.809 0 1.094-.41 2.03-1.24 2.809-.81.779-1.79 1.169-2.94 1.169zm30.24 6.363v4.972h-19.79v-4.972zm-14.02-9.148h5.86v36.392c0 1.658.24 2.901.72 3.729.5.812 1.13 1.359 1.89 1.641.78.265 1.6.398 2.46.398.65 0 1.18-.034 1.6-.1.41-.083.74-.149.99-.199l1.19 5.27c-.39.149-.95.298-1.66.448-.71.165-1.62.248-2.71.248-1.66 0-3.28-.356-4.87-1.069-1.58-.712-2.89-1.798-3.93-3.256-1.03-1.458-1.54-3.298-1.54-5.519zm26.62 61.648c-.99 0-1.88-.083-2.66-.248-.78-.15-1.32-.299-1.62-.448l1.5-5.17c1.42.364 2.68.497 3.77.397 1.1-.099 2.07-.588 2.91-1.466.86-.862 1.65-2.262 2.36-4.201l1.1-2.983-14.12-38.381h6.36l10.54 30.426h.4l10.54-30.426h6.36l-16.2 43.75c-.73 1.972-1.64 3.605-2.71 4.897-1.08 1.309-2.33 2.279-3.76 2.909-1.41.629-3 .944-4.77.944z"/><path d="m1079.13 509h-6.16c-.37-1.773-1.01-3.331-1.92-4.673-.89-1.343-1.99-2.47-3.28-3.381-1.28-.928-2.69-1.624-4.25-2.088s-3.18-.696-4.87-.696c-3.08 0-5.88.779-8.38 2.337-2.49 1.557-4.47 3.853-5.94 6.885-1.46 3.033-2.19 6.753-2.19 11.161 0 4.409.73 8.129 2.19 11.162 1.47 3.032 3.45 5.328 5.94 6.885 2.5 1.558 5.3 2.337 8.38 2.337 1.69 0 3.31-.232 4.87-.696s2.97-1.152 4.25-2.063c1.29-.928 2.39-2.063 3.28-3.406.91-1.359 1.55-2.916 1.92-4.673h6.16c-.46 2.602-1.31 4.93-2.53 6.985-1.23 2.055-2.76 3.803-4.58 5.245-1.82 1.425-3.87 2.511-6.14 3.256-2.25.746-4.66 1.119-7.23 1.119-4.34 0-8.21-1.061-11.59-3.182s-6.04-5.137-7.98-9.048c-1.93-3.911-2.9-8.551-2.9-13.921 0-5.369.97-10.009 2.9-13.92 1.94-3.911 4.6-6.927 7.98-9.048 3.38-2.122 7.25-3.182 11.59-3.182 2.57 0 4.98.373 7.23 1.118 2.27.746 4.32 1.84 6.14 3.282 1.82 1.425 3.35 3.165 4.58 5.22 1.22 2.038 2.07 4.367 2.53 6.985zm24.68 35.795c-3.45 0-6.47-.82-9.07-2.46-2.59-1.641-4.61-3.936-6.07-6.886-1.44-2.95-2.16-6.397-2.16-10.341 0-3.977.72-7.449 2.16-10.416 1.46-2.966 3.48-5.269 6.07-6.91 2.6-1.641 5.62-2.461 9.07-2.461s6.46.82 9.05 2.461c2.6 1.641 4.62 3.944 6.06 6.91 1.46 2.967 2.19 6.439 2.19 10.416 0 3.944-.73 7.391-2.19 10.341-1.44 2.95-3.46 5.245-6.06 6.886-2.59 1.64-5.6 2.46-9.05 2.46zm0-5.269c2.62 0 4.77-.672 6.46-2.014s2.94-3.107 3.76-5.295c.81-2.187 1.21-4.557 1.21-7.109s-.4-4.93-1.21-7.134c-.82-2.204-2.07-3.986-3.76-5.345s-3.84-2.038-6.46-2.038-4.77.679-6.46 2.038-2.95 3.141-3.76 5.345-1.22 4.582-1.22 7.134.41 4.922 1.22 7.109c.81 2.188 2.07 3.953 3.76 5.295s3.84 2.014 6.46 2.014zm26.25 4.474v-38.182h5.67v5.966h.5c.79-2.038 2.08-3.621 3.85-4.748 1.78-1.143 3.91-1.715 6.39-1.715 2.52 0 4.62.572 6.29 1.715 1.69 1.127 3.01 2.71 3.95 4.748h.4c.98-1.972 2.44-3.538 4.4-4.698 1.96-1.177 4.3-1.765 7.03-1.765 3.42 0 6.21 1.069 8.38 3.207 2.17 2.121 3.26 5.427 3.26 9.918v25.554h-5.87v-25.554c0-2.817-.77-4.831-2.31-6.04-1.54-1.21-3.36-1.815-5.44-1.815-2.69 0-4.77.812-6.24 2.436-1.48 1.607-2.22 3.646-2.22 6.115v24.858h-5.96v-26.151c0-2.17-.71-3.919-2.11-5.245-1.41-1.342-3.23-2.013-5.45-2.013-1.52 0-2.95.406-4.27 1.218-1.31.812-2.37 1.939-3.19 3.381-.79 1.425-1.19 3.074-1.19 4.946v23.864zm60.84 14.318v-52.5h5.67v6.066h.7c.43-.663 1.03-1.509 1.79-2.536.78-1.044 1.89-1.972 3.33-2.784 1.46-.829 3.43-1.243 5.92-1.243 3.21 0 6.04.804 8.5 2.411 2.45 1.608 4.36 3.886 5.74 6.836 1.37 2.95 2.06 6.43 2.06 10.441 0 4.043-.69 7.548-2.06 10.514-1.38 2.95-3.28 5.237-5.72 6.861-2.43 1.608-5.24 2.411-8.43 2.411-2.45 0-4.41-.406-5.89-1.218-1.47-.828-2.61-1.765-3.4-2.809-.8-1.06-1.41-1.938-1.84-2.634h-.5v20.184zm5.77-33.409c0 2.884.42 5.427 1.27 7.631.84 2.188 2.08 3.903 3.7 5.146 1.63 1.226 3.62 1.84 5.97 1.84 2.45 0 4.5-.647 6.14-1.939 1.66-1.31 2.9-3.066 3.73-5.27.84-2.221 1.27-4.69 1.27-7.408 0-2.685-.42-5.104-1.25-7.258-.81-2.171-2.04-3.887-3.7-5.146-1.64-1.276-3.71-1.914-6.19-1.914-2.39 0-4.39.605-6.02 1.815-1.62 1.193-2.85 2.866-3.68 5.021-.82 2.138-1.24 4.632-1.24 7.482zm48.13 19.986c-2.42 0-4.62-.456-6.59-1.367-1.97-.928-3.54-2.262-4.7-4.002-1.16-1.757-1.74-3.878-1.74-6.364 0-2.188.43-3.961 1.29-5.32.87-1.375 2.02-2.452 3.46-3.231s3.03-1.359 4.77-1.74c1.76-.398 3.52-.713 5.3-.945 2.32-.298 4.2-.522 5.64-.671 1.46-.166 2.52-.439 3.18-.82.68-.381 1.02-1.044 1.02-1.989v-.199c0-2.452-.67-4.358-2.01-5.717-1.33-1.359-3.34-2.039-6.04-2.039-2.8 0-5 .614-6.59 1.84s-2.71 2.535-3.36 3.928l-5.57-1.989c1-2.32 2.32-4.127 3.98-5.419 1.68-1.309 3.5-2.221 5.47-2.735 1.99-.53 3.94-.795 5.87-.795 1.22 0 2.63.149 4.22.447 1.61.282 3.16.87 4.65 1.765 1.51.895 2.76 2.246 3.76 4.052.99 1.807 1.49 4.226 1.49 7.259v25.156h-5.87v-5.17h-.3c-.4.828-1.06 1.715-1.99 2.659-.92.945-2.16 1.749-3.7 2.412-1.54.662-3.42.994-5.64.994zm.89-5.27c2.32 0 4.28-.456 5.87-1.367 1.61-.912 2.82-2.088 3.63-3.53.83-1.442 1.24-2.958 1.24-4.549v-5.369c-.25.298-.8.571-1.64.82-.83.232-1.79.439-2.88.621-1.08.166-2.13.315-3.16.448-1.01.116-1.83.215-2.46.298-1.53.199-2.95.522-4.28.97-1.31.43-2.37 1.085-3.18 1.963-.79.862-1.19 2.039-1.19 3.53 0 2.039.75 3.58 2.26 4.624 1.52 1.027 3.45 1.541 5.79 1.541zm43.92-33.807v4.972h-19.79v-4.972zm-14.02-9.148h5.87v36.392c0 1.658.24 2.901.72 3.729.49.812 1.12 1.359 1.89 1.641.77.265 1.6.398 2.46.398.64 0 1.17-.034 1.59-.1.41-.083.74-.149.99-.199l1.2 5.27c-.4.149-.96.298-1.67.448-.71.165-1.62.248-2.71.248-1.66 0-3.28-.356-4.87-1.069-1.58-.712-2.89-1.798-3.93-3.256-1.03-1.458-1.54-3.298-1.54-5.519zm22.84 47.33v-38.182h5.87v38.182zm2.99-44.545c-1.15 0-2.13-.39-2.96-1.169-.81-.779-1.22-1.715-1.22-2.809 0-1.093.41-2.03 1.22-2.809.83-.779 1.81-1.168 2.96-1.168 1.14 0 2.12.389 2.93 1.168.83.779 1.24 1.716 1.24 2.809 0 1.094-.41 2.03-1.24 2.809-.81.779-1.79 1.169-2.93 1.169zm14.42 44.545v-50.909h5.87v18.793h.49c.44-.663 1.03-1.509 1.79-2.536.78-1.044 1.89-1.972 3.33-2.784 1.46-.829 3.44-1.243 5.92-1.243 3.22 0 6.05.804 8.5 2.411 2.46 1.608 4.37 3.886 5.74 6.836 1.38 2.95 2.07 6.43 2.07 10.441 0 4.043-.69 7.548-2.07 10.514-1.37 2.95-3.28 5.237-5.71 6.861-2.44 1.608-5.25 2.411-8.43 2.411-2.45 0-4.42-.406-5.89-1.218-1.48-.828-2.61-1.765-3.41-2.809-.79-1.06-1.4-1.938-1.84-2.634h-.69v5.866zm5.77-19.091c0 2.884.42 5.427 1.27 7.631.84 2.188 2.08 3.903 3.7 5.146 1.62 1.226 3.61 1.84 5.97 1.84 2.45 0 4.49-.647 6.14-1.939 1.65-1.31 2.9-3.066 3.72-5.27.85-2.221 1.27-4.69 1.27-7.408 0-2.685-.41-5.104-1.24-7.258-.81-2.171-2.05-3.887-3.71-5.146-1.64-1.276-3.7-1.914-6.18-1.914-2.39 0-4.4.605-6.02 1.815-1.62 1.193-2.85 2.866-3.68 5.021-.83 2.138-1.24 4.632-1.24 7.482zm36.91 19.091v-38.182h5.87v38.182zm2.98-44.545c-1.14 0-2.12-.39-2.95-1.169-.82-.779-1.22-1.715-1.22-2.809 0-1.093.4-2.03 1.22-2.809.83-.779 1.81-1.168 2.95-1.168 1.15 0 2.13.389 2.94 1.168.83.779 1.24 1.716 1.24 2.809 0 1.094-.41 2.03-1.24 2.809-.81.779-1.79 1.169-2.94 1.169zm19.5-6.364v50.909h-5.87v-50.909zm10.74 50.909v-38.182h5.87v38.182zm2.99-44.545c-1.15 0-2.13-.39-2.96-1.169-.81-.779-1.22-1.715-1.22-2.809 0-1.093.41-2.03 1.22-2.809.83-.779 1.81-1.168 2.96-1.168 1.14 0 2.12.389 2.93 1.168.83.779 1.24 1.716 1.24 2.809 0 1.094-.41 2.03-1.24 2.809-.81.779-1.79 1.169-2.93 1.169zm30.23 6.363v4.972h-19.79v-4.972zm-14.02-9.148h5.87v36.392c0 1.658.24 2.901.72 3.729.5.812 1.13 1.359 1.89 1.641.78.265 1.6.398 2.46.398.64 0 1.17-.034 1.59-.1.41-.083.75-.149.99-.199l1.2 5.27c-.4.149-.96.298-1.67.448-.71.165-1.61.248-2.71.248-1.66 0-3.28-.356-4.87-1.069-1.57-.712-2.88-1.798-3.93-3.256-1.03-1.458-1.54-3.298-1.54-5.519zm26.62 61.648c-.99 0-1.88-.083-2.66-.248-.77-.15-1.31-.299-1.61-.448l1.49-5.17c1.42.364 2.68.497 3.78.397 1.09-.099 2.06-.588 2.91-1.466.86-.862 1.65-2.262 2.36-4.201l1.09-2.983-14.12-38.381h6.37l10.54 30.426h.39l10.54-30.426h6.37l-16.21 43.75c-.73 1.972-1.63 3.605-2.71 4.897-1.08 1.309-2.33 2.279-3.75 2.909-1.41.629-3 .944-4.78.944z"/><path d="m1730.16 194v-50.909h17.21c3.99 0 7.26.721 9.79 2.163 2.55 1.425 4.44 3.355 5.67 5.791 1.22 2.437 1.84 5.154 1.84 8.154 0 2.999-.62 5.725-1.84 8.178-1.21 2.453-3.08 4.408-5.62 5.867-2.54 1.441-5.78 2.162-9.74 2.162h-12.33v-5.468h12.13c2.73 0 4.93-.473 6.58-1.417 1.66-.945 2.86-2.221 3.61-3.829.76-1.624 1.14-3.455 1.14-5.493s-.38-3.861-1.14-5.469c-.75-1.607-1.96-2.867-3.63-3.778-1.67-.928-3.89-1.392-6.66-1.392h-10.84v45.44zm58.74.795c-3.44 0-6.47-.82-9.07-2.46-2.58-1.641-4.61-3.936-6.06-6.886s-2.17-6.397-2.17-10.341c0-3.977.72-7.449 2.17-10.416 1.45-2.966 3.48-5.269 6.06-6.91 2.6-1.641 5.63-2.461 9.07-2.461 3.45 0 6.47.82 9.05 2.461 2.6 1.641 4.63 3.944 6.07 6.91 1.46 2.967 2.19 6.439 2.19 10.416 0 3.944-.73 7.391-2.19 10.341-1.44 2.95-3.47 5.245-6.07 6.886-2.58 1.64-5.6 2.46-9.05 2.46zm0-5.269c2.62 0 4.78-.672 6.47-2.014s2.94-3.107 3.75-5.295c.81-2.187 1.22-4.557 1.22-7.109s-.41-4.93-1.22-7.134-2.06-3.986-3.75-5.345-3.85-2.038-6.47-2.038c-2.61 0-4.77.679-6.46 2.038s-2.94 3.141-3.75 5.345-1.22 4.582-1.22 7.134.41 4.922 1.22 7.109c.81 2.188 2.06 3.953 3.75 5.295s3.85 2.014 6.46 2.014zm26.26 4.474v-38.182h5.67v5.767h.4c.69-1.889 1.95-3.422 3.77-4.598 1.83-1.177 3.88-1.765 6.17-1.765.43 0 .97.008 1.61.024.65.017 1.14.042 1.47.075v5.966c-.2-.05-.65-.124-1.37-.224-.69-.116-1.43-.174-2.21-.174-1.85 0-3.51.39-4.97 1.169-1.44.762-2.59 1.822-3.43 3.181-.83 1.343-1.24 2.876-1.24 4.599v24.162zm45.04-38.182v4.972h-19.78v-4.972zm-14.02-9.148h5.87v36.392c0 1.658.24 2.901.72 3.729.5.812 1.13 1.359 1.89 1.641.78.265 1.6.398 2.46.398.65 0 1.18-.034 1.59-.1.42-.083.75-.149 1-.199l1.19 5.27c-.4.149-.95.298-1.67.448-.71.165-1.61.248-2.71.248-1.65 0-3.28-.356-4.87-1.069-1.57-.712-2.88-1.798-3.93-3.256-1.02-1.458-1.54-3.298-1.54-5.519zm34.08 48.225c-2.42 0-4.61-.456-6.58-1.367-1.98-.928-3.54-2.262-4.7-4.002-1.16-1.757-1.74-3.878-1.74-6.364 0-2.188.43-3.961 1.29-5.32.86-1.375 2.01-2.452 3.46-3.231 1.44-.779 3.03-1.359 4.77-1.74 1.75-.398 3.52-.713 5.29-.945 2.32-.298 4.2-.522 5.65-.671 1.45-.166 2.51-.439 3.18-.82.68-.381 1.02-1.044 1.02-1.989v-.199c0-2.452-.67-4.358-2.02-5.717-1.32-1.359-3.34-2.039-6.04-2.039-2.8 0-4.99.614-6.58 1.84-1.6 1.226-2.71 2.535-3.36 3.928l-5.57-1.989c1-2.32 2.32-4.127 3.98-5.419 1.67-1.309 3.5-2.221 5.47-2.735 1.99-.53 3.94-.795 5.86-.795 1.23 0 2.64.149 4.23.447 1.61.282 3.16.87 4.65 1.765 1.51.895 2.76 2.246 3.75 4.052 1 1.807 1.49 4.226 1.49 7.259v25.156h-5.86v-5.17h-.3c-.4.828-1.06 1.715-1.99 2.659-.93.945-2.16 1.749-3.7 2.412-1.55.662-3.43.994-5.65.994zm.9-5.27c2.32 0 4.27-.456 5.86-1.367 1.61-.912 2.82-2.088 3.63-3.53.83-1.442 1.25-2.958 1.25-4.549v-5.369c-.25.298-.8.571-1.64.82-.83.232-1.79.439-2.89.621-1.07.166-2.13.315-3.15.448-1.02.116-1.84.215-2.47.298-1.52.199-2.95.522-4.27.97-1.31.43-2.37 1.085-3.18 1.963-.8.862-1.2 2.039-1.2 3.53 0 2.039.76 3.58 2.27 4.624 1.52 1.027 3.45 1.541 5.79 1.541zm28.11 4.375v-50.909h5.86v18.793h.5c.43-.663 1.03-1.509 1.79-2.536.78-1.044 1.89-1.972 3.33-2.784 1.46-.829 3.43-1.243 5.92-1.243 3.21 0 6.05.804 8.5 2.411 2.45 1.608 4.37 3.886 5.74 6.836 1.38 2.95 2.06 6.43 2.06 10.441 0 4.043-.68 7.548-2.06 10.514-1.37 2.95-3.28 5.237-5.72 6.861-2.43 1.608-5.24 2.411-8.42 2.411-2.46 0-4.42-.406-5.89-1.218-1.48-.828-2.62-1.765-3.41-2.809-.8-1.06-1.41-1.938-1.84-2.634h-.7v5.866zm5.76-19.091c0 2.884.43 5.427 1.27 7.631.85 2.188 2.08 3.903 3.7 5.146 1.63 1.226 3.62 1.84 5.97 1.84 2.45 0 4.5-.647 6.14-1.939 1.66-1.31 2.9-3.066 3.73-5.27.84-2.221 1.27-4.69 1.27-7.408 0-2.685-.42-5.104-1.25-7.258-.81-2.171-2.04-3.887-3.7-5.146-1.64-1.276-3.7-1.914-6.19-1.914-2.39 0-4.39.605-6.01 1.815-1.63 1.193-2.86 2.866-3.68 5.021-.83 2.138-1.25 4.632-1.25 7.482zm36.92 19.091v-38.182h5.86v38.182zm2.98-44.545c-1.14 0-2.13-.39-2.96-1.169-.81-.779-1.22-1.715-1.22-2.809 0-1.093.41-2.03 1.22-2.809.83-.779 1.82-1.168 2.96-1.168s2.12.389 2.93 1.168c.83.779 1.25 1.716 1.25 2.809 0 1.094-.42 2.03-1.25 2.809-.81.779-1.79 1.169-2.93 1.169zm19.5-6.364v50.909h-5.87v-50.909zm10.74 50.909v-38.182h5.87v38.182zm2.98-44.545c-1.14 0-2.13-.39-2.96-1.169-.81-.779-1.21-1.715-1.21-2.809 0-1.093.4-2.03 1.21-2.809.83-.779 1.82-1.168 2.96-1.168 1.15 0 2.12.389 2.94 1.168s1.24 1.716 1.24 2.809c0 1.094-.42 2.03-1.24 2.809s-1.79 1.169-2.94 1.169zm30.24 6.363v4.972h-19.79v-4.972zm-14.02-9.148h5.86v36.392c0 1.658.24 2.901.72 3.729.5.812 1.13 1.359 1.89 1.641.78.265 1.6.398 2.46.398.65 0 1.18-.034 1.6-.1.41-.083.74-.149.99-.199l1.19 5.27c-.4.149-.95.298-1.66.448-.72.165-1.62.248-2.71.248-1.66 0-3.28-.356-4.87-1.069-1.58-.712-2.89-1.798-3.93-3.256-1.03-1.458-1.54-3.298-1.54-5.519zm26.62 61.648c-.99 0-1.88-.083-2.66-.248-.78-.15-1.32-.299-1.62-.448l1.5-5.17c1.42.364 2.68.497 3.77.397 1.1-.099 2.07-.588 2.91-1.466.86-.862 1.65-2.262 2.36-4.201l1.1-2.983-14.12-38.381h6.36l10.54 30.426h.4l10.54-30.426h6.36l-16.2 43.75c-.73 1.972-1.64 3.605-2.71 4.897-1.08 1.309-2.33 2.279-3.76 2.909-1.41.629-3 .944-4.77.944z"/><path d="m1139.15 436h-11.08l32.04-87.273h10.91l32.05 87.273h-11.08l-26.08-73.466h-.68zm4.09-34.091h44.66v9.375h-44.66zm72.06 34.091v-65.455h9.71v9.887h.69c1.19-3.239 3.35-5.867 6.47-7.884 3.13-2.017 6.65-3.025 10.57-3.025.74 0 1.66.014 2.77.042 1.11.029 1.95.071 2.52.128v10.227c-.35-.085-1.13-.213-2.35-.383-1.19-.199-2.46-.298-3.79-.298-3.18 0-6.02.667-8.52 2.002-2.48 1.307-4.44 3.125-5.88 5.455-1.42 2.301-2.13 4.929-2.13 7.884v41.42zm69.25 1.364c-6.14 0-11.42-1.449-15.86-4.347-4.43-2.898-7.84-6.889-10.22-11.974-2.39-5.086-3.58-10.895-3.58-17.429 0-6.648 1.22-12.515 3.66-17.6 2.47-5.113 5.91-9.105 10.31-11.974 4.44-2.898 9.61-4.347 15.52-4.347 4.6 0 8.74.852 12.44 2.557 3.69 1.705 6.72 4.091 9.07 7.159 2.36 3.068 3.83 6.648 4.39 10.739h-10.05c-.77-2.983-2.47-5.625-5.12-7.926-2.61-2.33-6.13-3.495-10.56-3.495-3.92 0-7.36 1.023-10.32 3.068-2.92 2.017-5.21 4.873-6.86 8.566-1.62 3.665-2.43 7.969-2.43 12.912 0 5.057.8 9.46 2.39 13.21 1.62 3.75 3.89 6.662 6.82 8.736 2.95 2.074 6.42 3.111 10.4 3.111 2.61 0 4.98-.455 7.11-1.364s3.94-2.216 5.41-3.921c1.48-1.704 2.53-3.75 3.16-6.136h10.05c-.56 3.864-1.97 7.344-4.21 10.44-2.22 3.069-5.16 5.512-8.83 7.33-3.63 1.79-7.86 2.685-12.69 2.685zm50.49-40.739v39.375h-10.05v-87.273h10.05v32.046h.85c1.54-3.381 3.84-6.066 6.91-8.054 3.09-2.017 7.21-3.026 12.36-3.026 4.46 0 8.36.895 11.72 2.685 3.35 1.761 5.95 4.474 7.79 8.139 1.88 3.636 2.82 8.267 2.82 13.892v41.591h-10.06v-40.909c0-5.199-1.35-9.219-4.05-12.06-2.67-2.869-6.38-4.304-11.12-4.304-3.3 0-6.25.696-8.87 2.088-2.58 1.392-4.63 3.424-6.13 6.094-1.48 2.671-2.22 5.909-2.22 9.716zm60.84 39.375v-65.455h10.06v65.455zm5.12-76.364c-1.96 0-3.65-.667-5.07-2.002-1.4-1.336-2.09-2.941-2.09-4.816s.69-3.48 2.09-4.815c1.42-1.335 3.11-2.003 5.07-2.003s3.63.668 5.03 2.003c1.42 1.335 2.13 2.94 2.13 4.815s-.71 3.48-2.13 4.816c-1.4 1.335-3.07 2.002-5.03 2.002zm51.83 10.909v8.523h-33.92v-8.523zm-24.04-15.681h10.06v62.386c0 2.841.41 4.972 1.24 6.392.85 1.392 1.93 2.33 3.23 2.813 1.34.454 2.75.681 4.22.681 1.11 0 2.02-.056 2.73-.17.71-.142 1.28-.256 1.7-.341l2.05 9.034c-.68.256-1.63.511-2.86.767-1.22.284-2.77.426-4.64.426-2.84 0-5.63-.611-8.35-1.832-2.7-1.222-4.95-3.082-6.74-5.582-1.76-2.5-2.64-5.654-2.64-9.461zm65.9 82.5c-6.3 0-11.74-1.392-16.32-4.176-4.54-2.813-8.05-6.733-10.52-11.762-2.45-5.057-3.67-10.937-3.67-17.642 0-6.704 1.22-12.614 3.67-17.727 2.47-5.142 5.91-9.148 10.31-12.017 4.43-2.898 9.6-4.347 15.51-4.347 3.41 0 6.78.568 10.1 1.705 3.33 1.136 6.35 2.983 9.08 5.54 2.73 2.528 4.9 5.88 6.52 10.056s2.43 9.318 2.43 15.426v4.262h-50.46v-8.693h40.23c0-3.694-.74-6.989-2.22-9.887-1.45-2.897-3.52-5.184-6.22-6.861-2.67-1.676-5.82-2.514-9.46-2.514-4 0-7.47.995-10.4 2.983-2.89 1.96-5.12 4.517-6.69 7.671-1.56 3.153-2.34 6.534-2.34 10.142v5.795c0 4.943.85 9.134 2.56 12.571 1.73 3.409 4.13 6.009 7.2 7.799 3.07 1.761 6.63 2.642 10.69 2.642 2.65 0 5.03-.37 7.16-1.108 2.16-.767 4.02-1.904 5.59-3.41 1.56-1.534 2.77-3.437 3.62-5.71l9.71 2.728c-1.02 3.295-2.74 6.193-5.15 8.693-2.42 2.471-5.4 4.403-8.95 5.795-3.55 1.364-7.54 2.046-11.98 2.046zm69 0c-6.14 0-11.42-1.449-15.86-4.347-4.43-2.898-7.84-6.889-10.22-11.974-2.39-5.086-3.58-10.895-3.58-17.429 0-6.648 1.22-12.515 3.66-17.6 2.47-5.113 5.91-9.105 10.31-11.974 4.44-2.898 9.61-4.347 15.52-4.347 4.6 0 8.75.852 12.44 2.557s6.72 4.091 9.08 7.159c2.35 3.068 3.82 6.648 4.38 10.739h-10.05c-.77-2.983-2.47-5.625-5.12-7.926-2.61-2.33-6.13-3.495-10.56-3.495-3.92 0-7.36 1.023-10.32 3.068-2.92 2.017-5.21 4.873-6.86 8.566-1.62 3.665-2.43 7.969-2.43 12.912 0 5.057.8 9.46 2.39 13.21 1.62 3.75 3.89 6.662 6.82 8.736 2.95 2.074 6.42 3.111 10.4 3.111 2.61 0 4.98-.455 7.11-1.364s3.94-2.216 5.41-3.921c1.48-1.704 2.53-3.75 3.16-6.136h10.05c-.56 3.864-1.97 7.344-4.21 10.44-2.22 3.069-5.16 5.512-8.83 7.33-3.63 1.79-7.86 2.685-12.69 2.685zm68.9-66.819v8.523h-33.92v-8.523zm-24.03-15.681h10.06v62.386c0 2.841.41 4.972 1.23 6.392.85 1.392 1.93 2.33 3.24 2.813 1.33.454 2.74.681 4.22.681 1.11 0 2.02-.056 2.73-.17.71-.142 1.27-.256 1.7-.341l2.05 9.034c-.69.256-1.64.511-2.86.767-1.22.284-2.77.426-4.64.426-2.85 0-5.63-.611-8.36-1.832-2.7-1.222-4.94-3.082-6.73-5.582-1.76-2.5-2.64-5.654-2.64-9.461zm80.41 54.375v-38.694h10.06v65.455h-10.06v-11.08h-.68c-1.54 3.324-3.92 6.151-7.16 8.481-3.24 2.301-7.33 3.451-12.27 3.451-4.09 0-7.73-.895-10.91-2.684-3.18-1.819-5.68-4.546-7.5-8.182-1.82-3.665-2.73-8.281-2.73-13.85v-41.591h10.06v40.91c0 4.772 1.33 8.579 4 11.42 2.7 2.841 6.14 4.261 10.32 4.261 2.5 0 5.04-.639 7.62-1.917 2.62-1.279 4.8-3.239 6.57-5.881 1.79-2.642 2.68-6.008 2.68-10.099zm28.48 26.761v-65.455h9.71v9.887h.68c1.2-3.239 3.36-5.867 6.48-7.884 3.13-2.017 6.65-3.025 10.57-3.025.74 0 1.66.014 2.77.042 1.11.029 1.95.071 2.51.128v10.227c-.34-.085-1.12-.213-2.34-.383-1.19-.199-2.46-.298-3.79-.298-3.18 0-6.03.667-8.53 2.002-2.47 1.307-4.43 3.125-5.88 5.455-1.42 2.301-2.13 4.929-2.13 7.884v41.42zm70.1 1.364c-6.31 0-11.75-1.392-16.32-4.176-4.55-2.813-8.06-6.733-10.53-11.762-2.44-5.057-3.67-10.937-3.67-17.642 0-6.704 1.23-12.614 3.67-17.727 2.47-5.142 5.91-9.148 10.31-12.017 4.43-2.898 9.6-4.347 15.51-4.347 3.41 0 6.78.568 10.1 1.705 3.33 1.136 6.35 2.983 9.08 5.54 2.73 2.528 4.9 5.88 6.52 10.056s2.43 9.318 2.43 15.426v4.262h-50.46v-8.693h40.23c0-3.694-.74-6.989-2.21-9.887-1.45-2.897-3.53-5.184-6.23-6.861-2.67-1.676-5.82-2.514-9.46-2.514-4 0-7.47.995-10.39 2.983-2.9 1.96-5.13 4.517-6.69 7.671-1.57 3.153-2.35 6.534-2.35 10.142v5.795c0 4.943.85 9.134 2.56 12.571 1.73 3.409 4.13 6.009 7.2 7.799 3.07 1.761 6.63 2.642 10.7 2.642 2.64 0 5.02-.37 7.16-1.108 2.15-.767 4.02-1.904 5.58-3.41 1.56-1.534 2.77-3.437 3.62-5.71l9.72 2.728c-1.03 3.295-2.75 6.193-5.16 8.693-2.42 2.471-5.4 4.403-8.95 5.795-3.55 1.364-7.54 2.046-11.97 2.046z"/></g></svg>