<svg width="1976" height="278" viewBox="0 0 1976 278" fill="none" xmlns="http://www.w3.org/2000/svg">
<path d="M3.52273 221V191.909H20.9659V195.034H7.04545V204.864H19.6591V207.989H7.04545V221H3.52273ZM38.9276 212.08V199.182H42.2798V221H38.9276V217.307H38.7003C38.1889 218.415 37.3935 219.357 36.3139 220.134C35.2344 220.901 33.8707 221.284 32.223 221.284C30.8594 221.284 29.6473 220.986 28.5866 220.389C27.526 219.783 26.6927 218.874 26.0866 217.662C25.4806 216.44 25.1776 214.902 25.1776 213.045V199.182H28.5298V212.818C28.5298 214.409 28.9749 215.678 29.8651 216.625C30.7647 217.572 31.9105 218.045 33.3026 218.045C34.1359 218.045 34.9834 217.832 35.8452 217.406C36.7164 216.98 37.4455 216.327 38.0327 215.446C38.6293 214.565 38.9276 213.443 38.9276 212.08ZM51.772 207.875V221H48.4197V199.182H51.6584V202.591H51.9425C52.4538 201.483 53.2304 200.593 54.272 199.92C55.3137 199.239 56.6584 198.898 58.3061 198.898C59.7834 198.898 61.076 199.201 62.1839 199.807C63.2919 200.403 64.1536 201.312 64.7692 202.534C65.3847 203.746 65.6925 205.28 65.6925 207.136V221H62.3402V207.364C62.3402 205.65 61.8951 204.314 61.005 203.358C60.1148 202.392 58.8932 201.909 57.3402 201.909C56.2701 201.909 55.3137 202.141 54.4709 202.605C53.6375 203.069 52.9794 203.746 52.4964 204.636C52.0135 205.527 51.772 206.606 51.772 207.875ZM80.6818 221.455C78.6364 221.455 76.875 220.972 75.3977 220.006C73.9205 219.04 72.7841 217.709 71.9886 216.014C71.1932 214.319 70.7955 212.383 70.7955 210.205C70.7955 207.989 71.2027 206.033 72.017 204.338C72.8409 202.634 73.9867 201.303 75.4545 200.347C76.9318 199.381 78.6553 198.898 80.625 198.898C82.1591 198.898 83.5417 199.182 84.7727 199.75C86.0038 200.318 87.0123 201.114 87.7983 202.136C88.5843 203.159 89.072 204.352 89.2614 205.716H85.9091C85.6534 204.722 85.0852 203.841 84.2045 203.074C83.3333 202.297 82.1591 201.909 80.6818 201.909C79.375 201.909 78.2292 202.25 77.2443 202.932C76.2689 203.604 75.5066 204.556 74.9574 205.787C74.4176 207.009 74.1477 208.443 74.1477 210.091C74.1477 211.777 74.4129 213.244 74.9432 214.494C75.483 215.744 76.2405 216.715 77.2159 217.406C78.2008 218.098 79.3561 218.443 80.6818 218.443C81.553 218.443 82.3438 218.292 83.054 217.989C83.7642 217.686 84.3655 217.25 84.858 216.682C85.3504 216.114 85.7008 215.432 85.9091 214.636H89.2614C89.072 215.924 88.6032 217.084 87.8551 218.116C87.1165 219.139 86.1364 219.954 84.9148 220.56C83.7027 221.156 82.2917 221.455 80.6818 221.455ZM103.651 199.182V202.023H92.3438V199.182H103.651ZM95.6392 193.955H98.9915V214.75C98.9915 215.697 99.1288 216.407 99.4034 216.881C99.6875 217.345 100.047 217.657 100.483 217.818C100.928 217.97 101.397 218.045 101.889 218.045C102.259 218.045 102.562 218.027 102.798 217.989C103.035 217.941 103.224 217.903 103.366 217.875L104.048 220.886C103.821 220.972 103.504 221.057 103.097 221.142C102.689 221.237 102.173 221.284 101.548 221.284C100.601 221.284 99.6733 221.08 98.7642 220.673C97.8646 220.266 97.1165 219.646 96.5199 218.812C95.9328 217.979 95.6392 216.928 95.6392 215.659V193.955ZM108.693 221V199.182H112.045V221H108.693ZM110.398 195.545C109.744 195.545 109.181 195.323 108.707 194.878C108.243 194.433 108.011 193.898 108.011 193.273C108.011 192.648 108.243 192.113 108.707 191.668C109.181 191.223 109.744 191 110.398 191C111.051 191 111.61 191.223 112.074 191.668C112.547 192.113 112.784 192.648 112.784 193.273C112.784 193.898 112.547 194.433 112.074 194.878C111.61 195.323 111.051 195.545 110.398 195.545ZM127.049 221.455C125.079 221.455 123.351 220.986 121.864 220.048C120.387 219.111 119.232 217.799 118.398 216.114C117.575 214.428 117.163 212.458 117.163 210.205C117.163 207.932 117.575 205.948 118.398 204.253C119.232 202.558 120.387 201.241 121.864 200.304C123.351 199.366 125.079 198.898 127.049 198.898C129.019 198.898 130.742 199.366 132.219 200.304C133.706 201.241 134.862 202.558 135.685 204.253C136.519 205.948 136.935 207.932 136.935 210.205C136.935 212.458 136.519 214.428 135.685 216.114C134.862 217.799 133.706 219.111 132.219 220.048C130.742 220.986 129.019 221.455 127.049 221.455ZM127.049 218.443C128.545 218.443 129.776 218.06 130.742 217.293C131.708 216.526 132.423 215.517 132.887 214.267C133.351 213.017 133.583 211.663 133.583 210.205C133.583 208.746 133.351 207.387 132.887 206.128C132.423 204.868 131.708 203.85 130.742 203.074C129.776 202.297 128.545 201.909 127.049 201.909C125.553 201.909 124.322 202.297 123.356 203.074C122.39 203.85 121.675 204.868 121.211 206.128C120.747 207.387 120.515 208.746 120.515 210.205C120.515 211.663 120.747 213.017 121.211 214.267C121.675 215.517 122.39 216.526 123.356 217.293C124.322 218.06 125.553 218.443 127.049 218.443ZM145.405 207.875V221H142.053V199.182H145.291V202.591H145.575C146.087 201.483 146.863 200.593 147.905 199.92C148.946 199.239 150.291 198.898 151.939 198.898C153.416 198.898 154.709 199.201 155.817 199.807C156.925 200.403 157.786 201.312 158.402 202.534C159.018 203.746 159.325 205.28 159.325 207.136V221H155.973V207.364C155.973 205.65 155.528 204.314 154.638 203.358C153.748 202.392 152.526 201.909 150.973 201.909C149.903 201.909 148.946 202.141 148.104 202.605C147.27 203.069 146.612 203.746 146.129 204.636C145.646 205.527 145.405 206.606 145.405 207.875ZM171.871 221.511C170.489 221.511 169.234 221.251 168.107 220.73C166.98 220.2 166.085 219.438 165.423 218.443C164.76 217.439 164.428 216.227 164.428 214.807C164.428 213.557 164.674 212.544 165.167 211.767C165.659 210.981 166.317 210.366 167.141 209.92C167.965 209.475 168.874 209.144 169.869 208.926C170.872 208.699 171.881 208.519 172.894 208.386C174.22 208.216 175.295 208.088 176.119 208.003C176.952 207.908 177.558 207.752 177.937 207.534C178.325 207.316 178.519 206.937 178.519 206.398V206.284C178.519 204.883 178.136 203.794 177.369 203.017C176.611 202.241 175.46 201.852 173.917 201.852C172.317 201.852 171.062 202.203 170.153 202.903C169.244 203.604 168.604 204.352 168.235 205.148L165.053 204.011C165.621 202.686 166.379 201.653 167.326 200.915C168.282 200.167 169.324 199.646 170.451 199.352C171.587 199.049 172.705 198.898 173.803 198.898C174.504 198.898 175.309 198.983 176.218 199.153C177.137 199.314 178.022 199.651 178.874 200.162C179.736 200.673 180.451 201.445 181.019 202.477C181.587 203.509 181.871 204.892 181.871 206.625V221H178.519V218.045H178.349C178.121 218.519 177.743 219.026 177.212 219.565C176.682 220.105 175.977 220.564 175.096 220.943C174.215 221.322 173.14 221.511 171.871 221.511ZM172.383 218.5C173.709 218.5 174.826 218.24 175.735 217.719C176.654 217.198 177.345 216.526 177.809 215.702C178.282 214.878 178.519 214.011 178.519 213.102V210.034C178.377 210.205 178.065 210.361 177.582 210.503C177.108 210.635 176.559 210.754 175.934 210.858C175.318 210.953 174.717 211.038 174.13 211.114C173.552 211.18 173.084 211.237 172.724 211.284C171.853 211.398 171.038 211.582 170.281 211.838C169.532 212.084 168.926 212.458 168.462 212.96C168.008 213.453 167.781 214.125 167.781 214.977C167.781 216.142 168.211 217.023 169.073 217.619C169.944 218.206 171.048 218.5 172.383 218.5ZM191.342 191.909V221H187.99V191.909H191.342ZM197.482 221V199.182H200.835V221H197.482ZM199.187 195.545C198.533 195.545 197.97 195.323 197.496 194.878C197.032 194.433 196.8 193.898 196.8 193.273C196.8 192.648 197.032 192.113 197.496 191.668C197.97 191.223 198.533 191 199.187 191C199.84 191 200.399 191.223 200.863 191.668C201.336 192.113 201.573 192.648 201.573 193.273C201.573 193.898 201.336 194.433 200.863 194.878C200.399 195.323 199.84 195.545 199.187 195.545ZM216.463 199.182V202.023H205.156V199.182H216.463ZM208.452 193.955H211.804V214.75C211.804 215.697 211.941 216.407 212.216 216.881C212.5 217.345 212.86 217.657 213.295 217.818C213.741 217.97 214.209 218.045 214.702 218.045C215.071 218.045 215.374 218.027 215.611 217.989C215.848 217.941 216.037 217.903 216.179 217.875L216.861 220.886C216.634 220.972 216.316 221.057 215.909 221.142C215.502 221.237 214.986 221.284 214.361 221.284C213.414 221.284 212.486 221.08 211.577 220.673C210.677 220.266 209.929 219.646 209.332 218.812C208.745 217.979 208.452 216.928 208.452 215.659V193.955ZM223.665 229.182C223.097 229.182 222.59 229.134 222.145 229.04C221.7 228.955 221.392 228.869 221.222 228.784L222.074 225.83C222.888 226.038 223.608 226.114 224.233 226.057C224.858 226 225.412 225.721 225.895 225.219C226.387 224.726 226.837 223.926 227.244 222.818L227.869 221.114L219.801 199.182H223.438L229.46 216.568H229.688L235.71 199.182H239.347L230.085 224.182C229.669 225.309 229.152 226.241 228.537 226.98C227.921 227.728 227.206 228.282 226.392 228.642C225.587 229.002 224.678 229.182 223.665 229.182ZM274.567 191.909H278.089V211.17C278.089 213.159 277.621 214.935 276.683 216.497C275.755 218.05 274.444 219.277 272.749 220.176C271.054 221.066 269.065 221.511 266.783 221.511C264.5 221.511 262.512 221.066 260.817 220.176C259.122 219.277 257.805 218.05 256.868 216.497C255.94 214.935 255.476 213.159 255.476 211.17V191.909H258.999V210.886C258.999 212.307 259.311 213.571 259.936 214.679C260.561 215.777 261.451 216.644 262.607 217.278C263.771 217.903 265.163 218.216 266.783 218.216C268.402 218.216 269.794 217.903 270.959 217.278C272.124 216.644 273.014 215.777 273.629 214.679C274.254 213.571 274.567 212.307 274.567 210.886V191.909ZM300.124 204.068L297.113 204.92C296.924 204.419 296.644 203.931 296.275 203.457C295.915 202.974 295.423 202.577 294.798 202.264C294.173 201.952 293.372 201.795 292.397 201.795C291.062 201.795 289.949 202.103 289.059 202.719C288.178 203.325 287.738 204.097 287.738 205.034C287.738 205.867 288.041 206.526 288.647 207.009C289.253 207.491 290.2 207.894 291.488 208.216L294.727 209.011C296.677 209.485 298.131 210.209 299.087 211.185C300.044 212.151 300.522 213.396 300.522 214.92C300.522 216.17 300.162 217.288 299.442 218.273C298.732 219.258 297.738 220.034 296.46 220.602C295.181 221.17 293.694 221.455 291.999 221.455C289.774 221.455 287.932 220.972 286.474 220.006C285.015 219.04 284.092 217.629 283.704 215.773L286.886 214.977C287.189 216.152 287.762 217.032 288.604 217.619C289.457 218.206 290.569 218.5 291.942 218.5C293.505 218.5 294.746 218.169 295.664 217.506C296.592 216.833 297.056 216.028 297.056 215.091C297.056 214.333 296.791 213.699 296.261 213.188C295.73 212.667 294.916 212.278 293.817 212.023L290.181 211.17C288.183 210.697 286.715 209.963 285.778 208.969C284.85 207.965 284.386 206.71 284.386 205.205C284.386 203.973 284.731 202.884 285.423 201.938C286.123 200.991 287.075 200.247 288.278 199.707C289.49 199.168 290.863 198.898 292.397 198.898C294.556 198.898 296.251 199.371 297.482 200.318C298.723 201.265 299.603 202.515 300.124 204.068ZM311.989 221.511C310.606 221.511 309.351 221.251 308.224 220.73C307.098 220.2 306.203 219.438 305.54 218.443C304.877 217.439 304.545 216.227 304.545 214.807C304.545 213.557 304.792 212.544 305.284 211.767C305.777 210.981 306.435 210.366 307.259 209.92C308.082 209.475 308.991 209.144 309.986 208.926C310.99 208.699 311.998 208.519 313.011 208.386C314.337 208.216 315.412 208.088 316.236 208.003C317.069 207.908 317.675 207.752 318.054 207.534C318.442 207.316 318.636 206.937 318.636 206.398V206.284C318.636 204.883 318.253 203.794 317.486 203.017C316.728 202.241 315.578 201.852 314.034 201.852C312.434 201.852 311.179 202.203 310.27 202.903C309.361 203.604 308.722 204.352 308.352 205.148L305.17 204.011C305.739 202.686 306.496 201.653 307.443 200.915C308.4 200.167 309.441 199.646 310.568 199.352C311.705 199.049 312.822 198.898 313.92 198.898C314.621 198.898 315.426 198.983 316.335 199.153C317.254 199.314 318.139 199.651 318.991 200.162C319.853 200.673 320.568 201.445 321.136 202.477C321.705 203.509 321.989 204.892 321.989 206.625V221H318.636V218.045H318.466C318.239 218.519 317.86 219.026 317.33 219.565C316.799 220.105 316.094 220.564 315.213 220.943C314.332 221.322 313.258 221.511 311.989 221.511ZM312.5 218.5C313.826 218.5 314.943 218.24 315.852 217.719C316.771 217.198 317.462 216.526 317.926 215.702C318.4 214.878 318.636 214.011 318.636 213.102V210.034C318.494 210.205 318.182 210.361 317.699 210.503C317.225 210.635 316.676 210.754 316.051 210.858C315.436 210.953 314.834 211.038 314.247 211.114C313.67 211.18 313.201 211.237 312.841 211.284C311.97 211.398 311.155 211.582 310.398 211.838C309.65 212.084 309.044 212.458 308.58 212.96C308.125 213.453 307.898 214.125 307.898 214.977C307.898 216.142 308.329 217.023 309.19 217.619C310.062 218.206 311.165 218.5 312.5 218.5ZM328.562 221V191.909H331.914V202.648H332.198C332.444 202.269 332.785 201.786 333.221 201.199C333.666 200.602 334.3 200.072 335.124 199.608C335.958 199.134 337.085 198.898 338.505 198.898C340.342 198.898 341.961 199.357 343.363 200.276C344.764 201.194 345.858 202.496 346.644 204.182C347.43 205.867 347.823 207.856 347.823 210.148C347.823 212.458 347.43 214.461 346.644 216.156C345.858 217.842 344.769 219.149 343.377 220.077C341.985 220.995 340.38 221.455 338.562 221.455C337.16 221.455 336.038 221.223 335.195 220.759C334.353 220.285 333.704 219.75 333.249 219.153C332.795 218.547 332.444 218.045 332.198 217.648H331.8V221H328.562ZM331.857 210.091C331.857 211.739 332.099 213.192 332.582 214.452C333.065 215.702 333.77 216.682 334.698 217.392C335.626 218.093 336.763 218.443 338.107 218.443C339.509 218.443 340.678 218.074 341.616 217.335C342.563 216.587 343.273 215.583 343.746 214.324C344.229 213.055 344.471 211.644 344.471 210.091C344.471 208.557 344.234 207.174 343.761 205.943C343.297 204.703 342.591 203.723 341.644 203.003C340.707 202.274 339.528 201.909 338.107 201.909C336.744 201.909 335.598 202.255 334.67 202.946C333.742 203.628 333.041 204.584 332.567 205.815C332.094 207.037 331.857 208.462 331.857 210.091ZM352.951 221V199.182H356.303V221H352.951ZM354.656 195.545C354.002 195.545 353.439 195.323 352.965 194.878C352.501 194.433 352.269 193.898 352.269 193.273C352.269 192.648 352.501 192.113 352.965 191.668C353.439 191.223 354.002 191 354.656 191C355.309 191 355.868 191.223 356.332 191.668C356.805 192.113 357.042 192.648 357.042 193.273C357.042 193.898 356.805 194.433 356.332 194.878C355.868 195.323 355.309 195.545 354.656 195.545ZM365.795 191.909V221H362.443V191.909H365.795ZM371.935 221V199.182H375.288V221H371.935ZM373.64 195.545C372.987 195.545 372.423 195.323 371.95 194.878C371.486 194.433 371.254 193.898 371.254 193.273C371.254 192.648 371.486 192.113 371.95 191.668C372.423 191.223 372.987 191 373.64 191C374.293 191 374.852 191.223 375.316 191.668C375.79 192.113 376.026 192.648 376.026 193.273C376.026 193.898 375.79 194.433 375.316 194.878C374.852 195.323 374.293 195.545 373.64 195.545ZM390.916 199.182V202.023H379.609V199.182H390.916ZM382.905 193.955H386.257V214.75C386.257 215.697 386.394 216.407 386.669 216.881C386.953 217.345 387.313 217.657 387.749 217.818C388.194 217.97 388.662 218.045 389.155 218.045C389.524 218.045 389.827 218.027 390.064 217.989C390.301 217.941 390.49 217.903 390.632 217.875L391.314 220.886C391.087 220.972 390.769 221.057 390.362 221.142C389.955 221.237 389.439 221.284 388.814 221.284C387.867 221.284 386.939 221.08 386.03 220.673C385.13 220.266 384.382 219.646 383.786 218.812C383.198 217.979 382.905 216.928 382.905 215.659V193.955ZM398.118 229.182C397.55 229.182 397.043 229.134 396.598 229.04C396.153 228.955 395.845 228.869 395.675 228.784L396.527 225.83C397.341 226.038 398.061 226.114 398.686 226.057C399.311 226 399.865 225.721 400.348 225.219C400.84 224.726 401.29 223.926 401.697 222.818L402.322 221.114L394.254 199.182H397.891L403.913 216.568H404.141L410.163 199.182H413.8L404.538 224.182C404.122 225.309 403.606 226.241 402.99 226.98C402.375 227.728 401.66 228.282 400.845 228.642C400.04 229.002 399.131 229.182 398.118 229.182ZM429.929 191.909H434.134L444.02 216.057H444.361L454.247 191.909H458.452V221H455.156V198.898H454.872L445.781 221H442.599L433.509 198.898H433.224V221H429.929V191.909ZM471.481 221.511C470.098 221.511 468.844 221.251 467.717 220.73C466.59 220.2 465.695 219.438 465.032 218.443C464.369 217.439 464.038 216.227 464.038 214.807C464.038 213.557 464.284 212.544 464.776 211.767C465.269 210.981 465.927 210.366 466.751 209.92C467.575 209.475 468.484 209.144 469.478 208.926C470.482 208.699 471.49 208.519 472.504 208.386C473.829 208.216 474.904 208.088 475.728 208.003C476.561 207.908 477.167 207.752 477.546 207.534C477.934 207.316 478.129 206.937 478.129 206.398V206.284C478.129 204.883 477.745 203.794 476.978 203.017C476.22 202.241 475.07 201.852 473.526 201.852C471.926 201.852 470.671 202.203 469.762 202.903C468.853 203.604 468.214 204.352 467.844 205.148L464.663 204.011C465.231 202.686 465.988 201.653 466.935 200.915C467.892 200.167 468.933 199.646 470.06 199.352C471.197 199.049 472.314 198.898 473.413 198.898C474.113 198.898 474.918 198.983 475.827 199.153C476.746 199.314 477.631 199.651 478.484 200.162C479.345 200.673 480.06 201.445 480.629 202.477C481.197 203.509 481.481 204.892 481.481 206.625V221H478.129V218.045H477.958C477.731 218.519 477.352 219.026 476.822 219.565C476.291 220.105 475.586 220.564 474.705 220.943C473.825 221.322 472.75 221.511 471.481 221.511ZM471.992 218.5C473.318 218.5 474.435 218.24 475.344 217.719C476.263 217.198 476.954 216.526 477.418 215.702C477.892 214.878 478.129 214.011 478.129 213.102V210.034C477.987 210.205 477.674 210.361 477.191 210.503C476.718 210.635 476.168 210.754 475.543 210.858C474.928 210.953 474.326 211.038 473.739 211.114C473.162 211.18 472.693 211.237 472.333 211.284C471.462 211.398 470.647 211.582 469.89 211.838C469.142 212.084 468.536 212.458 468.072 212.96C467.617 213.453 467.39 214.125 467.39 214.977C467.39 216.142 467.821 217.023 468.683 217.619C469.554 218.206 470.657 218.5 471.992 218.5ZM487.599 221V199.182H490.952V221H487.599ZM489.304 195.545C488.651 195.545 488.087 195.323 487.614 194.878C487.15 194.433 486.918 193.898 486.918 193.273C486.918 192.648 487.15 192.113 487.614 191.668C488.087 191.223 488.651 191 489.304 191C489.957 191 490.516 191.223 490.98 191.668C491.454 192.113 491.69 192.648 491.69 193.273C491.69 193.898 491.454 194.433 490.98 194.878C490.516 195.323 489.957 195.545 489.304 195.545ZM500.444 207.875V221H497.092V199.182H500.33V202.591H500.614C501.126 201.483 501.902 200.593 502.944 199.92C503.986 199.239 505.33 198.898 506.978 198.898C508.455 198.898 509.748 199.201 510.856 199.807C511.964 200.403 512.826 201.312 513.441 202.534C514.057 203.746 514.364 205.28 514.364 207.136V221H511.012V207.364C511.012 205.65 510.567 204.314 509.677 203.358C508.787 202.392 507.565 201.909 506.012 201.909C504.942 201.909 503.986 202.141 503.143 202.605C502.309 203.069 501.651 203.746 501.168 204.636C500.685 205.527 500.444 206.606 500.444 207.875ZM529.979 199.182V202.023H518.672V199.182H529.979ZM521.967 193.955H525.32V214.75C525.32 215.697 525.457 216.407 525.732 216.881C526.016 217.345 526.375 217.657 526.811 217.818C527.256 217.97 527.725 218.045 528.217 218.045C528.587 218.045 528.89 218.027 529.126 217.989C529.363 217.941 529.553 217.903 529.695 217.875L530.376 220.886C530.149 220.972 529.832 221.057 529.425 221.142C529.018 221.237 528.501 221.284 527.876 221.284C526.929 221.284 526.001 221.08 525.092 220.673C524.193 220.266 523.445 219.646 522.848 218.812C522.261 217.979 521.967 216.928 521.967 215.659V193.955ZM541.442 221.511C540.059 221.511 538.804 221.251 537.678 220.73C536.551 220.2 535.656 219.438 534.993 218.443C534.33 217.439 533.999 216.227 533.999 214.807C533.999 213.557 534.245 212.544 534.737 211.767C535.23 210.981 535.888 210.366 536.712 209.92C537.536 209.475 538.445 209.144 539.439 208.926C540.443 208.699 541.451 208.519 542.464 208.386C543.79 208.216 544.865 208.088 545.689 208.003C546.522 207.908 547.128 207.752 547.507 207.534C547.895 207.316 548.089 206.937 548.089 206.398V206.284C548.089 204.883 547.706 203.794 546.939 203.017C546.181 202.241 545.031 201.852 543.487 201.852C541.887 201.852 540.632 202.203 539.723 202.903C538.814 203.604 538.175 204.352 537.805 205.148L534.624 204.011C535.192 202.686 535.949 201.653 536.896 200.915C537.853 200.167 538.894 199.646 540.021 199.352C541.158 199.049 542.275 198.898 543.374 198.898C544.074 198.898 544.879 198.983 545.788 199.153C546.707 199.314 547.592 199.651 548.445 200.162C549.306 200.673 550.021 201.445 550.589 202.477C551.158 203.509 551.442 204.892 551.442 206.625V221H548.089V218.045H547.919C547.692 218.519 547.313 219.026 546.783 219.565C546.252 220.105 545.547 220.564 544.666 220.943C543.786 221.322 542.711 221.511 541.442 221.511ZM541.953 218.5C543.279 218.5 544.396 218.24 545.305 217.719C546.224 217.198 546.915 216.526 547.379 215.702C547.853 214.878 548.089 214.011 548.089 213.102V210.034C547.947 210.205 547.635 210.361 547.152 210.503C546.679 210.635 546.129 210.754 545.504 210.858C544.889 210.953 544.287 211.038 543.7 211.114C543.123 211.18 542.654 211.237 542.294 211.284C541.423 211.398 540.608 211.582 539.851 211.838C539.103 212.084 538.497 212.458 538.033 212.96C537.578 213.453 537.351 214.125 537.351 214.977C537.351 216.142 537.782 217.023 538.643 217.619C539.515 218.206 540.618 218.5 541.953 218.5ZM557.56 221V199.182H560.913V221H557.56ZM559.265 195.545C558.612 195.545 558.048 195.323 557.575 194.878C557.111 194.433 556.879 193.898 556.879 193.273C556.879 192.648 557.111 192.113 557.575 191.668C558.048 191.223 558.612 191 559.265 191C559.918 191 560.477 191.223 560.941 191.668C561.415 192.113 561.651 192.648 561.651 193.273C561.651 193.898 561.415 194.433 560.941 194.878C560.477 195.323 559.918 195.545 559.265 195.545ZM570.405 207.875V221H567.053V199.182H570.291V202.591H570.575C571.087 201.483 571.863 200.593 572.905 199.92C573.946 199.239 575.291 198.898 576.939 198.898C578.416 198.898 579.709 199.201 580.817 199.807C581.925 200.403 582.786 201.312 583.402 202.534C584.018 203.746 584.325 205.28 584.325 207.136V221H580.973V207.364C580.973 205.65 580.528 204.314 579.638 203.358C578.748 202.392 577.526 201.909 575.973 201.909C574.903 201.909 573.946 202.141 573.104 202.605C572.27 203.069 571.612 203.746 571.129 204.636C570.646 205.527 570.405 206.606 570.405 207.875ZM596.871 221.511C595.489 221.511 594.234 221.251 593.107 220.73C591.98 220.2 591.085 219.438 590.423 218.443C589.76 217.439 589.428 216.227 589.428 214.807C589.428 213.557 589.674 212.544 590.167 211.767C590.659 210.981 591.317 210.366 592.141 209.92C592.965 209.475 593.874 209.144 594.869 208.926C595.872 208.699 596.881 208.519 597.894 208.386C599.22 208.216 600.295 208.088 601.119 208.003C601.952 207.908 602.558 207.752 602.937 207.534C603.325 207.316 603.519 206.937 603.519 206.398V206.284C603.519 204.883 603.136 203.794 602.369 203.017C601.611 202.241 600.46 201.852 598.917 201.852C597.317 201.852 596.062 202.203 595.153 202.903C594.244 203.604 593.604 204.352 593.235 205.148L590.053 204.011C590.621 202.686 591.379 201.653 592.326 200.915C593.282 200.167 594.324 199.646 595.451 199.352C596.587 199.049 597.705 198.898 598.803 198.898C599.504 198.898 600.309 198.983 601.218 199.153C602.137 199.314 603.022 199.651 603.874 200.162C604.736 200.673 605.451 201.445 606.019 202.477C606.587 203.509 606.871 204.892 606.871 206.625V221H603.519V218.045H603.349C603.121 218.519 602.743 219.026 602.212 219.565C601.682 220.105 600.977 220.564 600.096 220.943C599.215 221.322 598.14 221.511 596.871 221.511ZM597.383 218.5C598.709 218.5 599.826 218.24 600.735 217.719C601.654 217.198 602.345 216.526 602.809 215.702C603.282 214.878 603.519 214.011 603.519 213.102V210.034C603.377 210.205 603.065 210.361 602.582 210.503C602.108 210.635 601.559 210.754 600.934 210.858C600.318 210.953 599.717 211.038 599.13 211.114C598.552 211.18 598.084 211.237 597.724 211.284C596.853 211.398 596.038 211.582 595.281 211.838C594.532 212.084 593.926 212.458 593.462 212.96C593.008 213.453 592.781 214.125 592.781 214.977C592.781 216.142 593.211 217.023 594.073 217.619C594.944 218.206 596.048 218.5 597.383 218.5ZM613.445 221V191.909H616.797V202.648H617.081C617.327 202.269 617.668 201.786 618.104 201.199C618.549 200.602 619.183 200.072 620.007 199.608C620.84 199.134 621.967 198.898 623.388 198.898C625.225 198.898 626.844 199.357 628.246 200.276C629.647 201.194 630.741 202.496 631.527 204.182C632.313 205.867 632.706 207.856 632.706 210.148C632.706 212.458 632.313 214.461 631.527 216.156C630.741 217.842 629.652 219.149 628.26 220.077C626.868 220.995 625.263 221.455 623.445 221.455C622.043 221.455 620.921 221.223 620.078 220.759C619.235 220.285 618.587 219.75 618.132 219.153C617.678 218.547 617.327 218.045 617.081 217.648H616.683V221H613.445ZM616.74 210.091C616.74 211.739 616.982 213.192 617.464 214.452C617.947 215.702 618.653 216.682 619.581 217.392C620.509 218.093 621.645 218.443 622.99 218.443C624.392 218.443 625.561 218.074 626.499 217.335C627.446 216.587 628.156 215.583 628.629 214.324C629.112 213.055 629.354 211.644 629.354 210.091C629.354 208.557 629.117 207.174 628.643 205.943C628.179 204.703 627.474 203.723 626.527 203.003C625.589 202.274 624.411 201.909 622.99 201.909C621.626 201.909 620.481 202.255 619.553 202.946C618.625 203.628 617.924 204.584 617.45 205.815C616.977 207.037 616.74 208.462 616.74 210.091ZM637.834 221V199.182H641.186V221H637.834ZM639.538 195.545C638.885 195.545 638.321 195.323 637.848 194.878C637.384 194.433 637.152 193.898 637.152 193.273C637.152 192.648 637.384 192.113 637.848 191.668C638.321 191.223 638.885 191 639.538 191C640.192 191 640.75 191.223 641.214 191.668C641.688 192.113 641.925 192.648 641.925 193.273C641.925 193.898 641.688 194.433 641.214 194.878C640.75 195.323 640.192 195.545 639.538 195.545ZM650.678 191.909V221H647.326V191.909H650.678ZM656.818 221V199.182H660.17V221H656.818ZM658.523 195.545C657.869 195.545 657.306 195.323 656.832 194.878C656.368 194.433 656.136 193.898 656.136 193.273C656.136 192.648 656.368 192.113 656.832 191.668C657.306 191.223 657.869 191 658.523 191C659.176 191 659.735 191.223 660.199 191.668C660.672 192.113 660.909 192.648 660.909 193.273C660.909 193.898 660.672 194.433 660.199 194.878C659.735 195.323 659.176 195.545 658.523 195.545ZM675.799 199.182V202.023H664.492V199.182H675.799ZM667.788 193.955H671.14V214.75C671.14 215.697 671.277 216.407 671.552 216.881C671.836 217.345 672.196 217.657 672.631 217.818C673.076 217.97 673.545 218.045 674.038 218.045C674.407 218.045 674.71 218.027 674.947 217.989C675.183 217.941 675.373 217.903 675.515 217.875L676.197 220.886C675.969 220.972 675.652 221.057 675.245 221.142C674.838 221.237 674.322 221.284 673.697 221.284C672.75 221.284 671.822 221.08 670.913 220.673C670.013 220.266 669.265 219.646 668.668 218.812C668.081 217.979 667.788 216.928 667.788 215.659V193.955ZM683.001 229.182C682.433 229.182 681.926 229.134 681.481 229.04C681.036 228.955 680.728 228.869 680.558 228.784L681.41 225.83C682.224 226.038 682.944 226.114 683.569 226.057C684.194 226 684.748 225.721 685.231 225.219C685.723 224.726 686.173 223.926 686.58 222.818L687.205 221.114L679.137 199.182H682.773L688.796 216.568H689.023L695.046 199.182H698.683L689.421 224.182C689.004 225.309 688.488 226.241 687.873 226.98C687.257 227.728 686.542 228.282 685.728 228.642C684.923 229.002 684.014 229.182 683.001 229.182ZM714.812 221V191.909H724.641C726.914 191.909 728.78 192.297 730.238 193.074C731.696 193.841 732.776 194.897 733.477 196.241C734.177 197.586 734.528 199.116 734.528 200.83C734.528 202.544 734.177 204.063 733.477 205.389C732.776 206.715 731.701 207.757 730.252 208.514C728.803 209.262 726.952 209.636 724.698 209.636H716.744V206.455H724.585C726.138 206.455 727.388 206.227 728.335 205.773C729.291 205.318 729.982 204.674 730.408 203.841C730.844 202.998 731.062 201.994 731.062 200.83C731.062 199.665 730.844 198.647 730.408 197.776C729.973 196.904 729.277 196.232 728.32 195.759C727.364 195.276 726.1 195.034 724.528 195.034H718.335V221H714.812ZM728.505 207.932L735.664 221H731.573L724.528 207.932H728.505ZM748.857 221.455C746.754 221.455 744.941 220.991 743.416 220.062C741.901 219.125 740.732 217.818 739.908 216.142C739.093 214.456 738.686 212.496 738.686 210.261C738.686 208.027 739.093 206.057 739.908 204.352C740.732 202.638 741.877 201.303 743.345 200.347C744.822 199.381 746.546 198.898 748.516 198.898C749.652 198.898 750.774 199.087 751.882 199.466C752.99 199.845 753.999 200.46 754.908 201.312C755.817 202.155 756.541 203.273 757.081 204.665C757.621 206.057 757.891 207.771 757.891 209.807V211.227H741.072V208.33H754.482C754.482 207.098 754.235 206 753.743 205.034C753.26 204.068 752.569 203.306 751.669 202.747C750.779 202.188 749.728 201.909 748.516 201.909C747.18 201.909 746.025 202.241 745.05 202.903C744.084 203.557 743.34 204.409 742.82 205.46C742.299 206.511 742.038 207.638 742.038 208.841V210.773C742.038 212.42 742.322 213.817 742.891 214.963C743.468 216.099 744.268 216.966 745.291 217.562C746.314 218.15 747.502 218.443 748.857 218.443C749.737 218.443 750.533 218.32 751.243 218.074C751.963 217.818 752.583 217.439 753.104 216.938C753.625 216.426 754.027 215.792 754.311 215.034L757.55 215.943C757.209 217.042 756.636 218.008 755.831 218.841C755.026 219.665 754.032 220.309 752.848 220.773C751.664 221.227 750.334 221.455 748.857 221.455ZM766.342 191.909V221H762.99V191.909H766.342ZM772.482 221V199.182H775.835V221H772.482ZM774.187 195.545C773.533 195.545 772.97 195.323 772.496 194.878C772.032 194.433 771.8 193.898 771.8 193.273C771.8 192.648 772.032 192.113 772.496 191.668C772.97 191.223 773.533 191 774.187 191C774.84 191 775.399 191.223 775.863 191.668C776.336 192.113 776.573 192.648 776.573 193.273C776.573 193.898 776.336 194.433 775.863 194.878C775.399 195.323 774.84 195.545 774.187 195.545ZM788.395 221.511C787.012 221.511 785.758 221.251 784.631 220.73C783.504 220.2 782.609 219.438 781.946 218.443C781.283 217.439 780.952 216.227 780.952 214.807C780.952 213.557 781.198 212.544 781.69 211.767C782.183 210.981 782.841 210.366 783.665 209.92C784.489 209.475 785.398 209.144 786.392 208.926C787.396 208.699 788.404 208.519 789.418 208.386C790.743 208.216 791.818 208.088 792.642 208.003C793.475 207.908 794.081 207.752 794.46 207.534C794.848 207.316 795.043 206.937 795.043 206.398V206.284C795.043 204.883 794.659 203.794 793.892 203.017C793.134 202.241 791.984 201.852 790.44 201.852C788.84 201.852 787.585 202.203 786.676 202.903C785.767 203.604 785.128 204.352 784.759 205.148L781.577 204.011C782.145 202.686 782.902 201.653 783.849 200.915C784.806 200.167 785.848 199.646 786.974 199.352C788.111 199.049 789.228 198.898 790.327 198.898C791.027 198.898 791.832 198.983 792.741 199.153C793.66 199.314 794.545 199.651 795.398 200.162C796.259 200.673 796.974 201.445 797.543 202.477C798.111 203.509 798.395 204.892 798.395 206.625V221H795.043V218.045H794.872C794.645 218.519 794.266 219.026 793.736 219.565C793.205 220.105 792.5 220.564 791.619 220.943C790.739 221.322 789.664 221.511 788.395 221.511ZM788.906 218.5C790.232 218.5 791.349 218.24 792.259 217.719C793.177 217.198 793.868 216.526 794.332 215.702C794.806 214.878 795.043 214.011 795.043 213.102V210.034C794.901 210.205 794.588 210.361 794.105 210.503C793.632 210.635 793.082 210.754 792.457 210.858C791.842 210.953 791.241 211.038 790.653 211.114C790.076 211.18 789.607 211.237 789.247 211.284C788.376 211.398 787.562 211.582 786.804 211.838C786.056 212.084 785.45 212.458 784.986 212.96C784.531 213.453 784.304 214.125 784.304 214.977C784.304 216.142 784.735 217.023 785.597 217.619C786.468 218.206 787.571 218.5 788.906 218.5ZM804.968 221V191.909H808.32V202.648H808.604C808.851 202.269 809.192 201.786 809.627 201.199C810.072 200.602 810.707 200.072 811.531 199.608C812.364 199.134 813.491 198.898 814.911 198.898C816.748 198.898 818.368 199.357 819.769 200.276C821.171 201.194 822.264 202.496 823.05 204.182C823.836 205.867 824.229 207.856 824.229 210.148C824.229 212.458 823.836 214.461 823.05 216.156C822.264 217.842 821.175 219.149 819.783 220.077C818.391 220.995 816.786 221.455 814.968 221.455C813.567 221.455 812.444 221.223 811.602 220.759C810.759 220.285 810.11 219.75 809.656 219.153C809.201 218.547 808.851 218.045 808.604 217.648H808.207V221H804.968ZM808.263 210.091C808.263 211.739 808.505 213.192 808.988 214.452C809.471 215.702 810.176 216.682 811.104 217.392C812.032 218.093 813.169 218.443 814.513 218.443C815.915 218.443 817.085 218.074 818.022 217.335C818.969 216.587 819.679 215.583 820.153 214.324C820.636 213.055 820.877 211.644 820.877 210.091C820.877 208.557 820.64 207.174 820.167 205.943C819.703 204.703 818.997 203.723 818.05 203.003C817.113 202.274 815.934 201.909 814.513 201.909C813.15 201.909 812.004 202.255 811.076 202.946C810.148 203.628 809.447 204.584 808.974 205.815C808.5 207.037 808.263 208.462 808.263 210.091ZM829.357 221V199.182H832.71V221H829.357ZM831.062 195.545C830.408 195.545 829.845 195.323 829.371 194.878C828.907 194.433 828.675 193.898 828.675 193.273C828.675 192.648 828.907 192.113 829.371 191.668C829.845 191.223 830.408 191 831.062 191C831.715 191 832.274 191.223 832.738 191.668C833.211 192.113 833.448 192.648 833.448 193.273C833.448 193.898 833.211 194.433 832.738 194.878C832.274 195.323 831.715 195.545 831.062 195.545ZM842.202 191.909V221H838.849V191.909H842.202ZM848.342 221V199.182H851.694V221H848.342ZM850.046 195.545C849.393 195.545 848.829 195.323 848.356 194.878C847.892 194.433 847.66 193.898 847.66 193.273C847.66 192.648 847.892 192.113 848.356 191.668C848.829 191.223 849.393 191 850.046 191C850.7 191 851.258 191.223 851.722 191.668C852.196 192.113 852.433 192.648 852.433 193.273C852.433 193.898 852.196 194.433 851.722 194.878C851.258 195.323 850.7 195.545 850.046 195.545ZM867.322 199.182V202.023H856.016V199.182H867.322ZM859.311 193.955H862.663V214.75C862.663 215.697 862.801 216.407 863.075 216.881C863.359 217.345 863.719 217.657 864.155 217.818C864.6 217.97 865.069 218.045 865.561 218.045C865.93 218.045 866.233 218.027 866.47 217.989C866.707 217.941 866.896 217.903 867.038 217.875L867.72 220.886C867.493 220.972 867.176 221.057 866.768 221.142C866.361 221.237 865.845 221.284 865.22 221.284C864.273 221.284 863.345 221.08 862.436 220.673C861.536 220.266 860.788 219.646 860.192 218.812C859.605 217.979 859.311 216.928 859.311 215.659V193.955ZM874.524 229.182C873.956 229.182 873.449 229.134 873.004 229.04C872.559 228.955 872.251 228.869 872.081 228.784L872.933 225.83C873.748 226.038 874.467 226.114 875.092 226.057C875.717 226 876.271 225.721 876.754 225.219C877.247 224.726 877.696 223.926 878.104 222.818L878.729 221.114L870.661 199.182H874.297L880.32 216.568H880.547L886.57 199.182H890.206L880.945 224.182C880.528 225.309 880.012 226.241 879.396 226.98C878.781 227.728 878.066 228.282 877.251 228.642C876.446 229.002 875.537 229.182 874.524 229.182ZM906.335 221V191.909H916.165C918.447 191.909 920.313 192.321 921.761 193.145C923.22 193.959 924.299 195.062 925 196.455C925.701 197.847 926.051 199.4 926.051 201.114C926.051 202.828 925.701 204.385 925 205.787C924.309 207.188 923.239 208.306 921.79 209.139C920.341 209.963 918.485 210.375 916.222 210.375H909.176V207.25H916.108C917.67 207.25 918.925 206.98 919.872 206.44C920.819 205.901 921.506 205.171 921.932 204.253C922.367 203.325 922.585 202.278 922.585 201.114C922.585 199.949 922.367 198.907 921.932 197.989C921.506 197.07 920.814 196.35 919.858 195.83C918.902 195.299 917.633 195.034 916.051 195.034H909.858V221H906.335ZM940.185 221.455C938.082 221.455 936.269 220.991 934.744 220.062C933.229 219.125 932.06 217.818 931.236 216.142C930.421 214.456 930.014 212.496 930.014 210.261C930.014 208.027 930.421 206.057 931.236 204.352C932.06 202.638 933.205 201.303 934.673 200.347C936.151 199.381 937.874 198.898 939.844 198.898C940.98 198.898 942.102 199.087 943.21 199.466C944.318 199.845 945.327 200.46 946.236 201.312C947.145 202.155 947.869 203.273 948.409 204.665C948.949 206.057 949.219 207.771 949.219 209.807V211.227H932.401V208.33H945.81C945.81 207.098 945.563 206 945.071 205.034C944.588 204.068 943.897 203.306 942.997 202.747C942.107 202.188 941.056 201.909 939.844 201.909C938.509 201.909 937.353 202.241 936.378 202.903C935.412 203.557 934.669 204.409 934.148 205.46C933.627 206.511 933.366 207.638 933.366 208.841V210.773C933.366 212.42 933.651 213.817 934.219 214.963C934.796 216.099 935.597 216.966 936.619 217.562C937.642 218.15 938.83 218.443 940.185 218.443C941.065 218.443 941.861 218.32 942.571 218.074C943.291 217.818 943.911 217.439 944.432 216.938C944.953 216.426 945.355 215.792 945.639 215.034L948.878 215.943C948.537 217.042 947.964 218.008 947.159 218.841C946.354 219.665 945.36 220.309 944.176 220.773C942.992 221.227 941.662 221.455 940.185 221.455ZM954.318 221V199.182H957.557V202.477H957.784C958.182 201.398 958.902 200.522 959.943 199.849C960.985 199.177 962.159 198.841 963.466 198.841C963.712 198.841 964.02 198.846 964.389 198.855C964.759 198.865 965.038 198.879 965.227 198.898V202.307C965.114 202.278 964.853 202.236 964.446 202.179C964.048 202.113 963.627 202.08 963.182 202.08C962.121 202.08 961.174 202.302 960.341 202.747C959.517 203.183 958.864 203.789 958.381 204.565C957.907 205.332 957.67 206.208 957.67 207.193V221H954.318ZM980.284 199.182V202.023H968.523V199.182H980.284ZM972.045 221V196.17C972.045 194.92 972.339 193.879 972.926 193.045C973.513 192.212 974.276 191.587 975.213 191.17C976.151 190.754 977.14 190.545 978.182 190.545C979.006 190.545 979.678 190.612 980.199 190.744C980.72 190.877 981.108 191 981.364 191.114L980.398 194.011C980.227 193.955 979.991 193.884 979.688 193.798C979.394 193.713 979.006 193.67 978.523 193.67C977.415 193.67 976.615 193.95 976.122 194.509C975.639 195.067 975.398 195.886 975.398 196.966V221H972.045ZM992.947 221.455C990.978 221.455 989.25 220.986 987.763 220.048C986.286 219.111 985.13 217.799 984.297 216.114C983.473 214.428 983.061 212.458 983.061 210.205C983.061 207.932 983.473 205.948 984.297 204.253C985.13 202.558 986.286 201.241 987.763 200.304C989.25 199.366 990.978 198.898 992.947 198.898C994.917 198.898 996.641 199.366 998.118 200.304C999.605 201.241 1000.76 202.558 1001.58 204.253C1002.42 205.948 1002.83 207.932 1002.83 210.205C1002.83 212.458 1002.42 214.428 1001.58 216.114C1000.76 217.799 999.605 219.111 998.118 220.048C996.641 220.986 994.917 221.455 992.947 221.455ZM992.947 218.443C994.444 218.443 995.675 218.06 996.641 217.293C997.607 216.526 998.321 215.517 998.786 214.267C999.25 213.017 999.482 211.663 999.482 210.205C999.482 208.746 999.25 207.387 998.786 206.128C998.321 204.868 997.607 203.85 996.641 203.074C995.675 202.297 994.444 201.909 992.947 201.909C991.451 201.909 990.22 202.297 989.254 203.074C988.288 203.85 987.573 204.868 987.109 206.128C986.645 207.387 986.413 208.746 986.413 210.205C986.413 211.663 986.645 213.017 987.109 214.267C987.573 215.517 988.288 216.526 989.254 217.293C990.22 218.06 991.451 218.443 992.947 218.443ZM1007.95 221V199.182H1011.19V202.477H1011.42C1011.81 201.398 1012.53 200.522 1013.58 199.849C1014.62 199.177 1015.79 198.841 1017.1 198.841C1017.34 198.841 1017.65 198.846 1018.02 198.855C1018.39 198.865 1018.67 198.879 1018.86 198.898V202.307C1018.75 202.278 1018.49 202.236 1018.08 202.179C1017.68 202.113 1017.26 202.08 1016.81 202.08C1015.75 202.08 1014.81 202.302 1013.97 202.747C1013.15 203.183 1012.5 203.789 1012.01 204.565C1011.54 205.332 1011.3 206.208 1011.3 207.193V221H1007.95ZM1022.83 221V199.182H1026.07V202.591H1026.36C1026.81 201.426 1027.54 200.522 1028.56 199.878C1029.57 199.224 1030.79 198.898 1032.21 198.898C1033.65 198.898 1034.85 199.224 1035.8 199.878C1036.77 200.522 1037.52 201.426 1038.06 202.591H1038.29C1038.85 201.464 1039.69 200.569 1040.8 199.906C1041.92 199.234 1043.26 198.898 1044.82 198.898C1046.77 198.898 1048.37 199.509 1049.61 200.73C1050.85 201.942 1051.47 203.831 1051.47 206.398V221H1048.12V206.398C1048.12 204.788 1047.68 203.637 1046.8 202.946C1045.92 202.255 1044.88 201.909 1043.69 201.909C1042.15 201.909 1040.96 202.373 1040.12 203.301C1039.28 204.22 1038.86 205.384 1038.86 206.795V221H1035.45V206.057C1035.45 204.816 1035.04 203.817 1034.24 203.06C1033.44 202.293 1032.4 201.909 1031.13 201.909C1030.26 201.909 1029.44 202.141 1028.69 202.605C1027.94 203.069 1027.33 203.713 1026.87 204.537C1026.41 205.351 1026.19 206.294 1026.19 207.364V221H1022.83ZM1064.02 221.511C1062.64 221.511 1061.38 221.251 1060.26 220.73C1059.13 220.2 1058.23 219.438 1057.57 218.443C1056.91 217.439 1056.58 216.227 1056.58 214.807C1056.58 213.557 1056.82 212.544 1057.32 211.767C1057.81 210.981 1058.47 210.366 1059.29 209.92C1060.11 209.475 1061.02 209.144 1062.02 208.926C1063.02 208.699 1064.03 208.519 1065.04 208.386C1066.37 208.216 1067.44 208.088 1068.27 208.003C1069.1 207.908 1069.71 207.752 1070.09 207.534C1070.47 207.316 1070.67 206.937 1070.67 206.398V206.284C1070.67 204.883 1070.28 203.794 1069.52 203.017C1068.76 202.241 1067.61 201.852 1066.07 201.852C1064.46 201.852 1063.21 202.203 1062.3 202.903C1061.39 203.604 1060.75 204.352 1060.38 205.148L1057.2 204.011C1057.77 202.686 1058.53 201.653 1059.47 200.915C1060.43 200.167 1061.47 199.646 1062.6 199.352C1063.74 199.049 1064.85 198.898 1065.95 198.898C1066.65 198.898 1067.46 198.983 1068.37 199.153C1069.29 199.314 1070.17 199.651 1071.02 200.162C1071.88 200.673 1072.6 201.445 1073.17 202.477C1073.74 203.509 1074.02 204.892 1074.02 206.625V221H1070.67V218.045H1070.5C1070.27 218.519 1069.89 219.026 1069.36 219.565C1068.83 220.105 1068.13 220.564 1067.24 220.943C1066.36 221.322 1065.29 221.511 1064.02 221.511ZM1064.53 218.5C1065.86 218.5 1066.97 218.24 1067.88 217.719C1068.8 217.198 1069.49 216.526 1069.96 215.702C1070.43 214.878 1070.67 214.011 1070.67 213.102V210.034C1070.53 210.205 1070.21 210.361 1069.73 210.503C1069.26 210.635 1068.71 210.754 1068.08 210.858C1067.47 210.953 1066.87 211.038 1066.28 211.114C1065.7 211.18 1065.23 211.237 1064.87 211.284C1064 211.398 1063.19 211.582 1062.43 211.838C1061.68 212.084 1061.07 212.458 1060.61 212.96C1060.16 213.453 1059.93 214.125 1059.93 214.977C1059.93 216.142 1060.36 217.023 1061.22 217.619C1062.09 218.206 1063.2 218.5 1064.53 218.5ZM1083.49 207.875V221H1080.14V199.182H1083.38V202.591H1083.66C1084.17 201.483 1084.95 200.593 1085.99 199.92C1087.03 199.239 1088.38 198.898 1090.02 198.898C1091.5 198.898 1092.79 199.201 1093.9 199.807C1095.01 200.403 1095.87 201.312 1096.49 202.534C1097.1 203.746 1097.41 205.28 1097.41 207.136V221H1094.06V207.364C1094.06 205.65 1093.61 204.314 1092.72 203.358C1091.83 202.392 1090.61 201.909 1089.06 201.909C1087.99 201.909 1087.03 202.141 1086.19 202.605C1085.36 203.069 1084.7 203.746 1084.22 204.636C1083.73 205.527 1083.49 206.606 1083.49 207.875ZM1112.4 221.455C1110.36 221.455 1108.59 220.972 1107.12 220.006C1105.64 219.04 1104.5 217.709 1103.71 216.014C1102.91 214.319 1102.51 212.383 1102.51 210.205C1102.51 207.989 1102.92 206.033 1103.74 204.338C1104.56 202.634 1105.71 201.303 1107.17 200.347C1108.65 199.381 1110.37 198.898 1112.34 198.898C1113.88 198.898 1115.26 199.182 1116.49 199.75C1117.72 200.318 1118.73 201.114 1119.52 202.136C1120.3 203.159 1120.79 204.352 1120.98 205.716H1117.63C1117.37 204.722 1116.8 203.841 1115.92 203.074C1115.05 202.297 1113.88 201.909 1112.4 201.909C1111.09 201.909 1109.95 202.25 1108.96 202.932C1107.99 203.604 1107.23 204.556 1106.68 205.787C1106.14 207.009 1105.87 208.443 1105.87 210.091C1105.87 211.777 1106.13 213.244 1106.66 214.494C1107.2 215.744 1107.96 216.715 1108.93 217.406C1109.92 218.098 1111.07 218.443 1112.4 218.443C1113.27 218.443 1114.06 218.292 1114.77 217.989C1115.48 217.686 1116.08 217.25 1116.58 216.682C1117.07 216.114 1117.42 215.432 1117.63 214.636H1120.98C1120.79 215.924 1120.32 217.084 1119.57 218.116C1118.84 219.139 1117.86 219.954 1116.63 220.56C1115.42 221.156 1114.01 221.455 1112.4 221.455ZM1135.03 221.455C1132.93 221.455 1131.11 220.991 1129.59 220.062C1128.07 219.125 1126.9 217.818 1126.08 216.142C1125.27 214.456 1124.86 212.496 1124.86 210.261C1124.86 208.027 1125.27 206.057 1126.08 204.352C1126.9 202.638 1128.05 201.303 1129.52 200.347C1130.99 199.381 1132.72 198.898 1134.69 198.898C1135.82 198.898 1136.95 199.087 1138.05 199.466C1139.16 199.845 1140.17 200.46 1141.08 201.312C1141.99 202.155 1142.71 203.273 1143.25 204.665C1143.79 206.057 1144.06 207.771 1144.06 209.807V211.227H1127.24V208.33H1140.65C1140.65 207.098 1140.41 206 1139.91 205.034C1139.43 204.068 1138.74 203.306 1137.84 202.747C1136.95 202.188 1135.9 201.909 1134.69 201.909C1133.35 201.909 1132.2 202.241 1131.22 202.903C1130.26 203.557 1129.51 204.409 1128.99 205.46C1128.47 206.511 1128.21 207.638 1128.21 208.841V210.773C1128.21 212.42 1128.49 213.817 1129.06 214.963C1129.64 216.099 1130.44 216.966 1131.46 217.562C1132.49 218.15 1133.67 218.443 1135.03 218.443C1135.91 218.443 1136.7 218.32 1137.41 218.074C1138.13 217.818 1138.75 217.439 1139.28 216.938C1139.8 216.426 1140.2 215.792 1140.48 215.034L1143.72 215.943C1143.38 217.042 1142.81 218.008 1142 218.841C1141.2 219.665 1140.2 220.309 1139.02 220.773C1137.84 221.227 1136.51 221.455 1135.03 221.455ZM1160.87 221V191.909H1178.31V195.034H1164.39V204.864H1177V207.989H1164.39V221H1160.87ZM1187.24 191.909V221H1183.89V191.909H1187.24ZM1202.53 221.455C1200.43 221.455 1198.61 220.991 1197.09 220.062C1195.57 219.125 1194.4 217.818 1193.58 216.142C1192.77 214.456 1192.36 212.496 1192.36 210.261C1192.36 208.027 1192.77 206.057 1193.58 204.352C1194.4 202.638 1195.55 201.303 1197.02 200.347C1198.49 199.381 1200.22 198.898 1202.19 198.898C1203.32 198.898 1204.45 199.087 1205.55 199.466C1206.66 199.845 1207.67 200.46 1208.58 201.312C1209.49 202.155 1210.21 203.273 1210.75 204.665C1211.29 206.057 1211.56 207.771 1211.56 209.807V211.227H1194.74V208.33H1208.15C1208.15 207.098 1207.91 206 1207.41 205.034C1206.93 204.068 1206.24 203.306 1205.34 202.747C1204.45 202.188 1203.4 201.909 1202.19 201.909C1200.85 201.909 1199.7 202.241 1198.72 202.903C1197.76 203.557 1197.01 204.409 1196.49 205.46C1195.97 206.511 1195.71 207.638 1195.71 208.841V210.773C1195.71 212.42 1195.99 213.817 1196.56 214.963C1197.14 216.099 1197.94 216.966 1198.96 217.562C1199.99 218.15 1201.17 218.443 1202.53 218.443C1203.41 218.443 1204.2 218.32 1204.91 218.074C1205.63 217.818 1206.25 217.439 1206.78 216.938C1207.3 216.426 1207.7 215.792 1207.98 215.034L1211.22 215.943C1210.88 217.042 1210.31 218.008 1209.5 218.841C1208.7 219.665 1207.7 220.309 1206.52 220.773C1205.34 221.227 1204.01 221.455 1202.53 221.455ZM1218.58 199.182L1223.8 208.102L1229.03 199.182H1232.89L1225.85 210.091L1232.89 221H1229.03L1223.8 212.534L1218.58 221H1214.71L1221.64 210.091L1214.71 199.182H1218.58ZM1237.68 221V199.182H1241.03V221H1237.68ZM1239.38 195.545C1238.73 195.545 1238.17 195.323 1237.69 194.878C1237.23 194.433 1237 193.898 1237 193.273C1237 192.648 1237.23 192.113 1237.69 191.668C1238.17 191.223 1238.73 191 1239.38 191C1240.04 191 1240.59 191.223 1241.06 191.668C1241.53 192.113 1241.77 192.648 1241.77 193.273C1241.77 193.898 1241.53 194.433 1241.06 194.878C1240.59 195.323 1240.04 195.545 1239.38 195.545ZM1247.62 221V191.909H1250.98V202.648H1251.26C1251.51 202.269 1251.85 201.786 1252.28 201.199C1252.73 200.602 1253.36 200.072 1254.19 199.608C1255.02 199.134 1256.15 198.898 1257.57 198.898C1259.4 198.898 1261.02 199.357 1262.43 200.276C1263.83 201.194 1264.92 202.496 1265.71 204.182C1266.49 205.867 1266.89 207.856 1266.89 210.148C1266.89 212.458 1266.49 214.461 1265.71 216.156C1264.92 217.842 1263.83 219.149 1262.44 220.077C1261.05 220.995 1259.44 221.455 1257.62 221.455C1256.22 221.455 1255.1 221.223 1254.26 220.759C1253.42 220.285 1252.77 219.75 1252.31 219.153C1251.86 218.547 1251.51 218.045 1251.26 217.648H1250.86V221H1247.62ZM1250.92 210.091C1250.92 211.739 1251.16 213.192 1251.64 214.452C1252.13 215.702 1252.83 216.682 1253.76 217.392C1254.69 218.093 1255.83 218.443 1257.17 218.443C1258.57 218.443 1259.74 218.074 1260.68 217.335C1261.63 216.587 1262.34 215.583 1262.81 214.324C1263.29 213.055 1263.53 211.644 1263.53 210.091C1263.53 208.557 1263.3 207.174 1262.82 205.943C1262.36 204.703 1261.65 203.723 1260.71 203.003C1259.77 202.274 1258.59 201.909 1257.17 201.909C1255.81 201.909 1254.66 202.255 1253.73 202.946C1252.8 203.628 1252.1 204.584 1251.63 205.815C1251.16 207.037 1250.92 208.462 1250.92 210.091ZM1272.01 221V199.182H1275.37V221H1272.01ZM1273.72 195.545C1273.06 195.545 1272.5 195.323 1272.03 194.878C1271.56 194.433 1271.33 193.898 1271.33 193.273C1271.33 192.648 1271.56 192.113 1272.03 191.668C1272.5 191.223 1273.06 191 1273.72 191C1274.37 191 1274.93 191.223 1275.39 191.668C1275.87 192.113 1276.1 192.648 1276.1 193.273C1276.1 193.898 1275.87 194.433 1275.39 194.878C1274.93 195.323 1274.37 195.545 1273.72 195.545ZM1284.86 191.909V221H1281.51V191.909H1284.86ZM1291 221V199.182H1294.35V221H1291ZM1292.7 195.545C1292.05 195.545 1291.49 195.323 1291.01 194.878C1290.55 194.433 1290.32 193.898 1290.32 193.273C1290.32 192.648 1290.55 192.113 1291.01 191.668C1291.49 191.223 1292.05 191 1292.7 191C1293.36 191 1293.91 191.223 1294.38 191.668C1294.85 192.113 1295.09 192.648 1295.09 193.273C1295.09 193.898 1294.85 194.433 1294.38 194.878C1293.91 195.323 1293.36 195.545 1292.7 195.545ZM1309.98 199.182V202.023H1298.67V199.182H1309.98ZM1301.97 193.955H1305.32V214.75C1305.32 215.697 1305.46 216.407 1305.73 216.881C1306.02 217.345 1306.38 217.657 1306.81 217.818C1307.26 217.97 1307.72 218.045 1308.22 218.045C1308.59 218.045 1308.89 218.027 1309.13 217.989C1309.36 217.941 1309.55 217.903 1309.69 217.875L1310.38 220.886C1310.15 220.972 1309.83 221.057 1309.42 221.142C1309.02 221.237 1308.5 221.284 1307.88 221.284C1306.93 221.284 1306 221.08 1305.09 220.673C1304.19 220.266 1303.44 219.646 1302.85 218.812C1302.26 217.979 1301.97 216.928 1301.97 215.659V193.955ZM1317.18 229.182C1316.61 229.182 1316.11 229.134 1315.66 229.04C1315.22 228.955 1314.91 228.869 1314.74 228.784L1315.59 225.83C1316.4 226.038 1317.12 226.114 1317.75 226.057C1318.37 226 1318.93 225.721 1319.41 225.219C1319.9 224.726 1320.35 223.926 1320.76 222.818L1321.38 221.114L1313.32 199.182H1316.95L1322.98 216.568H1323.2L1329.23 199.182H1332.86L1323.6 224.182C1323.18 225.309 1322.67 226.241 1322.05 226.98C1321.44 227.728 1320.72 228.282 1319.91 228.642C1319.1 229.002 1318.19 229.182 1317.18 229.182ZM1372.4 201H1368.88C1368.67 199.987 1368.3 199.097 1367.78 198.33C1367.27 197.562 1366.65 196.919 1365.91 196.398C1365.18 195.867 1364.37 195.47 1363.48 195.205C1362.59 194.939 1361.66 194.807 1360.7 194.807C1358.93 194.807 1357.34 195.252 1355.91 196.142C1354.49 197.032 1353.36 198.344 1352.51 200.077C1351.68 201.81 1351.26 203.936 1351.26 206.455C1351.26 208.973 1351.68 211.099 1352.51 212.832C1353.36 214.565 1354.49 215.877 1355.91 216.767C1357.34 217.657 1358.93 218.102 1360.7 218.102C1361.66 218.102 1362.59 217.97 1363.48 217.705C1364.37 217.439 1365.18 217.046 1365.91 216.526C1366.65 215.995 1367.27 215.347 1367.78 214.58C1368.3 213.803 1368.67 212.913 1368.88 211.909H1372.4C1372.14 213.396 1371.65 214.726 1370.95 215.901C1370.25 217.075 1369.38 218.074 1368.34 218.898C1367.3 219.712 1366.13 220.332 1364.83 220.759C1363.54 221.185 1362.16 221.398 1360.7 221.398C1358.21 221.398 1356.01 220.792 1354.08 219.58C1352.14 218.367 1350.63 216.644 1349.52 214.409C1348.41 212.174 1347.86 209.523 1347.86 206.455C1347.86 203.386 1348.41 200.735 1349.52 198.5C1350.63 196.265 1352.14 194.542 1354.08 193.33C1356.01 192.117 1358.21 191.511 1360.7 191.511C1362.16 191.511 1363.54 191.724 1364.83 192.151C1366.13 192.577 1367.3 193.202 1368.34 194.026C1369.38 194.84 1370.25 195.834 1370.95 197.009C1371.65 198.173 1372.14 199.504 1372.4 201ZM1386.5 221.455C1384.53 221.455 1382.8 220.986 1381.32 220.048C1379.84 219.111 1378.68 217.799 1377.85 216.114C1377.03 214.428 1376.62 212.458 1376.62 210.205C1376.62 207.932 1377.03 205.948 1377.85 204.253C1378.68 202.558 1379.84 201.241 1381.32 200.304C1382.8 199.366 1384.53 198.898 1386.5 198.898C1388.47 198.898 1390.2 199.366 1391.67 200.304C1393.16 201.241 1394.31 202.558 1395.14 204.253C1395.97 205.948 1396.39 207.932 1396.39 210.205C1396.39 212.458 1395.97 214.428 1395.14 216.114C1394.31 217.799 1393.16 219.111 1391.67 220.048C1390.2 220.986 1388.47 221.455 1386.5 221.455ZM1386.5 218.443C1388 218.443 1389.23 218.06 1390.2 217.293C1391.16 216.526 1391.88 215.517 1392.34 214.267C1392.8 213.017 1393.04 211.663 1393.04 210.205C1393.04 208.746 1392.8 207.387 1392.34 206.128C1391.88 204.868 1391.16 203.85 1390.2 203.074C1389.23 202.297 1388 201.909 1386.5 201.909C1385.01 201.909 1383.77 202.297 1382.81 203.074C1381.84 203.85 1381.13 204.868 1380.66 206.128C1380.2 207.387 1379.97 208.746 1379.97 210.205C1379.97 211.663 1380.2 213.017 1380.66 214.267C1381.13 215.517 1381.84 216.526 1382.81 217.293C1383.77 218.06 1385.01 218.443 1386.5 218.443ZM1401.51 221V199.182H1404.74V202.591H1405.03C1405.48 201.426 1406.22 200.522 1407.23 199.878C1408.24 199.224 1409.46 198.898 1410.88 198.898C1412.32 198.898 1413.52 199.224 1414.47 199.878C1415.44 200.522 1416.19 201.426 1416.73 202.591H1416.96C1417.52 201.464 1418.36 200.569 1419.47 199.906C1420.59 199.234 1421.93 198.898 1423.49 198.898C1425.45 198.898 1427.04 199.509 1428.28 200.73C1429.52 201.942 1430.14 203.831 1430.14 206.398V221H1426.79V206.398C1426.79 204.788 1426.35 203.637 1425.47 202.946C1424.59 202.255 1423.55 201.909 1422.36 201.909C1420.82 201.909 1419.64 202.373 1418.79 203.301C1417.95 204.22 1417.53 205.384 1417.53 206.795V221H1414.12V206.057C1414.12 204.816 1413.72 203.817 1412.91 203.06C1412.11 202.293 1411.07 201.909 1409.8 201.909C1408.93 201.909 1408.12 202.141 1407.36 202.605C1406.61 203.069 1406 203.713 1405.54 204.537C1405.09 205.351 1404.86 206.294 1404.86 207.364V221H1401.51ZM1436.27 229.182V199.182H1439.51V202.648H1439.91C1440.15 202.269 1440.49 201.786 1440.93 201.199C1441.38 200.602 1442.01 200.072 1442.83 199.608C1443.67 199.134 1444.79 198.898 1446.21 198.898C1448.05 198.898 1449.67 199.357 1451.07 200.276C1452.47 201.194 1453.57 202.496 1454.35 204.182C1455.14 205.867 1455.53 207.856 1455.53 210.148C1455.53 212.458 1455.14 214.461 1454.35 216.156C1453.57 217.842 1452.48 219.149 1451.09 220.077C1449.69 220.995 1448.09 221.455 1446.27 221.455C1444.87 221.455 1443.75 221.223 1442.9 220.759C1442.06 220.285 1441.41 219.75 1440.96 219.153C1440.5 218.547 1440.15 218.045 1439.91 217.648H1439.62V229.182H1436.27ZM1439.57 210.091C1439.57 211.739 1439.81 213.192 1440.29 214.452C1440.77 215.702 1441.48 216.682 1442.41 217.392C1443.34 218.093 1444.47 218.443 1445.82 218.443C1447.22 218.443 1448.39 218.074 1449.33 217.335C1450.27 216.587 1450.98 215.583 1451.46 214.324C1451.94 213.055 1452.18 211.644 1452.18 210.091C1452.18 208.557 1451.94 207.174 1451.47 205.943C1451.01 204.703 1450.3 203.723 1449.35 203.003C1448.42 202.274 1447.24 201.909 1445.82 201.909C1444.45 201.909 1443.31 202.255 1442.38 202.946C1441.45 203.628 1440.75 204.584 1440.28 205.815C1439.8 207.037 1439.57 208.462 1439.57 210.091ZM1467.07 221.511C1465.68 221.511 1464.43 221.251 1463.3 220.73C1462.18 220.2 1461.28 219.438 1460.62 218.443C1459.96 217.439 1459.62 216.227 1459.62 214.807C1459.62 213.557 1459.87 212.544 1460.36 211.767C1460.85 210.981 1461.51 210.366 1462.34 209.92C1463.16 209.475 1464.07 209.144 1465.06 208.926C1466.07 208.699 1467.08 208.519 1468.09 208.386C1469.42 208.216 1470.49 208.088 1471.31 208.003C1472.15 207.908 1472.75 207.752 1473.13 207.534C1473.52 207.316 1473.71 206.937 1473.71 206.398V206.284C1473.71 204.883 1473.33 203.794 1472.56 203.017C1471.81 202.241 1470.66 201.852 1469.11 201.852C1467.51 201.852 1466.26 202.203 1465.35 202.903C1464.44 203.604 1463.8 204.352 1463.43 205.148L1460.25 204.011C1460.82 202.686 1461.57 201.653 1462.52 200.915C1463.48 200.167 1464.52 199.646 1465.65 199.352C1466.78 199.049 1467.9 198.898 1469 198.898C1469.7 198.898 1470.5 198.983 1471.41 199.153C1472.33 199.314 1473.22 199.651 1474.07 200.162C1474.93 200.673 1475.65 201.445 1476.21 202.477C1476.78 203.509 1477.07 204.892 1477.07 206.625V221H1473.71V218.045H1473.54C1473.32 218.519 1472.94 219.026 1472.41 219.565C1471.88 220.105 1471.17 220.564 1470.29 220.943C1469.41 221.322 1468.34 221.511 1467.07 221.511ZM1467.58 218.5C1468.9 218.5 1470.02 218.24 1470.93 217.719C1471.85 217.198 1472.54 216.526 1473 215.702C1473.48 214.878 1473.71 214.011 1473.71 213.102V210.034C1473.57 210.205 1473.26 210.361 1472.78 210.503C1472.3 210.635 1471.75 210.754 1471.13 210.858C1470.51 210.953 1469.91 211.038 1469.33 211.114C1468.75 211.18 1468.28 211.237 1467.92 211.284C1467.05 211.398 1466.23 211.582 1465.48 211.838C1464.73 212.084 1464.12 212.458 1463.66 212.96C1463.2 213.453 1462.98 214.125 1462.98 214.977C1462.98 216.142 1463.41 217.023 1464.27 217.619C1465.14 218.206 1466.24 218.5 1467.58 218.5ZM1492.67 199.182V202.023H1481.37V199.182H1492.67ZM1484.66 193.955H1488.01V214.75C1488.01 215.697 1488.15 216.407 1488.43 216.881C1488.71 217.345 1489.07 217.657 1489.51 217.818C1489.95 217.97 1490.42 218.045 1490.91 218.045C1491.28 218.045 1491.58 218.027 1491.82 217.989C1492.06 217.941 1492.25 217.903 1492.39 217.875L1493.07 220.886C1492.84 220.972 1492.53 221.057 1492.12 221.142C1491.71 221.237 1491.2 221.284 1490.57 221.284C1489.62 221.284 1488.7 221.08 1487.79 220.673C1486.89 220.266 1486.14 219.646 1485.54 218.812C1484.96 217.979 1484.66 216.928 1484.66 215.659V193.955ZM1497.72 221V199.182H1501.07V221H1497.72ZM1499.42 195.545C1498.77 195.545 1498.2 195.323 1497.73 194.878C1497.27 194.433 1497.03 193.898 1497.03 193.273C1497.03 192.648 1497.27 192.113 1497.73 191.668C1498.2 191.223 1498.77 191 1499.42 191C1500.07 191 1500.63 191.223 1501.1 191.668C1501.57 192.113 1501.81 192.648 1501.81 193.273C1501.81 193.898 1501.57 194.433 1501.1 194.878C1500.63 195.323 1500.07 195.545 1499.42 195.545ZM1507.66 221V191.909H1511.02V202.648H1511.3C1511.55 202.269 1511.89 201.786 1512.32 201.199C1512.77 200.602 1513.4 200.072 1514.23 199.608C1515.06 199.134 1516.19 198.898 1517.61 198.898C1519.44 198.898 1521.06 199.357 1522.46 200.276C1523.87 201.194 1524.96 202.496 1525.75 204.182C1526.53 205.867 1526.92 207.856 1526.92 210.148C1526.92 212.458 1526.53 214.461 1525.75 216.156C1524.96 217.842 1523.87 219.149 1522.48 220.077C1521.09 220.995 1519.48 221.455 1517.66 221.455C1516.26 221.455 1515.14 221.223 1514.3 220.759C1513.45 220.285 1512.81 219.75 1512.35 219.153C1511.9 218.547 1511.55 218.045 1511.3 217.648H1510.9V221H1507.66ZM1510.96 210.091C1510.96 211.739 1511.2 213.192 1511.68 214.452C1512.17 215.702 1512.87 216.682 1513.8 217.392C1514.73 218.093 1515.86 218.443 1517.21 218.443C1518.61 218.443 1519.78 218.074 1520.72 217.335C1521.66 216.587 1522.37 215.583 1522.85 214.324C1523.33 213.055 1523.57 211.644 1523.57 210.091C1523.57 208.557 1523.34 207.174 1522.86 205.943C1522.4 204.703 1521.69 203.723 1520.75 203.003C1519.81 202.274 1518.63 201.909 1517.21 201.909C1515.85 201.909 1514.7 202.255 1513.77 202.946C1512.84 203.628 1512.14 204.584 1511.67 205.815C1511.2 207.037 1510.96 208.462 1510.96 210.091ZM1532.05 221V199.182H1535.4V221H1532.05ZM1533.76 195.545C1533.1 195.545 1532.54 195.323 1532.07 194.878C1531.6 194.433 1531.37 193.898 1531.37 193.273C1531.37 192.648 1531.6 192.113 1532.07 191.668C1532.54 191.223 1533.1 191 1533.76 191C1534.41 191 1534.97 191.223 1535.43 191.668C1535.91 192.113 1536.14 192.648 1536.14 193.273C1536.14 193.898 1535.91 194.433 1535.43 194.878C1534.97 195.323 1534.41 195.545 1533.76 195.545ZM1544.9 191.909V221H1541.54V191.909H1544.9ZM1551.04 221V199.182H1554.39V221H1551.04ZM1552.74 195.545C1552.09 195.545 1551.52 195.323 1551.05 194.878C1550.59 194.433 1550.36 193.898 1550.36 193.273C1550.36 192.648 1550.59 192.113 1551.05 191.668C1551.52 191.223 1552.09 191 1552.74 191C1553.39 191 1553.95 191.223 1554.42 191.668C1554.89 192.113 1555.13 192.648 1555.13 193.273C1555.13 193.898 1554.89 194.433 1554.42 194.878C1553.95 195.323 1553.39 195.545 1552.74 195.545ZM1570.02 199.182V202.023H1558.71V199.182H1570.02ZM1562.01 193.955H1565.36V214.75C1565.36 215.697 1565.5 216.407 1565.77 216.881C1566.05 217.345 1566.41 217.657 1566.85 217.818C1567.3 217.97 1567.76 218.045 1568.26 218.045C1568.63 218.045 1568.93 218.027 1569.17 217.989C1569.4 217.941 1569.59 217.903 1569.73 217.875L1570.42 220.886C1570.19 220.972 1569.87 221.057 1569.46 221.142C1569.06 221.237 1568.54 221.284 1567.92 221.284C1566.97 221.284 1566.04 221.08 1565.13 220.673C1564.23 220.266 1563.48 219.646 1562.89 218.812C1562.3 217.979 1562.01 216.928 1562.01 215.659V193.955ZM1577.22 229.182C1576.65 229.182 1576.14 229.134 1575.7 229.04C1575.25 228.955 1574.95 228.869 1574.78 228.784L1575.63 225.83C1576.44 226.038 1577.16 226.114 1577.79 226.057C1578.41 226 1578.97 225.721 1579.45 225.219C1579.94 224.726 1580.39 223.926 1580.8 222.818L1581.42 221.114L1573.36 199.182H1576.99L1583.01 216.568H1583.24L1589.26 199.182H1592.9L1583.64 224.182C1583.22 225.309 1582.71 226.241 1582.09 226.98C1581.48 227.728 1580.76 228.282 1579.95 228.642C1579.14 229.002 1578.23 229.182 1577.22 229.182ZM1624.94 199.182C1624.77 197.742 1624.08 196.625 1622.87 195.83C1621.65 195.034 1620.17 194.636 1618.41 194.636C1617.12 194.636 1615.99 194.845 1615.02 195.261C1614.07 195.678 1613.32 196.251 1612.78 196.98C1612.25 197.709 1611.99 198.538 1611.99 199.466C1611.99 200.242 1612.17 200.91 1612.54 201.469C1612.92 202.018 1613.4 202.477 1613.99 202.847C1614.58 203.206 1615.19 203.505 1615.83 203.741C1616.48 203.969 1617.07 204.153 1617.61 204.295L1620.56 205.091C1621.32 205.29 1622.17 205.564 1623.09 205.915C1624.03 206.265 1624.93 206.743 1625.78 207.349C1626.64 207.946 1627.35 208.713 1627.91 209.651C1628.47 210.588 1628.75 211.739 1628.75 213.102C1628.75 214.674 1628.33 216.095 1627.51 217.364C1626.7 218.633 1625.5 219.641 1623.93 220.389C1622.37 221.137 1620.47 221.511 1618.24 221.511C1616.15 221.511 1614.35 221.175 1612.82 220.503C1611.31 219.83 1610.11 218.893 1609.24 217.69C1608.38 216.488 1607.89 215.091 1607.78 213.5H1611.42C1611.51 214.598 1611.88 215.508 1612.52 216.227C1613.18 216.937 1614 217.468 1615 217.818C1616 218.159 1617.08 218.33 1618.24 218.33C1619.58 218.33 1620.79 218.112 1621.86 217.676C1622.93 217.231 1623.77 216.616 1624.4 215.83C1625.02 215.034 1625.34 214.106 1625.34 213.045C1625.34 212.08 1625.07 211.294 1624.53 210.688C1623.99 210.081 1623.28 209.589 1622.4 209.21C1621.52 208.831 1620.56 208.5 1619.54 208.216L1615.96 207.193C1613.69 206.54 1611.89 205.607 1610.56 204.395C1609.24 203.183 1608.58 201.597 1608.58 199.636C1608.58 198.008 1609.02 196.587 1609.9 195.375C1610.79 194.153 1611.98 193.206 1613.48 192.534C1614.98 191.852 1616.66 191.511 1618.52 191.511C1620.39 191.511 1622.06 191.848 1623.52 192.52C1624.98 193.183 1626.13 194.092 1626.99 195.247C1627.85 196.402 1628.3 197.714 1628.35 199.182H1624.94ZM1643.23 221.455C1641.13 221.455 1639.32 220.991 1637.79 220.062C1636.28 219.125 1635.11 217.818 1634.28 216.142C1633.47 214.456 1633.06 212.496 1633.06 210.261C1633.06 208.027 1633.47 206.057 1634.28 204.352C1635.11 202.638 1636.25 201.303 1637.72 200.347C1639.2 199.381 1640.92 198.898 1642.89 198.898C1644.03 198.898 1645.15 199.087 1646.26 199.466C1647.37 199.845 1648.37 200.46 1649.28 201.312C1650.19 202.155 1650.92 203.273 1651.46 204.665C1652 206.057 1652.27 207.771 1652.27 209.807V211.227H1635.45V208.33H1648.86C1648.86 207.098 1648.61 206 1648.12 205.034C1647.63 204.068 1646.94 203.306 1646.04 202.747C1645.15 202.188 1644.1 201.909 1642.89 201.909C1641.56 201.909 1640.4 202.241 1639.42 202.903C1638.46 203.557 1637.72 204.409 1637.19 205.46C1636.67 206.511 1636.41 207.638 1636.41 208.841V210.773C1636.41 212.42 1636.7 213.817 1637.27 214.963C1637.84 216.099 1638.64 216.966 1639.67 217.562C1640.69 218.15 1641.88 218.443 1643.23 218.443C1644.11 218.443 1644.91 218.32 1645.62 218.074C1646.34 217.818 1646.96 217.439 1647.48 216.938C1648 216.426 1648.4 215.792 1648.69 215.034L1651.92 215.943C1651.58 217.042 1651.01 218.008 1650.21 218.841C1649.4 219.665 1648.41 220.309 1647.22 220.773C1646.04 221.227 1644.71 221.455 1643.23 221.455ZM1666.23 221.455C1664.18 221.455 1662.42 220.972 1660.94 220.006C1659.47 219.04 1658.33 217.709 1657.54 216.014C1656.74 214.319 1656.34 212.383 1656.34 210.205C1656.34 207.989 1656.75 206.033 1657.56 204.338C1658.39 202.634 1659.53 201.303 1661 200.347C1662.48 199.381 1664.2 198.898 1666.17 198.898C1667.71 198.898 1669.09 199.182 1670.32 199.75C1671.55 200.318 1672.56 201.114 1673.35 202.136C1674.13 203.159 1674.62 204.352 1674.81 205.716H1671.46C1671.2 204.722 1670.63 203.841 1669.75 203.074C1668.88 202.297 1667.71 201.909 1666.23 201.909C1664.92 201.909 1663.78 202.25 1662.79 202.932C1661.82 203.604 1661.05 204.556 1660.5 205.787C1659.96 207.009 1659.69 208.443 1659.69 210.091C1659.69 211.777 1659.96 213.244 1660.49 214.494C1661.03 215.744 1661.79 216.715 1662.76 217.406C1663.75 218.098 1664.9 218.443 1666.23 218.443C1667.1 218.443 1667.89 218.292 1668.6 217.989C1669.31 217.686 1669.91 217.25 1670.4 216.682C1670.9 216.114 1671.25 215.432 1671.46 214.636H1674.81C1674.62 215.924 1674.15 217.084 1673.4 218.116C1672.66 219.139 1671.68 219.954 1670.46 220.56C1669.25 221.156 1667.84 221.455 1666.23 221.455ZM1693.46 212.08V199.182H1696.81V221H1693.46V217.307H1693.23C1692.72 218.415 1691.92 219.357 1690.85 220.134C1689.77 220.901 1688.4 221.284 1686.75 221.284C1685.39 221.284 1684.18 220.986 1683.12 220.389C1682.06 219.783 1681.22 218.874 1680.62 217.662C1680.01 216.44 1679.71 214.902 1679.71 213.045V199.182H1683.06V212.818C1683.06 214.409 1683.51 215.678 1684.4 216.625C1685.3 217.572 1686.44 218.045 1687.83 218.045C1688.67 218.045 1689.51 217.832 1690.38 217.406C1691.25 216.98 1691.98 216.327 1692.56 215.446C1693.16 214.565 1693.46 213.443 1693.46 212.08ZM1702.95 221V199.182H1706.19V202.477H1706.42C1706.81 201.398 1707.53 200.522 1708.58 199.849C1709.62 199.177 1710.79 198.841 1712.1 198.841C1712.34 198.841 1712.65 198.846 1713.02 198.855C1713.39 198.865 1713.67 198.879 1713.86 198.898V202.307C1713.75 202.278 1713.49 202.236 1713.08 202.179C1712.68 202.113 1712.26 202.08 1711.81 202.08C1710.75 202.08 1709.81 202.302 1708.97 202.747C1708.15 203.183 1707.5 203.789 1707.01 204.565C1706.54 205.332 1706.3 206.208 1706.3 207.193V221H1702.95ZM1717.83 221V199.182H1721.19V221H1717.83ZM1719.54 195.545C1718.88 195.545 1718.32 195.323 1717.85 194.878C1717.38 194.433 1717.15 193.898 1717.15 193.273C1717.15 192.648 1717.38 192.113 1717.85 191.668C1718.32 191.223 1718.88 191 1719.54 191C1720.19 191 1720.75 191.223 1721.21 191.668C1721.69 192.113 1721.92 192.648 1721.92 193.273C1721.92 193.898 1721.69 194.433 1721.21 194.878C1720.75 195.323 1720.19 195.545 1719.54 195.545ZM1736.81 199.182V202.023H1725.51V199.182H1736.81ZM1728.8 193.955H1732.16V214.75C1732.16 215.697 1732.29 216.407 1732.57 216.881C1732.85 217.345 1733.21 217.657 1733.65 217.818C1734.09 217.97 1734.56 218.045 1735.05 218.045C1735.42 218.045 1735.73 218.027 1735.96 217.989C1736.2 217.941 1736.39 217.903 1736.53 217.875L1737.21 220.886C1736.99 220.972 1736.67 221.057 1736.26 221.142C1735.85 221.237 1735.34 221.284 1734.71 221.284C1733.77 221.284 1732.84 221.08 1731.93 220.673C1731.03 220.266 1730.28 219.646 1729.68 218.812C1729.1 217.979 1728.8 216.928 1728.8 215.659V193.955ZM1744.02 229.182C1743.45 229.182 1742.94 229.134 1742.5 229.04C1742.05 228.955 1741.74 228.869 1741.57 228.784L1742.43 225.83C1743.24 226.038 1743.96 226.114 1744.58 226.057C1745.21 226 1745.76 225.721 1746.25 225.219C1746.74 224.726 1747.19 223.926 1747.6 222.818L1748.22 221.114L1740.15 199.182H1743.79L1749.81 216.568H1750.04L1756.06 199.182H1759.7L1750.44 224.182C1750.02 225.309 1749.5 226.241 1748.89 226.98C1748.27 227.728 1747.56 228.282 1746.74 228.642C1745.94 229.002 1745.03 229.182 1744.02 229.182ZM1791.74 199.182C1791.57 197.742 1790.87 196.625 1789.66 195.83C1788.45 195.034 1786.96 194.636 1785.2 194.636C1783.91 194.636 1782.79 194.845 1781.82 195.261C1780.87 195.678 1780.12 196.251 1779.58 196.98C1779.05 197.709 1778.78 198.538 1778.78 199.466C1778.78 200.242 1778.97 200.91 1779.34 201.469C1779.71 202.018 1780.2 202.477 1780.78 202.847C1781.37 203.206 1781.99 203.505 1782.63 203.741C1783.28 203.969 1783.87 204.153 1784.41 204.295L1787.36 205.091C1788.12 205.29 1788.96 205.564 1789.89 205.915C1790.83 206.265 1791.72 206.743 1792.57 207.349C1793.44 207.946 1794.15 208.713 1794.71 209.651C1795.26 210.588 1795.54 211.739 1795.54 213.102C1795.54 214.674 1795.13 216.095 1794.31 217.364C1793.49 218.633 1792.3 219.641 1790.73 220.389C1789.17 221.137 1787.27 221.511 1785.03 221.511C1782.95 221.511 1781.14 221.175 1779.62 220.503C1778.1 219.83 1776.91 218.893 1776.04 217.69C1775.18 216.488 1774.69 215.091 1774.58 213.5H1778.21C1778.31 214.598 1778.68 215.508 1779.32 216.227C1779.98 216.937 1780.8 217.468 1781.79 217.818C1782.8 218.159 1783.88 218.33 1785.03 218.33C1786.38 218.33 1787.58 218.112 1788.65 217.676C1789.72 217.231 1790.57 216.616 1791.2 215.83C1791.82 215.034 1792.13 214.106 1792.13 213.045C1792.13 212.08 1791.86 211.294 1791.32 210.688C1790.78 210.081 1790.07 209.589 1789.19 209.21C1788.31 208.831 1787.36 208.5 1786.34 208.216L1782.76 207.193C1780.49 206.54 1778.69 205.607 1777.36 204.395C1776.04 203.183 1775.37 201.597 1775.37 199.636C1775.37 198.008 1775.81 196.587 1776.69 195.375C1777.58 194.153 1778.78 193.206 1780.27 192.534C1781.78 191.852 1783.46 191.511 1785.32 191.511C1787.19 191.511 1788.86 191.848 1790.32 192.52C1791.77 193.183 1792.93 194.092 1793.78 195.247C1794.64 196.402 1795.1 197.714 1795.15 199.182H1791.74ZM1807.3 221.511C1805.92 221.511 1804.66 221.251 1803.54 220.73C1802.41 220.2 1801.52 219.438 1800.85 218.443C1800.19 217.439 1799.86 216.227 1799.86 214.807C1799.86 213.557 1800.1 212.544 1800.6 211.767C1801.09 210.981 1801.75 210.366 1802.57 209.92C1803.39 209.475 1804.3 209.144 1805.3 208.926C1806.3 208.699 1807.31 208.519 1808.32 208.386C1809.65 208.216 1810.72 208.088 1811.55 208.003C1812.38 207.908 1812.99 207.752 1813.37 207.534C1813.75 207.316 1813.95 206.937 1813.95 206.398V206.284C1813.95 204.883 1813.57 203.794 1812.8 203.017C1812.04 202.241 1810.89 201.852 1809.35 201.852C1807.75 201.852 1806.49 202.203 1805.58 202.903C1804.67 203.604 1804.03 204.352 1803.66 205.148L1800.48 204.011C1801.05 202.686 1801.81 201.653 1802.76 200.915C1803.71 200.167 1804.75 199.646 1805.88 199.352C1807.02 199.049 1808.13 198.898 1809.23 198.898C1809.93 198.898 1810.74 198.983 1811.65 199.153C1812.57 199.314 1813.45 199.651 1814.3 200.162C1815.17 200.673 1815.88 201.445 1816.45 202.477C1817.02 203.509 1817.3 204.892 1817.3 206.625V221H1813.95V218.045H1813.78C1813.55 218.519 1813.17 219.026 1812.64 219.565C1812.11 220.105 1811.41 220.564 1810.53 220.943C1809.64 221.322 1808.57 221.511 1807.3 221.511ZM1807.81 218.5C1809.14 218.5 1810.26 218.24 1811.16 217.719C1812.08 217.198 1812.77 216.526 1813.24 215.702C1813.71 214.878 1813.95 214.011 1813.95 213.102V210.034C1813.81 210.205 1813.49 210.361 1813.01 210.503C1812.54 210.635 1811.99 210.754 1811.36 210.858C1810.75 210.953 1810.15 211.038 1809.56 211.114C1808.98 211.18 1808.51 211.237 1808.15 211.284C1807.28 211.398 1806.47 211.582 1805.71 211.838C1804.96 212.084 1804.36 212.458 1803.89 212.96C1803.44 213.453 1803.21 214.125 1803.21 214.977C1803.21 216.142 1803.64 217.023 1804.5 217.619C1805.37 218.206 1806.48 218.5 1807.81 218.5ZM1833.14 199.182V202.023H1821.37V199.182H1833.14ZM1824.9 221V196.17C1824.9 194.92 1825.19 193.879 1825.78 193.045C1826.36 192.212 1827.13 191.587 1828.06 191.17C1829 190.754 1829.99 190.545 1831.03 190.545C1831.86 190.545 1832.53 190.612 1833.05 190.744C1833.57 190.877 1833.96 191 1834.22 191.114L1833.25 194.011C1833.08 193.955 1832.84 193.884 1832.54 193.798C1832.25 193.713 1831.86 193.67 1831.37 193.67C1830.27 193.67 1829.47 193.95 1828.97 194.509C1828.49 195.067 1828.25 195.886 1828.25 196.966V221H1824.9ZM1846.08 221.455C1843.98 221.455 1842.17 220.991 1840.64 220.062C1839.13 219.125 1837.96 217.818 1837.13 216.142C1836.32 214.456 1835.91 212.496 1835.91 210.261C1835.91 208.027 1836.32 206.057 1837.13 204.352C1837.96 202.638 1839.1 201.303 1840.57 200.347C1842.05 199.381 1843.77 198.898 1845.74 198.898C1846.88 198.898 1848 199.087 1849.11 199.466C1850.22 199.845 1851.23 200.46 1852.13 201.312C1853.04 202.155 1853.77 203.273 1854.31 204.665C1854.85 206.057 1855.12 207.771 1855.12 209.807V211.227H1838.3V208.33H1851.71C1851.71 207.098 1851.46 206 1850.97 205.034C1850.49 204.068 1849.8 203.306 1848.9 202.747C1848.01 202.188 1846.95 201.909 1845.74 201.909C1844.41 201.909 1843.25 202.241 1842.28 202.903C1841.31 203.557 1840.57 204.409 1840.05 205.46C1839.53 206.511 1839.26 207.638 1839.26 208.841V210.773C1839.26 212.42 1839.55 213.817 1840.12 214.963C1840.69 216.099 1841.5 216.966 1842.52 217.562C1843.54 218.15 1844.73 218.443 1846.08 218.443C1846.96 218.443 1847.76 218.32 1848.47 218.074C1849.19 217.818 1849.81 217.439 1850.33 216.938C1850.85 216.426 1851.25 215.792 1851.54 215.034L1854.78 215.943C1854.44 217.042 1853.86 218.008 1853.06 218.841C1852.25 219.665 1851.26 220.309 1850.07 220.773C1848.89 221.227 1847.56 221.455 1846.08 221.455ZM1869.71 199.182V202.023H1858.4V199.182H1869.71ZM1861.69 193.955H1865.05V214.75C1865.05 215.697 1865.18 216.407 1865.46 216.881C1865.74 217.345 1866.1 217.657 1866.54 217.818C1866.98 217.97 1867.45 218.045 1867.94 218.045C1868.31 218.045 1868.62 218.027 1868.85 217.989C1869.09 217.941 1869.28 217.903 1869.42 217.875L1870.1 220.886C1869.88 220.972 1869.56 221.057 1869.15 221.142C1868.74 221.237 1868.23 221.284 1867.6 221.284C1866.66 221.284 1865.73 221.08 1864.82 220.673C1863.92 220.266 1863.17 219.646 1862.57 218.812C1861.99 217.979 1861.69 216.928 1861.69 215.659V193.955ZM1876.91 229.182C1876.34 229.182 1875.83 229.134 1875.39 229.04C1874.94 228.955 1874.63 228.869 1874.46 228.784L1875.32 225.83C1876.13 226.038 1876.85 226.114 1877.48 226.057C1878.1 226 1878.65 225.721 1879.14 225.219C1879.63 224.726 1880.08 223.926 1880.49 222.818L1881.11 221.114L1873.04 199.182H1876.68L1882.7 216.568H1882.93L1888.95 199.182H1892.59L1883.33 224.182C1882.91 225.309 1882.39 226.241 1881.78 226.98C1881.16 227.728 1880.45 228.282 1879.63 228.642C1878.83 229.002 1877.92 229.182 1876.91 229.182Z" fill="#CBCCCD"/>
<path d="M1838.42 117.207L1852.78 125.499V142.083L1838.42 150.375L1824.06 142.083V125.499L1838.42 117.207Z" fill="#E6E4E4"/>
<path d="M1838.42 121.353L1849.19 127.572V140.01L1838.42 146.229L1827.65 140.01V127.572L1838.42 121.353Z" fill="#B6B6B6"/>
<path d="M1838.42 125.499L1845.6 129.645V137.937L1838.42 142.083L1831.24 137.937V129.645L1838.42 125.499Z" fill="#A7A5A5"/>
<path d="M1855.83 89.0146L1870.19 97.3065V113.89L1855.83 122.182L1841.47 113.89V97.3065L1855.83 89.0146Z" fill="#E6E4E4"/>
<path d="M1855.83 93.1606L1866.6 99.3795V111.817L1855.83 118.036L1845.06 111.817V99.3795L1855.83 93.1606Z" fill="#B6B6B6"/>
<path d="M1855.83 97.3066L1863.01 101.453V109.744L1855.83 113.89L1848.65 109.744V101.453L1855.83 97.3066Z" fill="#A7A5A5"/>
<path d="M1872.42 117.207L1886.78 125.499V142.083L1872.42 150.375L1858.05 142.083V125.499L1872.42 117.207Z" fill="#E6E4E4"/>
<path d="M1872.42 121.353L1883.19 127.572V140.01L1872.42 146.229L1861.65 140.01V127.572L1872.42 121.353Z" fill="#B6B6B6"/>
<path d="M1872.42 125.499L1879.6 129.645V137.937L1872.42 142.083L1865.24 137.937V129.645L1872.42 125.499Z" fill="#A7A5A5"/>
<path d="M1776.16 12L1834.33 45.5821V112.746L1776.16 146.328L1718 112.746V45.5821L1776.16 12Z" fill="#E6E4E4"/>
<path d="M1776.16 28.791L1819.79 53.9776V104.351L1776.16 129.537L1732.54 104.351V53.9776L1776.16 28.791Z" fill="#B6B6B6"/>
<path d="M1776.16 45.5822L1805.25 62.3732V95.9553L1776.16 112.746L1747.08 95.9553V62.3732L1776.16 45.5822Z" fill="#A7A5A5"/>
<line x1="0.0105764" y1="172" x2="1891.01" y2="174" stroke="#CBCCCD" stroke-width="20"/>
<path d="M4.43182 72.5341V67.25C9.17614 67.25 12.4858 66.2557 14.3608 64.267C16.2642 62.2784 17.2159 58.9545 17.2159 54.2955V40.6591C17.2159 36.7386 17.5852 33.3437 18.3239 30.4744C19.0909 27.6051 20.3267 25.233 22.0312 23.358C23.7358 21.483 26.0085 20.0909 28.8494 19.1818C31.6903 18.2727 35.1989 17.8182 39.375 17.8182V26.1705C36.0795 26.1705 33.4801 26.6818 31.5767 27.7045C29.7017 28.7273 28.3665 30.3182 27.571 32.4773C26.804 34.608 26.4205 37.3352 26.4205 40.6591V57.7045C26.4205 59.9205 26.1222 61.9375 25.5256 63.7557C24.9574 65.5739 23.892 67.1364 22.3295 68.4432C20.767 69.75 18.5369 70.7585 15.6392 71.4688C12.7699 72.179 9.03409 72.5341 4.43182 72.5341ZM39.375 126.909C35.1989 126.909 31.6903 126.455 28.8494 125.545C26.0085 124.636 23.7358 123.244 22.0312 121.369C20.3267 119.494 19.0909 117.122 18.3239 114.253C17.5852 111.384 17.2159 107.989 17.2159 104.068V90.4318C17.2159 85.7727 16.2642 82.4489 14.3608 80.4602C12.4858 78.4716 9.17614 77.4773 4.43182 77.4773V72.1932C9.03409 72.1932 12.7699 72.5483 15.6392 73.2585C18.5369 73.9687 20.767 74.9773 22.3295 76.2841C23.892 77.5909 24.9574 79.1534 25.5256 80.9716C26.1222 82.7898 26.4205 84.8068 26.4205 87.0227V104.068C26.4205 107.392 26.804 110.119 27.571 112.25C28.3665 114.381 29.7017 115.957 31.5767 116.98C33.4801 118.031 36.0795 118.557 39.375 118.557V126.909ZM4.43182 77.4773V67.25H14.4886V77.4773H4.43182ZM124.272 56H113.704C113.079 52.9602 111.985 50.2898 110.423 47.9886C108.888 45.6875 107.013 43.7557 104.798 42.1932C102.61 40.6023 100.181 39.4091 97.5107 38.6136C94.8402 37.8182 92.0561 37.4205 89.1584 37.4205C83.8743 37.4205 79.0874 38.7557 74.7976 41.4261C70.5362 44.0966 67.1413 48.0312 64.6129 53.2301C62.1129 58.429 60.8629 64.8068 60.8629 72.3636C60.8629 79.9205 62.1129 86.2983 64.6129 91.4972C67.1413 96.696 70.5362 100.631 74.7976 103.301C79.0874 105.972 83.8743 107.307 89.1584 107.307C92.0561 107.307 94.8402 106.909 97.5107 106.114C100.181 105.318 102.61 104.139 104.798 102.577C107.013 100.986 108.888 99.0398 110.423 96.7386C111.985 94.4091 113.079 91.7386 113.704 88.7273H124.272C123.477 93.1875 122.028 97.179 119.925 100.702C117.823 104.224 115.21 107.222 112.085 109.693C108.96 112.136 105.451 113.997 101.559 115.276C97.6953 116.554 93.5618 117.193 89.1584 117.193C81.7152 117.193 75.0959 115.375 69.3004 111.739C63.505 108.102 58.9453 102.932 55.6214 96.2273C52.2976 89.5227 50.6357 81.5682 50.6357 72.3636C50.6357 63.1591 52.2976 55.2045 55.6214 48.5C58.9453 41.7955 63.505 36.625 69.3004 32.9886C75.0959 29.3523 81.7152 27.5341 89.1584 27.5341C93.5618 27.5341 97.6953 28.1733 101.559 29.4517C105.451 30.7301 108.96 32.6051 112.085 35.0767C115.21 37.5199 117.823 40.5028 119.925 44.0256C122.028 47.5199 123.477 51.5114 124.272 56ZM166.577 117.364C160.668 117.364 155.483 115.957 151.023 113.145C146.591 110.332 143.125 106.398 140.625 101.341C138.153 96.2841 136.918 90.375 136.918 83.6136C136.918 76.7955 138.153 70.8437 140.625 65.7585C143.125 60.6733 146.591 56.7244 151.023 53.9119C155.483 51.0994 160.668 49.6932 166.577 49.6932C172.486 49.6932 177.656 51.0994 182.088 53.9119C186.548 56.7244 190.014 60.6733 192.486 65.7585C194.986 70.8437 196.236 76.7955 196.236 83.6136C196.236 90.375 194.986 96.2841 192.486 101.341C190.014 106.398 186.548 110.332 182.088 113.145C177.656 115.957 172.486 117.364 166.577 117.364ZM166.577 108.33C171.065 108.33 174.759 107.179 177.656 104.878C180.554 102.577 182.699 99.5511 184.091 95.8011C185.483 92.0511 186.179 87.9886 186.179 83.6136C186.179 79.2386 185.483 75.1619 184.091 71.3835C182.699 67.6051 180.554 64.5511 177.656 62.2216C174.759 59.892 171.065 58.7273 166.577 58.7273C162.088 58.7273 158.395 59.892 155.497 62.2216C152.599 64.5511 150.455 67.6051 149.062 71.3835C147.67 75.1619 146.974 79.2386 146.974 83.6136C146.974 87.9886 147.67 92.0511 149.062 95.8011C150.455 99.5511 152.599 102.577 155.497 104.878C158.395 107.179 162.088 108.33 166.577 108.33ZM236.303 117.364C230.849 117.364 226.033 115.986 221.857 113.23C217.681 110.446 214.414 106.526 212.056 101.469C209.698 96.3835 208.519 90.375 208.519 83.4432C208.519 76.5682 209.698 70.6023 212.056 65.5455C214.414 60.4886 217.695 56.5824 221.9 53.8267C226.104 51.071 230.962 49.6932 236.474 49.6932C240.735 49.6932 244.102 50.4034 246.573 51.8239C249.073 53.2159 250.977 54.8068 252.283 56.5966C253.619 58.358 254.656 59.8068 255.394 60.9432H256.246V28.7273H266.303V116H256.587V105.943H255.394C254.656 107.136 253.604 108.642 252.241 110.46C250.877 112.25 248.931 113.855 246.403 115.276C243.874 116.668 240.508 117.364 236.303 117.364ZM237.667 108.33C241.701 108.33 245.11 107.278 247.894 105.176C250.678 103.045 252.795 100.105 254.244 96.3551C255.692 92.5767 256.417 88.2159 256.417 83.2727C256.417 78.3864 255.707 74.1108 254.286 70.446C252.866 66.7528 250.763 63.8835 247.979 61.8381C245.195 59.7642 241.758 58.7273 237.667 58.7273C233.406 58.7273 229.854 59.821 227.013 62.0085C224.201 64.1676 222.085 67.108 220.664 70.8295C219.272 74.5227 218.576 78.6705 218.576 83.2727C218.576 87.9318 219.286 92.1648 220.707 95.9716C222.156 99.75 224.286 102.761 227.099 105.006C229.94 107.222 233.462 108.33 237.667 108.33ZM313.562 117.364C307.255 117.364 301.815 115.972 297.241 113.188C292.695 110.375 289.187 106.455 286.715 101.426C284.272 96.3693 283.05 90.4886 283.05 83.7841C283.05 77.0795 284.272 71.1705 286.715 66.0568C289.187 60.9148 292.624 56.9091 297.028 54.0398C301.46 51.142 306.63 49.6932 312.539 49.6932C315.948 49.6932 319.315 50.2614 322.638 51.3977C325.962 52.5341 328.988 54.3807 331.715 56.9375C334.442 59.4659 336.616 62.8182 338.235 66.9943C339.854 71.1705 340.664 76.3125 340.664 82.4205V86.6818H290.21V77.9886H330.437C330.437 74.2955 329.698 71 328.221 68.1023C326.772 65.2045 324.698 62.9176 321.999 61.2415C319.329 59.5653 316.175 58.7273 312.539 58.7273C308.533 58.7273 305.067 59.7216 302.141 61.7102C299.244 63.6705 297.013 66.2273 295.451 69.3807C293.888 72.5341 293.107 75.9148 293.107 79.5227V85.3182C293.107 90.2614 293.96 94.4517 295.664 97.8892C297.397 101.298 299.798 103.898 302.866 105.688C305.934 107.449 309.499 108.33 313.562 108.33C316.204 108.33 318.59 107.96 320.721 107.222C322.88 106.455 324.741 105.318 326.303 103.812C327.866 102.278 329.073 100.375 329.925 98.1023L339.641 100.83C338.619 104.125 336.9 107.023 334.485 109.523C332.07 111.994 329.087 113.926 325.536 115.318C321.985 116.682 317.994 117.364 313.562 117.364ZM357.326 116V28.7273H387.837C393.917 28.7273 398.931 29.7784 402.88 31.8807C406.829 33.9545 409.769 36.7528 411.701 40.2756C413.633 43.7699 414.599 47.6477 414.599 51.9091C414.599 55.6591 413.931 58.7557 412.596 61.1989C411.289 63.642 409.556 65.5739 407.397 66.9943C405.266 68.4148 402.951 69.4659 400.451 70.1477V71C403.121 71.1705 405.806 72.108 408.505 73.8125C411.204 75.517 413.462 77.9602 415.281 81.142C417.099 84.3239 418.008 88.2159 418.008 92.8182C418.008 97.1932 417.013 101.128 415.025 104.622C413.036 108.116 409.897 110.886 405.607 112.932C401.317 114.977 395.735 116 388.86 116H357.326ZM367.894 106.625H388.86C395.763 106.625 400.664 105.29 403.562 102.619C406.488 99.9205 407.951 96.6534 407.951 92.8182C407.951 89.8636 407.198 87.1364 405.692 84.6364C404.187 82.108 402.042 80.0909 399.258 78.5852C396.474 77.0511 393.178 76.2841 389.371 76.2841H367.894V106.625ZM367.894 67.0795H387.496C390.678 67.0795 393.548 66.4545 396.104 65.2045C398.69 63.9545 400.735 62.1932 402.241 59.9205C403.775 57.6477 404.542 54.9773 404.542 51.9091C404.542 48.0739 403.207 44.821 400.536 42.1506C397.866 39.4517 393.633 38.1023 387.837 38.1023H367.894V67.0795ZM444.066 28.7273V116H434.009V28.7273H444.066ZM503.736 89.2386V50.5455H513.793V116H503.736V104.92H503.054C501.52 108.244 499.134 111.071 495.895 113.401C492.656 115.702 488.565 116.852 483.622 116.852C479.531 116.852 475.895 115.957 472.713 114.168C469.531 112.349 467.031 109.622 465.213 105.986C463.395 102.321 462.486 97.7045 462.486 92.1364V50.5455H472.543V91.4545C472.543 96.2273 473.878 100.034 476.548 102.875C479.247 105.716 482.685 107.136 486.861 107.136C489.361 107.136 491.903 106.497 494.489 105.219C497.102 103.94 499.29 101.98 501.051 99.3381C502.841 96.696 503.736 93.3295 503.736 89.2386ZM559.656 117.364C553.349 117.364 547.908 115.972 543.335 113.188C538.789 110.375 535.281 106.455 532.809 101.426C530.366 96.3693 529.144 90.4886 529.144 83.7841C529.144 77.0795 530.366 71.1705 532.809 66.0568C535.281 60.9148 538.718 56.9091 543.121 54.0398C547.553 51.142 552.724 49.6932 558.633 49.6932C562.042 49.6932 565.408 50.2614 568.732 51.3977C572.056 52.5341 575.082 54.3807 577.809 56.9375C580.536 59.4659 582.71 62.8182 584.329 66.9943C585.948 71.1705 586.758 76.3125 586.758 82.4205V86.6818H536.303V77.9886H576.531C576.531 74.2955 575.792 71 574.315 68.1023C572.866 65.2045 570.792 62.9176 568.093 61.2415C565.423 59.5653 562.269 58.7273 558.633 58.7273C554.627 58.7273 551.161 59.7216 548.235 61.7102C545.337 63.6705 543.107 66.2273 541.545 69.3807C539.982 72.5341 539.201 75.9148 539.201 79.5227V85.3182C539.201 90.2614 540.053 94.4517 541.758 97.8892C543.491 101.298 545.891 103.898 548.96 105.688C552.028 107.449 555.593 108.33 559.656 108.33C562.298 108.33 564.684 107.96 566.815 107.222C568.974 106.455 570.835 105.318 572.397 103.812C573.96 102.278 575.167 100.375 576.019 98.1023L585.735 100.83C584.712 104.125 582.994 107.023 580.579 109.523C578.164 111.994 575.181 113.926 571.63 115.318C568.079 116.682 564.087 117.364 559.656 117.364ZM602.056 140.545V50.5455H611.772V60.9432H612.965C613.704 59.8068 614.727 58.358 616.033 56.5966C617.369 54.8068 619.272 53.2159 621.744 51.8239C624.244 50.4034 627.624 49.6932 631.886 49.6932C637.397 49.6932 642.255 51.071 646.46 53.8267C650.664 56.5824 653.945 60.4886 656.303 65.5455C658.661 70.6023 659.84 76.5682 659.84 83.4432C659.84 90.375 658.661 96.3835 656.303 101.469C653.945 106.526 650.678 110.446 646.502 113.23C642.326 115.986 637.511 117.364 632.056 117.364C627.852 117.364 624.485 116.668 621.957 115.276C619.428 113.855 617.482 112.25 616.119 110.46C614.755 108.642 613.704 107.136 612.965 105.943H612.113V140.545H602.056ZM611.942 83.2727C611.942 88.2159 612.667 92.5767 614.116 96.3551C615.565 100.105 617.681 103.045 620.465 105.176C623.249 107.278 626.658 108.33 630.692 108.33C634.897 108.33 638.406 107.222 641.218 105.006C644.059 102.761 646.19 99.75 647.61 95.9716C649.059 92.1648 649.783 87.9318 649.783 83.2727C649.783 78.6705 649.073 74.5227 647.653 70.8295C646.261 67.108 644.144 64.1676 641.303 62.0085C638.491 59.821 634.954 58.7273 630.692 58.7273C626.602 58.7273 623.164 59.7642 620.38 61.8381C617.596 63.8835 615.494 66.7528 614.073 70.446C612.653 74.1108 611.942 78.3864 611.942 83.2727ZM675.181 116V50.5455H684.897V60.4318H685.579C686.772 57.1932 688.931 54.5653 692.056 52.5483C695.181 50.5312 698.704 49.5227 702.624 49.5227C703.363 49.5227 704.286 49.5369 705.394 49.5653C706.502 49.5937 707.34 49.6364 707.908 49.6932V59.9205C707.567 59.8352 706.786 59.7074 705.565 59.5369C704.371 59.3381 703.107 59.2386 701.772 59.2386C698.59 59.2386 695.749 59.9062 693.249 61.2415C690.778 62.5483 688.817 64.3665 687.369 66.696C685.948 68.9972 685.238 71.625 685.238 74.5795V116H675.181ZM719.83 116V50.5455H729.886V116H719.83ZM724.943 39.6364C722.983 39.6364 721.293 38.9687 719.872 37.6335C718.48 36.2983 717.784 34.6932 717.784 32.8182C717.784 30.9432 718.48 29.3381 719.872 28.0028C721.293 26.6676 722.983 26 724.943 26C726.903 26 728.58 26.6676 729.972 28.0028C731.392 29.3381 732.102 30.9432 732.102 32.8182C732.102 34.6932 731.392 36.2983 729.972 37.6335C728.58 38.9687 726.903 39.6364 724.943 39.6364ZM758.363 76.625V116H748.306V50.5455H758.022V60.7727H758.874C760.408 57.4489 762.738 54.7784 765.863 52.7614C768.988 50.7159 773.022 49.6932 777.965 49.6932C782.397 49.6932 786.275 50.6023 789.599 52.4205C792.923 54.2102 795.508 56.9375 797.354 60.6023C799.201 64.2386 800.124 68.8409 800.124 74.4091V116H790.067V75.0909C790.067 69.9489 788.732 65.9432 786.062 63.0739C783.391 60.1761 779.727 58.7273 775.067 58.7273C771.857 58.7273 768.988 59.4233 766.46 60.8153C763.96 62.2074 761.985 64.2386 760.536 66.9091C759.087 69.5795 758.363 72.8182 758.363 76.625ZM846.967 50.5455V59.0682H813.047V50.5455H846.967ZM822.933 34.8636H832.99V97.25C832.99 100.091 833.402 102.222 834.226 103.642C835.078 105.034 836.158 105.972 837.464 106.455C838.8 106.909 840.206 107.136 841.683 107.136C842.791 107.136 843.7 107.08 844.411 106.966C845.121 106.824 845.689 106.71 846.115 106.625L848.161 115.659C847.479 115.915 846.527 116.17 845.305 116.426C844.084 116.71 842.536 116.852 840.661 116.852C837.82 116.852 835.036 116.241 832.308 115.02C829.609 113.798 827.365 111.938 825.575 109.438C823.814 106.938 822.933 103.784 822.933 99.9773V34.8636ZM907.287 65.2045L898.253 67.7614C897.685 66.2557 896.847 64.7926 895.739 63.3722C894.659 61.9233 893.182 60.7301 891.307 59.7926C889.432 58.8551 887.031 58.3864 884.105 58.3864C880.099 58.3864 876.761 59.3097 874.091 61.1562C871.449 62.9744 870.128 65.2898 870.128 68.1023C870.128 70.6023 871.037 72.5767 872.855 74.0256C874.673 75.4744 877.514 76.6818 881.378 77.6477L891.094 80.0341C896.946 81.4545 901.307 83.6278 904.176 86.554C907.045 89.4517 908.48 93.1875 908.48 97.7614C908.48 101.511 907.401 104.864 905.241 107.818C903.111 110.773 900.128 113.102 896.293 114.807C892.457 116.511 887.997 117.364 882.912 117.364C876.236 117.364 870.71 115.915 866.335 113.017C861.96 110.119 859.19 105.886 858.026 100.318L867.571 97.9318C868.48 101.455 870.199 104.097 872.727 105.858C875.284 107.619 878.622 108.5 882.741 108.5C887.429 108.5 891.151 107.506 893.906 105.517C896.69 103.5 898.082 101.085 898.082 98.2727C898.082 96 897.287 94.0966 895.696 92.5625C894.105 91 891.662 89.8352 888.366 89.0682L877.457 86.5114C871.463 85.0909 867.06 82.8892 864.247 79.9062C861.463 76.8949 860.071 73.1307 860.071 68.6136C860.071 64.9205 861.108 61.6534 863.182 58.8125C865.284 55.9716 868.139 53.7415 871.747 52.1222C875.384 50.5028 879.503 49.6932 884.105 49.6932C890.582 49.6932 895.668 51.1136 899.361 53.9545C903.082 56.7955 905.724 60.5455 907.287 65.2045ZM953.448 79.0114V84.2955C948.704 84.2955 945.38 85.2898 943.477 87.2784C941.602 89.267 940.664 92.5909 940.664 97.25V110.886C940.664 114.807 940.281 118.202 939.513 121.071C938.775 123.94 937.553 126.312 935.849 128.188C934.144 130.062 931.871 131.455 929.031 132.364C926.19 133.273 922.681 133.727 918.505 133.727V125.375C921.8 125.375 924.386 124.849 926.261 123.798C928.164 122.776 929.499 121.199 930.266 119.068C931.062 116.938 931.46 114.21 931.46 110.886V93.8409C931.46 91.625 931.744 89.608 932.312 87.7898C932.908 85.9716 933.988 84.4091 935.55 83.1023C937.113 81.7955 939.329 80.7869 942.198 80.0767C945.096 79.3665 948.846 79.0114 953.448 79.0114ZM918.505 24.6364C922.681 24.6364 926.19 25.0909 929.031 26C931.871 26.9091 934.144 28.3011 935.849 30.1761C937.553 32.0511 938.775 34.4233 939.513 37.2926C940.281 40.1619 940.664 43.5568 940.664 47.4773V61.1136C940.664 65.7727 941.602 69.0966 943.477 71.0852C945.38 73.0739 948.704 74.0682 953.448 74.0682V79.3523C948.846 79.3523 945.096 78.9972 942.198 78.2869C939.329 77.5767 937.113 76.5682 935.55 75.2614C933.988 73.9545 932.908 72.392 932.312 70.5739C931.744 68.7557 931.46 66.7386 931.46 64.5227V47.4773C931.46 44.1534 931.062 41.4261 930.266 39.2955C929.499 37.1364 928.164 35.5455 926.261 34.5227C924.386 33.5 921.8 32.9886 918.505 32.9886V24.6364ZM953.448 74.0682V84.2955H943.391V74.0682H953.448Z" fill="#CBCCCD"/>
</svg>
