<svg width="1165" height="1150" viewBox="0 0 1165 1150" fill="none" xmlns="http://www.w3.org/2000/svg">
<path d="M583 150L1016.01 900H149.987L583 150Z" fill="#D9D9D9"/>
<circle cx="1015" cy="893" r="150" fill="#1D8A34"/>
<circle cx="583" cy="150" r="150" fill="#453C99"/>
<circle cx="150" cy="893" r="150" fill="#C96D2B"/>
<path d="M519.091 139.091C518.818 136.788 517.712 135 515.773 133.727C513.833 132.455 511.455 131.818 508.636 131.818C506.576 131.818 504.773 132.152 503.227 132.818C501.697 133.485 500.5 134.402 499.636 135.568C498.788 136.735 498.364 138.061 498.364 139.545C498.364 140.788 498.659 141.856 499.25 142.75C499.856 143.629 500.629 144.364 501.568 144.955C502.508 145.53 503.492 146.008 504.523 146.386C505.553 146.75 506.5 147.045 507.364 147.273L512.091 148.545C513.303 148.864 514.652 149.303 516.136 149.864C517.636 150.424 519.068 151.189 520.432 152.159C521.811 153.114 522.947 154.341 523.841 155.841C524.735 157.341 525.182 159.182 525.182 161.364C525.182 163.879 524.523 166.152 523.205 168.182C521.902 170.212 519.992 171.826 517.477 173.023C514.977 174.22 511.939 174.818 508.364 174.818C505.03 174.818 502.144 174.28 499.705 173.205C497.28 172.129 495.371 170.629 493.977 168.705C492.598 166.78 491.818 164.545 491.636 162H497.455C497.606 163.758 498.197 165.212 499.227 166.364C500.273 167.5 501.591 168.348 503.182 168.909C504.788 169.455 506.515 169.727 508.364 169.727C510.515 169.727 512.447 169.379 514.159 168.682C515.871 167.97 517.227 166.985 518.227 165.727C519.227 164.455 519.727 162.97 519.727 161.273C519.727 159.727 519.295 158.47 518.432 157.5C517.568 156.53 516.432 155.742 515.023 155.136C513.614 154.53 512.091 154 510.455 153.545L504.727 151.909C501.091 150.864 498.212 149.371 496.091 147.432C493.97 145.492 492.909 142.955 492.909 139.818C492.909 137.212 493.614 134.939 495.023 133C496.447 131.045 498.356 129.53 500.75 128.455C503.159 127.364 505.848 126.818 508.818 126.818C511.818 126.818 514.485 127.356 516.818 128.432C519.152 129.492 521 130.947 522.364 132.795C523.742 134.644 524.47 136.742 524.545 139.091H519.091ZM547.903 174.727C544.631 174.727 541.813 173.955 539.449 172.409C537.085 170.864 535.267 168.735 533.994 166.023C532.722 163.311 532.085 160.212 532.085 156.727C532.085 153.182 532.737 150.053 534.04 147.341C535.358 144.614 537.191 142.485 539.54 140.955C541.903 139.409 544.661 138.636 547.812 138.636C550.267 138.636 552.479 139.091 554.449 140C556.419 140.909 558.032 142.182 559.29 143.818C560.547 145.455 561.328 147.364 561.631 149.545H556.267C555.858 147.955 554.949 146.545 553.54 145.318C552.146 144.076 550.267 143.455 547.903 143.455C545.813 143.455 543.979 144 542.403 145.091C540.843 146.167 539.623 147.689 538.744 149.659C537.881 151.614 537.449 153.909 537.449 156.545C537.449 159.242 537.873 161.591 538.722 163.591C539.585 165.591 540.797 167.144 542.358 168.25C543.934 169.356 545.782 169.909 547.903 169.909C549.297 169.909 550.562 169.667 551.699 169.182C552.835 168.697 553.797 168 554.585 167.091C555.373 166.182 555.934 165.091 556.267 163.818H561.631C561.328 165.879 560.578 167.735 559.381 169.386C558.199 171.023 556.631 172.326 554.676 173.295C552.737 174.25 550.479 174.727 547.903 174.727ZM583.653 174.727C580.502 174.727 577.737 173.977 575.358 172.477C572.994 170.977 571.146 168.879 569.812 166.182C568.494 163.485 567.835 160.333 567.835 156.727C567.835 153.091 568.494 149.917 569.812 147.205C571.146 144.492 572.994 142.386 575.358 140.886C577.737 139.386 580.502 138.636 583.653 138.636C586.805 138.636 589.563 139.386 591.926 140.886C594.305 142.386 596.153 144.492 597.472 147.205C598.805 149.917 599.472 153.091 599.472 156.727C599.472 160.333 598.805 163.485 597.472 166.182C596.153 168.879 594.305 170.977 591.926 172.477C589.563 173.977 586.805 174.727 583.653 174.727ZM583.653 169.909C586.047 169.909 588.017 169.295 589.562 168.068C591.108 166.841 592.252 165.227 592.994 163.227C593.737 161.227 594.108 159.061 594.108 156.727C594.108 154.394 593.737 152.22 592.994 150.205C592.252 148.189 591.108 146.561 589.562 145.318C588.017 144.076 586.047 143.455 583.653 143.455C581.259 143.455 579.29 144.076 577.744 145.318C576.199 146.561 575.055 148.189 574.312 150.205C573.57 152.22 573.199 154.394 573.199 156.727C573.199 159.061 573.57 161.227 574.312 163.227C575.055 165.227 576.199 166.841 577.744 168.068C579.29 169.295 581.259 169.909 583.653 169.909ZM607.659 187.091V139.091H612.841V144.636H613.477C613.871 144.03 614.417 143.258 615.114 142.318C615.826 141.364 616.841 140.515 618.159 139.773C619.492 139.015 621.295 138.636 623.568 138.636C626.508 138.636 629.098 139.371 631.341 140.841C633.583 142.311 635.333 144.394 636.591 147.091C637.848 149.788 638.477 152.97 638.477 156.636C638.477 160.333 637.848 163.538 636.591 166.25C635.333 168.947 633.591 171.038 631.364 172.523C629.136 173.992 626.568 174.727 623.659 174.727C621.417 174.727 619.621 174.356 618.273 173.614C616.924 172.856 615.886 172 615.159 171.045C614.432 170.076 613.871 169.273 613.477 168.636H613.023V187.091H607.659ZM612.932 156.545C612.932 159.182 613.318 161.508 614.091 163.523C614.864 165.523 615.992 167.091 617.477 168.227C618.962 169.348 620.78 169.909 622.932 169.909C625.174 169.909 627.045 169.318 628.545 168.136C630.061 166.939 631.197 165.333 631.955 163.318C632.727 161.288 633.114 159.03 633.114 156.545C633.114 154.091 632.735 151.879 631.977 149.909C631.235 147.924 630.106 146.356 628.591 145.205C627.091 144.038 625.205 143.455 622.932 143.455C620.75 143.455 618.917 144.008 617.432 145.114C615.947 146.205 614.826 147.735 614.068 149.705C613.311 151.659 612.932 153.939 612.932 156.545ZM661.295 174.727C657.932 174.727 655.03 173.985 652.591 172.5C650.167 171 648.295 168.909 646.977 166.227C645.674 163.53 645.023 160.394 645.023 156.818C645.023 153.242 645.674 150.091 646.977 147.364C648.295 144.621 650.129 142.485 652.477 140.955C654.841 139.409 657.598 138.636 660.75 138.636C662.568 138.636 664.364 138.939 666.136 139.545C667.909 140.152 669.523 141.136 670.977 142.5C672.432 143.848 673.591 145.636 674.455 147.864C675.318 150.091 675.75 152.833 675.75 156.091V158.364H648.841V153.727H670.295C670.295 151.758 669.902 150 669.114 148.455C668.341 146.909 667.235 145.689 665.795 144.795C664.371 143.902 662.689 143.455 660.75 143.455C658.614 143.455 656.765 143.985 655.205 145.045C653.659 146.091 652.47 147.455 651.636 149.136C650.803 150.818 650.386 152.621 650.386 154.545V157.636C650.386 160.273 650.841 162.508 651.75 164.341C652.674 166.159 653.955 167.545 655.591 168.5C657.227 169.439 659.129 169.909 661.295 169.909C662.705 169.909 663.977 169.712 665.114 169.318C666.265 168.909 667.258 168.303 668.091 167.5C668.924 166.682 669.568 165.667 670.023 164.455L675.205 165.909C674.659 167.667 673.742 169.212 672.455 170.545C671.167 171.864 669.576 172.894 667.682 173.636C665.788 174.364 663.659 174.727 661.295 174.727Z" fill="#FFFDFD"/>
<path d="M911.636 917V870.455H927.909C931.152 870.455 933.826 871.015 935.932 872.136C938.038 873.242 939.606 874.735 940.636 876.614C941.667 878.477 942.182 880.545 942.182 882.818C942.182 884.818 941.826 886.47 941.114 887.773C940.417 889.076 939.492 890.106 938.341 890.864C937.205 891.621 935.97 892.182 934.636 892.545V893C936.061 893.091 937.492 893.591 938.932 894.5C940.371 895.409 941.576 896.712 942.545 898.409C943.515 900.106 944 902.182 944 904.636C944 906.97 943.47 909.068 942.409 910.932C941.348 912.795 939.674 914.273 937.386 915.364C935.098 916.455 932.121 917 928.455 917H911.636ZM917.273 912H928.455C932.136 912 934.75 911.288 936.295 909.864C937.856 908.424 938.636 906.682 938.636 904.636C938.636 903.061 938.235 901.606 937.432 900.273C936.629 898.924 935.485 897.848 934 897.045C932.515 896.227 930.758 895.818 928.727 895.818H917.273V912ZM917.273 890.909H927.727C929.424 890.909 930.955 890.576 932.318 889.909C933.697 889.242 934.788 888.303 935.591 887.091C936.409 885.879 936.818 884.455 936.818 882.818C936.818 880.773 936.106 879.038 934.682 877.614C933.258 876.174 931 875.455 927.909 875.455H917.273V890.909ZM974.534 902.727V882.091H979.898V917H974.534V911.091H974.17C973.352 912.864 972.08 914.371 970.352 915.614C968.625 916.841 966.443 917.455 963.807 917.455C961.625 917.455 959.686 916.977 957.989 916.023C956.292 915.053 954.958 913.598 953.989 911.659C953.019 909.705 952.534 907.242 952.534 904.273V882.091H957.898V903.909C957.898 906.455 958.61 908.485 960.034 910C961.473 911.515 963.307 912.273 965.534 912.273C966.867 912.273 968.223 911.932 969.602 911.25C970.996 910.568 972.163 909.523 973.102 908.114C974.057 906.705 974.534 904.909 974.534 902.727ZM1002.9 917.727C999.994 917.727 997.426 916.992 995.199 915.523C992.972 914.038 991.229 911.947 989.972 909.25C988.714 906.538 988.085 903.333 988.085 899.636C988.085 895.97 988.714 892.788 989.972 890.091C991.229 887.394 992.979 885.311 995.222 883.841C997.464 882.371 1000.05 881.636 1002.99 881.636C1005.27 881.636 1007.06 882.015 1008.38 882.773C1009.71 883.515 1010.73 884.364 1011.43 885.318C1012.14 886.258 1012.69 887.03 1013.09 887.636H1013.54V870.455H1018.9V917H1013.72V911.636H1013.09C1012.69 912.273 1012.13 913.076 1011.4 914.045C1010.68 915 1009.64 915.856 1008.29 916.614C1006.94 917.356 1005.15 917.727 1002.9 917.727ZM1003.63 912.909C1005.78 912.909 1007.6 912.348 1009.09 911.227C1010.57 910.091 1011.7 908.523 1012.47 906.523C1013.24 904.508 1013.63 902.182 1013.63 899.545C1013.63 896.939 1013.25 894.659 1012.49 892.705C1011.74 890.735 1010.62 889.205 1009.13 888.114C1007.65 887.008 1005.81 886.455 1003.63 886.455C1001.36 886.455 999.464 887.038 997.949 888.205C996.449 889.356 995.32 890.924 994.562 892.909C993.82 894.879 993.449 897.091 993.449 899.545C993.449 902.03 993.828 904.288 994.585 906.318C995.358 908.333 996.494 909.939 997.994 911.136C999.509 912.318 1001.39 912.909 1003.63 912.909ZM1043.56 930.818C1040.97 930.818 1038.74 930.485 1036.88 929.818C1035.02 929.167 1033.46 928.303 1032.22 927.227C1030.99 926.167 1030.02 925.03 1029.29 923.818L1033.56 920.818C1034.05 921.455 1034.66 922.182 1035.4 923C1036.15 923.833 1037.16 924.553 1038.45 925.159C1039.75 925.78 1041.46 926.091 1043.56 926.091C1046.38 926.091 1048.71 925.409 1050.54 924.045C1052.37 922.682 1053.29 920.545 1053.29 917.636V910.545H1052.84C1052.44 911.182 1051.88 911.97 1051.15 912.909C1050.44 913.833 1049.41 914.659 1048.06 915.386C1046.73 916.098 1044.93 916.455 1042.65 916.455C1039.84 916.455 1037.3 915.788 1035.06 914.455C1032.84 913.121 1031.07 911.182 1029.77 908.636C1028.48 906.091 1027.84 903 1027.84 899.364C1027.84 895.788 1028.46 892.674 1029.72 890.023C1030.98 887.356 1032.73 885.295 1034.97 883.841C1037.21 882.371 1039.8 881.636 1042.74 881.636C1045.02 881.636 1046.82 882.015 1048.15 882.773C1049.5 883.515 1050.53 884.364 1051.24 885.318C1051.97 886.258 1052.53 887.03 1052.93 887.636H1053.47V882.091H1058.65V918C1058.65 921 1057.97 923.439 1056.61 925.318C1055.26 927.212 1053.44 928.598 1051.15 929.477C1048.88 930.371 1046.35 930.818 1043.56 930.818ZM1043.38 911.636C1045.53 911.636 1047.35 911.144 1048.84 910.159C1050.32 909.174 1051.45 907.758 1052.22 905.909C1052.99 904.061 1053.38 901.848 1053.38 899.273C1053.38 896.758 1053 894.538 1052.24 892.614C1051.49 890.689 1050.37 889.182 1048.88 888.091C1047.4 887 1045.56 886.455 1043.38 886.455C1041.11 886.455 1039.21 887.03 1037.7 888.182C1036.2 889.333 1035.07 890.879 1034.31 892.818C1033.57 894.758 1033.2 896.909 1033.2 899.273C1033.2 901.697 1033.58 903.841 1034.34 905.705C1035.11 907.553 1036.24 909.008 1037.74 910.068C1039.26 911.114 1041.14 911.636 1043.38 911.636ZM1083.11 917.727C1079.74 917.727 1076.84 916.985 1074.4 915.5C1071.98 914 1070.11 911.909 1068.79 909.227C1067.49 906.53 1066.84 903.394 1066.84 899.818C1066.84 896.242 1067.49 893.091 1068.79 890.364C1070.11 887.621 1071.94 885.485 1074.29 883.955C1076.65 882.409 1079.41 881.636 1082.56 881.636C1084.38 881.636 1086.18 881.939 1087.95 882.545C1089.72 883.152 1091.34 884.136 1092.79 885.5C1094.24 886.848 1095.4 888.636 1096.27 890.864C1097.13 893.091 1097.56 895.833 1097.56 899.091V901.364H1070.65V896.727H1092.11C1092.11 894.758 1091.71 893 1090.93 891.455C1090.15 889.909 1089.05 888.689 1087.61 887.795C1086.18 886.902 1084.5 886.455 1082.56 886.455C1080.43 886.455 1078.58 886.985 1077.02 888.045C1075.47 889.091 1074.28 890.455 1073.45 892.136C1072.62 893.818 1072.2 895.621 1072.2 897.545V900.636C1072.2 903.273 1072.65 905.508 1073.56 907.341C1074.49 909.159 1075.77 910.545 1077.4 911.5C1079.04 912.439 1080.94 912.909 1083.11 912.909C1084.52 912.909 1085.79 912.712 1086.93 912.318C1088.08 911.909 1089.07 911.303 1089.9 910.5C1090.74 909.682 1091.38 908.667 1091.84 907.455L1097.02 908.909C1096.47 910.667 1095.55 912.212 1094.27 913.545C1092.98 914.864 1091.39 915.894 1089.49 916.636C1087.6 917.364 1085.47 917.727 1083.11 917.727ZM1120.9 882.091V886.636H1102.81V882.091H1120.9ZM1108.09 873.727H1113.45V907C1113.45 908.515 1113.67 909.652 1114.11 910.409C1114.56 911.152 1115.14 911.652 1115.84 911.909C1116.55 912.152 1117.3 912.273 1118.09 912.273C1118.68 912.273 1119.16 912.242 1119.54 912.182C1119.92 912.106 1120.22 912.045 1120.45 912L1121.54 916.818C1121.18 916.955 1120.67 917.091 1120.02 917.227C1119.37 917.379 1118.54 917.455 1117.54 917.455C1116.02 917.455 1114.54 917.129 1113.09 916.477C1111.65 915.826 1110.45 914.833 1109.49 913.5C1108.55 912.167 1108.09 910.485 1108.09 908.455V873.727Z" fill="white"/>
<path d="M496.545 620.455H502.727L507.909 627.273L509.273 629.091L517 639.364H510.818L505.727 632.545L504.455 630.818L496.545 620.455ZM518.909 611.727C518.909 616.636 518.023 620.879 516.25 624.455C514.477 628.03 512.045 630.788 508.955 632.727C505.864 634.667 502.333 635.636 498.364 635.636C494.394 635.636 490.864 634.667 487.773 632.727C484.682 630.788 482.25 628.03 480.477 624.455C478.705 620.879 477.818 616.636 477.818 611.727C477.818 606.818 478.705 602.576 480.477 599C482.25 595.424 484.682 592.667 487.773 590.727C490.864 588.788 494.394 587.818 498.364 587.818C502.333 587.818 505.864 588.788 508.955 590.727C512.045 592.667 514.477 595.424 516.25 599C518.023 602.576 518.909 606.818 518.909 611.727ZM513.455 611.727C513.455 607.697 512.78 604.295 511.432 601.523C510.098 598.75 508.288 596.652 506 595.227C503.727 593.803 501.182 593.091 498.364 593.091C495.545 593.091 492.992 593.803 490.705 595.227C488.432 596.652 486.621 598.75 485.273 601.523C483.939 604.295 483.273 607.697 483.273 611.727C483.273 615.758 483.939 619.159 485.273 621.932C486.621 624.705 488.432 626.803 490.705 628.227C492.992 629.652 495.545 630.364 498.364 630.364C501.182 630.364 503.727 629.652 506 628.227C508.288 626.803 510.098 624.705 511.432 621.932C512.78 619.159 513.455 615.758 513.455 611.727ZM549.659 620.727V600.091H555.023V635H549.659V629.091H549.295C548.477 630.864 547.205 632.371 545.477 633.614C543.75 634.841 541.568 635.455 538.932 635.455C536.75 635.455 534.811 634.977 533.114 634.023C531.417 633.053 530.083 631.598 529.114 629.659C528.144 627.705 527.659 625.242 527.659 622.273V600.091H533.023V621.909C533.023 624.455 533.735 626.485 535.159 628C536.598 629.515 538.432 630.273 540.659 630.273C541.992 630.273 543.348 629.932 544.727 629.25C546.121 628.568 547.288 627.523 548.227 626.114C549.182 624.705 549.659 622.909 549.659 620.727ZM575.119 635.818C572.907 635.818 570.9 635.402 569.097 634.568C567.294 633.72 565.862 632.5 564.801 630.909C563.741 629.303 563.21 627.364 563.21 625.091C563.21 623.091 563.604 621.47 564.392 620.227C565.18 618.97 566.233 617.985 567.551 617.273C568.869 616.561 570.324 616.03 571.915 615.682C573.521 615.318 575.134 615.03 576.756 614.818C578.877 614.545 580.597 614.341 581.915 614.205C583.248 614.053 584.218 613.803 584.824 613.455C585.445 613.106 585.756 612.5 585.756 611.636V611.455C585.756 609.212 585.142 607.47 583.915 606.227C582.703 604.985 580.862 604.364 578.392 604.364C575.831 604.364 573.824 604.924 572.369 606.045C570.915 607.167 569.892 608.364 569.301 609.636L564.21 607.818C565.119 605.697 566.331 604.045 567.847 602.864C569.377 601.667 571.044 600.833 572.847 600.364C574.665 599.879 576.453 599.636 578.21 599.636C579.331 599.636 580.619 599.773 582.074 600.045C583.544 600.303 584.96 600.841 586.324 601.659C587.703 602.477 588.847 603.712 589.756 605.364C590.665 607.015 591.119 609.227 591.119 612V635H585.756V630.273H585.483C585.119 631.03 584.513 631.841 583.665 632.705C582.816 633.568 581.688 634.303 580.278 634.909C578.869 635.515 577.15 635.818 575.119 635.818ZM575.938 631C578.059 631 579.847 630.583 581.301 629.75C582.771 628.917 583.877 627.841 584.619 626.523C585.377 625.205 585.756 623.818 585.756 622.364V617.455C585.528 617.727 585.028 617.977 584.256 618.205C583.498 618.417 582.619 618.606 581.619 618.773C580.634 618.924 579.672 619.061 578.733 619.182C577.809 619.288 577.059 619.379 576.483 619.455C575.089 619.636 573.786 619.932 572.574 620.341C571.377 620.735 570.407 621.333 569.665 622.136C568.938 622.924 568.574 624 568.574 625.364C568.574 627.227 569.263 628.636 570.642 629.591C572.036 630.53 573.801 631 575.938 631ZM606.273 588.455V635H600.909V588.455H606.273ZM616.097 635V600.091H621.46V635H616.097ZM618.824 594.273C617.778 594.273 616.877 593.917 616.119 593.205C615.377 592.492 615.006 591.636 615.006 590.636C615.006 589.636 615.377 588.78 616.119 588.068C616.877 587.356 617.778 587 618.824 587C619.869 587 620.763 587.356 621.506 588.068C622.263 588.78 622.642 589.636 622.642 590.636C622.642 591.636 622.263 592.492 621.506 593.205C620.763 593.917 619.869 594.273 618.824 594.273ZM646.466 600.091V604.636H628.375V600.091H646.466ZM633.648 591.727H639.011V625C639.011 626.515 639.231 627.652 639.67 628.409C640.125 629.152 640.701 629.652 641.398 629.909C642.11 630.152 642.86 630.273 643.648 630.273C644.239 630.273 644.723 630.242 645.102 630.182C645.481 630.106 645.784 630.045 646.011 630L647.102 634.818C646.739 634.955 646.231 635.091 645.58 635.227C644.928 635.379 644.102 635.455 643.102 635.455C641.587 635.455 640.102 635.129 638.648 634.477C637.208 633.826 636.011 632.833 635.057 631.5C634.117 630.167 633.648 628.485 633.648 626.455V591.727ZM657.989 648.091C657.08 648.091 656.269 648.015 655.557 647.864C654.845 647.727 654.352 647.591 654.08 647.455L655.443 642.727C656.746 643.061 657.898 643.182 658.898 643.091C659.898 643 660.784 642.553 661.557 641.75C662.345 640.962 663.064 639.682 663.716 637.909L664.716 635.182L651.807 600.091H657.625L667.261 627.909H667.625L677.261 600.091H683.08L668.261 640.091C667.595 641.894 666.769 643.386 665.784 644.568C664.799 645.765 663.655 646.652 662.352 647.227C661.064 647.803 659.61 648.091 657.989 648.091Z" fill="#111111"/>
<path d="M78.0909 875.455V870.455H113V875.455H98.3636V917H92.7273V875.455H78.0909ZM120.972 917V882.091H126.335V917H120.972ZM123.699 876.273C122.653 876.273 121.752 875.917 120.994 875.205C120.252 874.492 119.881 873.636 119.881 872.636C119.881 871.636 120.252 870.78 120.994 870.068C121.752 869.356 122.653 869 123.699 869C124.744 869 125.638 869.356 126.381 870.068C127.138 870.78 127.517 871.636 127.517 872.636C127.517 873.636 127.138 874.492 126.381 875.205C125.638 875.917 124.744 876.273 123.699 876.273ZM136.159 917V882.091H141.341V887.545H141.795C142.523 885.682 143.697 884.235 145.318 883.205C146.939 882.159 148.886 881.636 151.159 881.636C153.462 881.636 155.379 882.159 156.909 883.205C158.455 884.235 159.659 885.682 160.523 887.545H160.886C161.78 885.742 163.121 884.311 164.909 883.25C166.697 882.174 168.841 881.636 171.341 881.636C174.462 881.636 177.015 882.614 179 884.568C180.985 886.508 181.977 889.53 181.977 893.636V917H176.614V893.636C176.614 891.061 175.909 889.22 174.5 888.114C173.091 887.008 171.432 886.455 169.523 886.455C167.068 886.455 165.167 887.197 163.818 888.682C162.47 890.152 161.795 892.015 161.795 894.273V917H156.341V893.091C156.341 891.106 155.697 889.508 154.409 888.295C153.121 887.068 151.462 886.455 149.432 886.455C148.038 886.455 146.735 886.826 145.523 887.568C144.326 888.311 143.356 889.341 142.614 890.659C141.886 891.962 141.523 893.47 141.523 895.182V917H136.159ZM206.42 917.727C203.057 917.727 200.155 916.985 197.716 915.5C195.292 914 193.42 911.909 192.102 909.227C190.799 906.53 190.148 903.394 190.148 899.818C190.148 896.242 190.799 893.091 192.102 890.364C193.42 887.621 195.254 885.485 197.602 883.955C199.966 882.409 202.723 881.636 205.875 881.636C207.693 881.636 209.489 881.939 211.261 882.545C213.034 883.152 214.648 884.136 216.102 885.5C217.557 886.848 218.716 888.636 219.58 890.864C220.443 893.091 220.875 895.833 220.875 899.091V901.364H193.966V896.727H215.42C215.42 894.758 215.027 893 214.239 891.455C213.466 889.909 212.36 888.689 210.92 887.795C209.496 886.902 207.814 886.455 205.875 886.455C203.739 886.455 201.89 886.985 200.33 888.045C198.784 889.091 197.595 890.455 196.761 892.136C195.928 893.818 195.511 895.621 195.511 897.545V900.636C195.511 903.273 195.966 905.508 196.875 907.341C197.799 909.159 199.08 910.545 200.716 911.5C202.352 912.439 204.254 912.909 206.42 912.909C207.83 912.909 209.102 912.712 210.239 912.318C211.39 911.909 212.383 911.303 213.216 910.5C214.049 909.682 214.693 908.667 215.148 907.455L220.33 908.909C219.784 910.667 218.867 912.212 217.58 913.545C216.292 914.864 214.701 915.894 212.807 916.636C210.913 917.364 208.784 917.727 206.42 917.727Z" fill="white"/>
</svg>
