<svg width="1165" height="1150" viewBox="0 0 1165 1150" fill="none" xmlns="http://www.w3.org/2000/svg">
<path d="M583 150L1016.01 900H149.987L583 150Z" fill="#D9D9D9"/>
<circle cx="1015" cy="893" r="150" fill="#1D8A34"/>
<circle cx="583" cy="150" r="150" fill="#453C99"/>
<circle cx="150" cy="893" r="150" fill="#C96D2B"/>
<path d="M510.545 159.455H516.727L521.909 166.273L523.273 168.091L531 178.364H524.818L519.727 171.545L518.455 169.818L510.545 159.455ZM532.909 150.727C532.909 155.636 532.023 159.879 530.25 163.455C528.477 167.03 526.045 169.788 522.955 171.727C519.864 173.667 516.333 174.636 512.364 174.636C508.394 174.636 504.864 173.667 501.773 171.727C498.682 169.788 496.25 167.03 494.477 163.455C492.705 159.879 491.818 155.636 491.818 150.727C491.818 145.818 492.705 141.576 494.477 138C496.25 134.424 498.682 131.667 501.773 129.727C504.864 127.788 508.394 126.818 512.364 126.818C516.333 126.818 519.864 127.788 522.955 129.727C526.045 131.667 528.477 134.424 530.25 138C532.023 141.576 532.909 145.818 532.909 150.727ZM527.455 150.727C527.455 146.697 526.78 143.295 525.432 140.523C524.098 137.75 522.288 135.652 520 134.227C517.727 132.803 515.182 132.091 512.364 132.091C509.545 132.091 506.992 132.803 504.705 134.227C502.432 135.652 500.621 137.75 499.273 140.523C497.939 143.295 497.273 146.697 497.273 150.727C497.273 154.758 497.939 158.159 499.273 160.932C500.621 163.705 502.432 165.803 504.705 167.227C506.992 168.652 509.545 169.364 512.364 169.364C515.182 169.364 517.727 168.652 520 167.227C522.288 165.803 524.098 163.705 525.432 160.932C526.78 158.159 527.455 154.758 527.455 150.727ZM563.659 159.727V139.091H569.023V174H563.659V168.091H563.295C562.477 169.864 561.205 171.371 559.477 172.614C557.75 173.841 555.568 174.455 552.932 174.455C550.75 174.455 548.811 173.977 547.114 173.023C545.417 172.053 544.083 170.598 543.114 168.659C542.144 166.705 541.659 164.242 541.659 161.273V139.091H547.023V160.909C547.023 163.455 547.735 165.485 549.159 167C550.598 168.515 552.432 169.273 554.659 169.273C555.992 169.273 557.348 168.932 558.727 168.25C560.121 167.568 561.288 166.523 562.227 165.114C563.182 163.705 563.659 161.909 563.659 159.727ZM589.119 174.818C586.907 174.818 584.9 174.402 583.097 173.568C581.294 172.72 579.862 171.5 578.801 169.909C577.741 168.303 577.21 166.364 577.21 164.091C577.21 162.091 577.604 160.47 578.392 159.227C579.18 157.97 580.233 156.985 581.551 156.273C582.869 155.561 584.324 155.03 585.915 154.682C587.521 154.318 589.134 154.03 590.756 153.818C592.877 153.545 594.597 153.341 595.915 153.205C597.248 153.053 598.218 152.803 598.824 152.455C599.445 152.106 599.756 151.5 599.756 150.636V150.455C599.756 148.212 599.142 146.47 597.915 145.227C596.703 143.985 594.862 143.364 592.392 143.364C589.831 143.364 587.824 143.924 586.369 145.045C584.915 146.167 583.892 147.364 583.301 148.636L578.21 146.818C579.119 144.697 580.331 143.045 581.847 141.864C583.377 140.667 585.044 139.833 586.847 139.364C588.665 138.879 590.453 138.636 592.21 138.636C593.331 138.636 594.619 138.773 596.074 139.045C597.544 139.303 598.96 139.841 600.324 140.659C601.703 141.477 602.847 142.712 603.756 144.364C604.665 146.015 605.119 148.227 605.119 151V174H599.756V169.273H599.483C599.119 170.03 598.513 170.841 597.665 171.705C596.816 172.568 595.688 173.303 594.278 173.909C592.869 174.515 591.15 174.818 589.119 174.818ZM589.938 170C592.059 170 593.847 169.583 595.301 168.75C596.771 167.917 597.877 166.841 598.619 165.523C599.377 164.205 599.756 162.818 599.756 161.364V156.455C599.528 156.727 599.028 156.977 598.256 157.205C597.498 157.417 596.619 157.606 595.619 157.773C594.634 157.924 593.672 158.061 592.733 158.182C591.809 158.288 591.059 158.379 590.483 158.455C589.089 158.636 587.786 158.932 586.574 159.341C585.377 159.735 584.407 160.333 583.665 161.136C582.938 161.924 582.574 163 582.574 164.364C582.574 166.227 583.263 167.636 584.642 168.591C586.036 169.53 587.801 170 589.938 170ZM620.273 127.455V174H614.909V127.455H620.273ZM630.097 174V139.091H635.46V174H630.097ZM632.824 133.273C631.778 133.273 630.877 132.917 630.119 132.205C629.377 131.492 629.006 130.636 629.006 129.636C629.006 128.636 629.377 127.78 630.119 127.068C630.877 126.356 631.778 126 632.824 126C633.869 126 634.763 126.356 635.506 127.068C636.263 127.78 636.642 128.636 636.642 129.636C636.642 130.636 636.263 131.492 635.506 132.205C634.763 132.917 633.869 133.273 632.824 133.273ZM660.466 139.091V143.636H642.375V139.091H660.466ZM647.648 130.727H653.011V164C653.011 165.515 653.231 166.652 653.67 167.409C654.125 168.152 654.701 168.652 655.398 168.909C656.11 169.152 656.86 169.273 657.648 169.273C658.239 169.273 658.723 169.242 659.102 169.182C659.481 169.106 659.784 169.045 660.011 169L661.102 173.818C660.739 173.955 660.231 174.091 659.58 174.227C658.928 174.379 658.102 174.455 657.102 174.455C655.587 174.455 654.102 174.129 652.648 173.477C651.208 172.826 650.011 171.833 649.057 170.5C648.117 169.167 647.648 167.485 647.648 165.455V130.727ZM671.989 187.091C671.08 187.091 670.269 187.015 669.557 186.864C668.845 186.727 668.352 186.591 668.08 186.455L669.443 181.727C670.746 182.061 671.898 182.182 672.898 182.091C673.898 182 674.784 181.553 675.557 180.75C676.345 179.962 677.064 178.682 677.716 176.909L678.716 174.182L665.807 139.091H671.625L681.261 166.909H681.625L691.261 139.091H697.08L682.261 179.091C681.595 180.894 680.769 182.386 679.784 183.568C678.799 184.765 677.655 185.652 676.352 186.227C675.064 186.803 673.61 187.091 671.989 187.091Z" fill="#FFFDFD"/>
<path d="M911.636 917V870.455H927.909C931.152 870.455 933.826 871.015 935.932 872.136C938.038 873.242 939.606 874.735 940.636 876.614C941.667 878.477 942.182 880.545 942.182 882.818C942.182 884.818 941.826 886.47 941.114 887.773C940.417 889.076 939.492 890.106 938.341 890.864C937.205 891.621 935.97 892.182 934.636 892.545V893C936.061 893.091 937.492 893.591 938.932 894.5C940.371 895.409 941.576 896.712 942.545 898.409C943.515 900.106 944 902.182 944 904.636C944 906.97 943.47 909.068 942.409 910.932C941.348 912.795 939.674 914.273 937.386 915.364C935.098 916.455 932.121 917 928.455 917H911.636ZM917.273 912H928.455C932.136 912 934.75 911.288 936.295 909.864C937.856 908.424 938.636 906.682 938.636 904.636C938.636 903.061 938.235 901.606 937.432 900.273C936.629 898.924 935.485 897.848 934 897.045C932.515 896.227 930.758 895.818 928.727 895.818H917.273V912ZM917.273 890.909H927.727C929.424 890.909 930.955 890.576 932.318 889.909C933.697 889.242 934.788 888.303 935.591 887.091C936.409 885.879 936.818 884.455 936.818 882.818C936.818 880.773 936.106 879.038 934.682 877.614C933.258 876.174 931 875.455 927.909 875.455H917.273V890.909ZM974.534 902.727V882.091H979.898V917H974.534V911.091H974.17C973.352 912.864 972.08 914.371 970.352 915.614C968.625 916.841 966.443 917.455 963.807 917.455C961.625 917.455 959.686 916.977 957.989 916.023C956.292 915.053 954.958 913.598 953.989 911.659C953.019 909.705 952.534 907.242 952.534 904.273V882.091H957.898V903.909C957.898 906.455 958.61 908.485 960.034 910C961.473 911.515 963.307 912.273 965.534 912.273C966.867 912.273 968.223 911.932 969.602 911.25C970.996 910.568 972.163 909.523 973.102 908.114C974.057 906.705 974.534 904.909 974.534 902.727ZM1002.9 917.727C999.994 917.727 997.426 916.992 995.199 915.523C992.972 914.038 991.229 911.947 989.972 909.25C988.714 906.538 988.085 903.333 988.085 899.636C988.085 895.97 988.714 892.788 989.972 890.091C991.229 887.394 992.979 885.311 995.222 883.841C997.464 882.371 1000.05 881.636 1002.99 881.636C1005.27 881.636 1007.06 882.015 1008.38 882.773C1009.71 883.515 1010.73 884.364 1011.43 885.318C1012.14 886.258 1012.69 887.03 1013.09 887.636H1013.54V870.455H1018.9V917H1013.72V911.636H1013.09C1012.69 912.273 1012.13 913.076 1011.4 914.045C1010.68 915 1009.64 915.856 1008.29 916.614C1006.94 917.356 1005.15 917.727 1002.9 917.727ZM1003.63 912.909C1005.78 912.909 1007.6 912.348 1009.09 911.227C1010.57 910.091 1011.7 908.523 1012.47 906.523C1013.24 904.508 1013.63 902.182 1013.63 899.545C1013.63 896.939 1013.25 894.659 1012.49 892.705C1011.74 890.735 1010.62 889.205 1009.13 888.114C1007.65 887.008 1005.81 886.455 1003.63 886.455C1001.36 886.455 999.464 887.038 997.949 888.205C996.449 889.356 995.32 890.924 994.562 892.909C993.82 894.879 993.449 897.091 993.449 899.545C993.449 902.03 993.828 904.288 994.585 906.318C995.358 908.333 996.494 909.939 997.994 911.136C999.509 912.318 1001.39 912.909 1003.63 912.909ZM1043.56 930.818C1040.97 930.818 1038.74 930.485 1036.88 929.818C1035.02 929.167 1033.46 928.303 1032.22 927.227C1030.99 926.167 1030.02 925.03 1029.29 923.818L1033.56 920.818C1034.05 921.455 1034.66 922.182 1035.4 923C1036.15 923.833 1037.16 924.553 1038.45 925.159C1039.75 925.78 1041.46 926.091 1043.56 926.091C1046.38 926.091 1048.71 925.409 1050.54 924.045C1052.37 922.682 1053.29 920.545 1053.29 917.636V910.545H1052.84C1052.44 911.182 1051.88 911.97 1051.15 912.909C1050.44 913.833 1049.41 914.659 1048.06 915.386C1046.73 916.098 1044.93 916.455 1042.65 916.455C1039.84 916.455 1037.3 915.788 1035.06 914.455C1032.84 913.121 1031.07 911.182 1029.77 908.636C1028.48 906.091 1027.84 903 1027.84 899.364C1027.84 895.788 1028.46 892.674 1029.72 890.023C1030.98 887.356 1032.73 885.295 1034.97 883.841C1037.21 882.371 1039.8 881.636 1042.74 881.636C1045.02 881.636 1046.82 882.015 1048.15 882.773C1049.5 883.515 1050.53 884.364 1051.24 885.318C1051.97 886.258 1052.53 887.03 1052.93 887.636H1053.47V882.091H1058.65V918C1058.65 921 1057.97 923.439 1056.61 925.318C1055.26 927.212 1053.44 928.598 1051.15 929.477C1048.88 930.371 1046.35 930.818 1043.56 930.818ZM1043.38 911.636C1045.53 911.636 1047.35 911.144 1048.84 910.159C1050.32 909.174 1051.45 907.758 1052.22 905.909C1052.99 904.061 1053.38 901.848 1053.38 899.273C1053.38 896.758 1053 894.538 1052.24 892.614C1051.49 890.689 1050.37 889.182 1048.88 888.091C1047.4 887 1045.56 886.455 1043.38 886.455C1041.11 886.455 1039.21 887.03 1037.7 888.182C1036.2 889.333 1035.07 890.879 1034.31 892.818C1033.57 894.758 1033.2 896.909 1033.2 899.273C1033.2 901.697 1033.58 903.841 1034.34 905.705C1035.11 907.553 1036.24 909.008 1037.74 910.068C1039.26 911.114 1041.14 911.636 1043.38 911.636ZM1083.11 917.727C1079.74 917.727 1076.84 916.985 1074.4 915.5C1071.98 914 1070.11 911.909 1068.79 909.227C1067.49 906.53 1066.84 903.394 1066.84 899.818C1066.84 896.242 1067.49 893.091 1068.79 890.364C1070.11 887.621 1071.94 885.485 1074.29 883.955C1076.65 882.409 1079.41 881.636 1082.56 881.636C1084.38 881.636 1086.18 881.939 1087.95 882.545C1089.72 883.152 1091.34 884.136 1092.79 885.5C1094.24 886.848 1095.4 888.636 1096.27 890.864C1097.13 893.091 1097.56 895.833 1097.56 899.091V901.364H1070.65V896.727H1092.11C1092.11 894.758 1091.71 893 1090.93 891.455C1090.15 889.909 1089.05 888.689 1087.61 887.795C1086.18 886.902 1084.5 886.455 1082.56 886.455C1080.43 886.455 1078.58 886.985 1077.02 888.045C1075.47 889.091 1074.28 890.455 1073.45 892.136C1072.62 893.818 1072.2 895.621 1072.2 897.545V900.636C1072.2 903.273 1072.65 905.508 1073.56 907.341C1074.49 909.159 1075.77 910.545 1077.4 911.5C1079.04 912.439 1080.94 912.909 1083.11 912.909C1084.52 912.909 1085.79 912.712 1086.93 912.318C1088.08 911.909 1089.07 911.303 1089.9 910.5C1090.74 909.682 1091.38 908.667 1091.84 907.455L1097.02 908.909C1096.47 910.667 1095.55 912.212 1094.27 913.545C1092.98 914.864 1091.39 915.894 1089.49 916.636C1087.6 917.364 1085.47 917.727 1083.11 917.727ZM1120.9 882.091V886.636H1102.81V882.091H1120.9ZM1108.09 873.727H1113.45V907C1113.45 908.515 1113.67 909.652 1114.11 910.409C1114.56 911.152 1115.14 911.652 1115.84 911.909C1116.55 912.152 1117.3 912.273 1118.09 912.273C1118.68 912.273 1119.16 912.242 1119.54 912.182C1119.92 912.106 1120.22 912.045 1120.45 912L1121.54 916.818C1121.18 916.955 1120.67 917.091 1120.02 917.227C1119.37 917.379 1118.54 917.455 1117.54 917.455C1116.02 917.455 1114.54 917.129 1113.09 916.477C1111.65 915.826 1110.45 914.833 1109.49 913.5C1108.55 912.167 1108.09 910.485 1108.09 908.455V873.727Z" fill="white"/>
<path d="M78.0909 875.455V870.455H113V875.455H98.3636V917H92.7273V875.455H78.0909ZM120.972 917V882.091H126.335V917H120.972ZM123.699 876.273C122.653 876.273 121.752 875.917 120.994 875.205C120.252 874.492 119.881 873.636 119.881 872.636C119.881 871.636 120.252 870.78 120.994 870.068C121.752 869.356 122.653 869 123.699 869C124.744 869 125.638 869.356 126.381 870.068C127.138 870.78 127.517 871.636 127.517 872.636C127.517 873.636 127.138 874.492 126.381 875.205C125.638 875.917 124.744 876.273 123.699 876.273ZM136.159 917V882.091H141.341V887.545H141.795C142.523 885.682 143.697 884.235 145.318 883.205C146.939 882.159 148.886 881.636 151.159 881.636C153.462 881.636 155.379 882.159 156.909 883.205C158.455 884.235 159.659 885.682 160.523 887.545H160.886C161.78 885.742 163.121 884.311 164.909 883.25C166.697 882.174 168.841 881.636 171.341 881.636C174.462 881.636 177.015 882.614 179 884.568C180.985 886.508 181.977 889.53 181.977 893.636V917H176.614V893.636C176.614 891.061 175.909 889.22 174.5 888.114C173.091 887.008 171.432 886.455 169.523 886.455C167.068 886.455 165.167 887.197 163.818 888.682C162.47 890.152 161.795 892.015 161.795 894.273V917H156.341V893.091C156.341 891.106 155.697 889.508 154.409 888.295C153.121 887.068 151.462 886.455 149.432 886.455C148.038 886.455 146.735 886.826 145.523 887.568C144.326 888.311 143.356 889.341 142.614 890.659C141.886 891.962 141.523 893.47 141.523 895.182V917H136.159ZM206.42 917.727C203.057 917.727 200.155 916.985 197.716 915.5C195.292 914 193.42 911.909 192.102 909.227C190.799 906.53 190.148 903.394 190.148 899.818C190.148 896.242 190.799 893.091 192.102 890.364C193.42 887.621 195.254 885.485 197.602 883.955C199.966 882.409 202.723 881.636 205.875 881.636C207.693 881.636 209.489 881.939 211.261 882.545C213.034 883.152 214.648 884.136 216.102 885.5C217.557 886.848 218.716 888.636 219.58 890.864C220.443 893.091 220.875 895.833 220.875 899.091V901.364H193.966V896.727H215.42C215.42 894.758 215.027 893 214.239 891.455C213.466 889.909 212.36 888.689 210.92 887.795C209.496 886.902 207.814 886.455 205.875 886.455C203.739 886.455 201.89 886.985 200.33 888.045C198.784 889.091 197.595 890.455 196.761 892.136C195.928 893.818 195.511 895.621 195.511 897.545V900.636C195.511 903.273 195.966 905.508 196.875 907.341C197.799 909.159 199.08 910.545 200.716 911.5C202.352 912.439 204.254 912.909 206.42 912.909C207.83 912.909 209.102 912.712 210.239 912.318C211.39 911.909 212.383 911.303 213.216 910.5C214.049 909.682 214.693 908.667 215.148 907.455L220.33 908.909C219.784 910.667 218.867 912.212 217.58 913.545C216.292 914.864 214.701 915.894 212.807 916.636C210.913 917.364 208.784 917.727 206.42 917.727Z" fill="white"/>
</svg>
